<?xml version="1.0" encoding="UTF-8" standalone="no"?>
<svg
   width="24"
   height="24"
   viewBox="0 0 24 24"
   fill="none"
   version="1.1"
   id="svg5"
   xmlns="http://www.w3.org/2000/svg"
   xmlns:svg="http://www.w3.org/2000/svg">
  <defs
     id="defs5" />
  <path
     d="M6 6.1401C6 6.0627 6.0627 6 6.1401 6H17.8599C17.9373 6 18 6.0627 18 6.1401V12C18 15.3137 15.3137 18 12 18C8.6863 18 6 15.3137 6 12V6.1401Z"
     stroke="#333333"
     stroke-width="2"
     id="path1" />
  <path
     d="M10 6V2"
     stroke="#333333"
     stroke-width="2"
     stroke-linecap="round"
     stroke-linejoin="round"
     id="path2" />
  <path
     d="M14 6V2"
     stroke="#333333"
     stroke-width="2"
     stroke-linecap="round"
     stroke-linejoin="round"
     id="path3" />
  <path
     d="M11 13.5H13"
     stroke="#333333"
     stroke-width="2"
     stroke-linecap="round"
     stroke-linejoin="round"
     id="path4" />
  <path
     d="M12 18V20.5C12 21.3285 12.6715 22 13.5 22H19"
     stroke="#333333"
     stroke-width="2"
     stroke-linecap="round"
     stroke-linejoin="round"
     id="path5" />
  <path
     style="fill:#4776e6;fill-rule:evenodd;stroke:#4776e6;stroke-width:0.021838"
     d="m 13.080983,22.952777 c -0.652425,-0.120328 -1.231627,-0.487579 -1.613941,-1.023343 -0.140497,-0.19689 -0.309507,-0.561065 -0.378515,-0.81561 l -0.05824,-0.214825 -0.0079,-0.988107 -0.0079,-0.988106 -0.04773,-0.0094 c -0.02625,-0.0052 -0.136179,-0.02549 -0.244277,-0.04513 C 9.4717749,18.641008 8.2718636,18.043253 7.2939035,17.160243 6.1904758,16.163948 5.4246444,14.795099 5.1338519,13.299363 5.0217994,12.723003 5.0257323,12.857366 5.0177142,9.3316898 5.0094637,5.7038607 5.0026946,5.9009542 5.145239,5.6185756 5.2311459,5.4483948 5.4379828,5.2411017 5.6144073,5.1483723 5.8725923,5.0126693 5.874851,5.0125074 7.5177434,5.0121517 L 9.0081893,5.0118289 V 3.4549976 c 0,-1.6976107 -6.569e-4,-1.6875994 0.1262874,-1.9247003 0.1514362,-0.2828463 0.4670277,-0.4868958 0.78697,-0.5088251 0.1056263,-0.00724 0.2181793,-0.00106 0.2902383,0.015933 0.388222,0.091555 0.689016,0.4063752 0.760098,0.7955412 0.01553,0.085053 0.02367,0.6534795 0.02367,1.6542312 V 5.0118289 H 12 13.00455 V 3.4871773 c 0,-1.0007517 0.0081,-1.5691777 0.02367,-1.6542312 0.05393,-0.2952401 0.249453,-0.5626416 0.511977,-0.7001793 0.179919,-0.09426 0.331052,-0.1255038 0.538359,-0.1112946 0.319943,0.021929 0.635534,0.2259788 0.78697,0.5088251 0.126945,0.2371009 0.126288,0.2270896 0.126288,1.9247003 v 1.5568313 l 1.490446,3.228e-4 c 1.637182,3.547e-4 1.636071,2.767e-4 1.899391,0.1332002 0.170022,0.085827 0.377317,0.2927594 0.470096,0.469273 0.145774,0.2773397 0.138815,0.079195 0.130542,3.7170649 -0.008,3.5255732 -0.0041,3.3907692 -0.116097,3.9676732 -0.483337,2.489113 -2.246347,4.511561 -4.638709,5.321325 -0.285516,0.09664 -0.66159,0.194545 -0.949955,0.247304 -0.108098,0.01978 -0.21908,0.04046 -0.246627,0.04597 l -0.05008,0.01001 0.0064,0.856489 c 0.0062,0.829593 0.0079,0.859232 0.05354,0.943841 0.05515,0.102212 0.140701,0.186207 0.247678,0.243185 0.07318,0.03898 0.201279,0.04117 3.013649,0.05163 2.749452,0.01022 2.943438,0.0134 3.034554,0.04976 0.340798,0.136003 0.579313,0.430745 0.638727,0.789302 0.06883,0.415345 -0.164807,0.84267 -0.565253,1.033878 l -0.170813,0.08156 -3.002729,0.0037 c -2.372289,0.0029 -3.034825,-0.0022 -3.155596,-0.02451 z m -0.433927,-5.985453 c 2.258288,-0.296036 4.028497,-2.065549 4.32046,-4.318761 0.02839,-0.219132 0.03339,-0.661326 0.03339,-2.9535942 V 6.9990901 H 12 6.9990901 v 2.6958787 c 0,2.8772392 0.0012,2.9144682 0.1091893,3.3954262 0.4603986,2.050449 2.1428936,3.593879 4.2256606,3.876393 0.306924,0.04163 0.997468,0.04191 1.313116,5.36e-4 z"
     id="path6" />
  <path
     style="fill:#4776e6;fill-rule:evenodd;stroke:#4776e6;stroke-width:0.021838"
     d="M 10.757517,14.454977 C 10.22868,14.312764 9.9106546,13.7769 10.046215,13.25645 c 0.04783,-0.183643 0.129959,-0.321855 0.27143,-0.456796 0.147927,-0.141098 0.304831,-0.224508 0.500239,-0.265927 0.209663,-0.04444 2.154569,-0.04444 2.364232,0 0.195408,0.04142 0.352312,0.124829 0.500239,0.265927 0.558549,0.532766 0.307226,1.459364 -0.44927,1.656406 -0.184431,0.04804 -2.296339,0.04711 -2.475568,-0.0011 z"
     id="path7" />
</svg>
