<?xml version="1.0" encoding="UTF-8" standalone="no"?>
<svg
   width="24"
   height="24"
   viewBox="0 0 24 24"
   fill="none"
   version="1.1"
   id="svg3"
   xmlns="http://www.w3.org/2000/svg"
   xmlns:svg="http://www.w3.org/2000/svg">
  <defs
     id="defs3" />
  <path
     d="M9.518 22.0001C9.02805 20.4023 8.2889 19.2111 7.30055 18.4266C5.818 17.2499 3.46242 17.9812 2.59229 16.7675C1.72217 15.5537 3.20191 13.3216 3.72117 12.0045C4.24043 10.6875 1.7309 10.2218 2.02388 9.84795C2.21921 9.5987 3.48736 8.8794 5.82835 7.6901C6.4935 3.89678 8.9504 2.00012 13.1991 2.00012C19.5721 2.00012 22 7.4031 22 10.8395C22 14.276 19.0601 17.9782 14.8721 18.7764C14.4976 19.3218 15.0377 20.3964 16.4924 22.0001"
     stroke="#333333"
     stroke-width="2"
     stroke-linecap="round"
     stroke-linejoin="round"
     id="path1"
     style="stroke:#4776e6;stroke-opacity:1" />
  <path
     fill-rule="evenodd"
     clip-rule="evenodd"
     d="M9.74986 7.25005C9.42321 8.5172 9.52041 9.40695 10.0415 9.9193C10.5625 10.4317 11.4506 10.7668 12.7056 10.9245C12.4209 12.5589 12.7681 13.3256 13.7471 13.2247C14.7262 13.1238 15.3145 12.717 15.512 12.0042C17.0421 12.4343 17.8714 12.0744 17.9999 10.9245C18.1926 9.1997 17.2625 7.8238 16.8812 7.8238C16.4999 7.8238 15.512 7.7774 15.512 7.25005C15.512 6.72265 14.358 6.4247 13.3165 6.4247C12.275 6.4247 12.9018 5.72265 11.4716 6.00005C10.5182 6.18495 9.94426 6.6016 9.74986 7.25005Z"
     stroke="#333333"
     stroke-width="2"
     stroke-linejoin="round"
     id="path2"
     style="stroke:#4776e6;stroke-opacity:1" />
  <path
     d="M15.2501 12.7501C14.7417 13.0656 14.0439 13.5902 13.7501 14.0001C13.0157 15.0248 12.4199 15.6488 12.2896 16.3041"
     stroke="#333333"
     stroke-width="2"
     stroke-linecap="round"
     id="path3"
     style="stroke:#4776e6;stroke-opacity:1" />
</svg>
