<?xml version="1.0" encoding="UTF-8" standalone="no"?>
<svg
   width="24"
   height="24"
   viewBox="0 0 24 24"
   fill="none"
   version="1.1"
   id="svg2"
   sodipodi:docname="chart-line.svg"
   inkscape:version="1.3.2 (091e20e, 2023-11-25, custom)"
   xmlns:inkscape="http://www.inkscape.org/namespaces/inkscape"
   xmlns:sodipodi="http://sodipodi.sourceforge.net/DTD/sodipodi-0.dtd"
   xmlns="http://www.w3.org/2000/svg"
   xmlns:svg="http://www.w3.org/2000/svg">
  <defs
     id="defs2" />
  <sodipodi:namedview
     id="namedview2"
     pagecolor="#ffffff"
     bordercolor="#000000"
     borderopacity="0.25"
     inkscape:showpageshadow="2"
     inkscape:pageopacity="0.0"
     inkscape:pagecheckerboard="0"
     inkscape:deskcolor="#d1d1d1"
     inkscape:zoom="45.791667"
     inkscape:cx="12"
     inkscape:cy="11.989081"
     inkscape:window-width="2560"
     inkscape:window-height="1334"
     inkscape:window-x="2869"
     inkscape:window-y="-11"
     inkscape:window-maximized="1"
     inkscape:current-layer="svg2" />
  <path
     d="M3 3V21H21"
     stroke="#333333"
     stroke-width="2"
     stroke-linecap="round"
     stroke-linejoin="round"
     id="path1" />
  <path
     d="M7 17L11 9L16 13.5L21 3"
     stroke="#333333"
     stroke-width="2"
     stroke-linecap="round"
     stroke-linejoin="round"
     id="path2" />
  <path
     style="fill:#4776e6;fill-rule:evenodd;stroke:#4776e6;stroke-width:0.021838"
     d="M 2.7076311,21.940754 C 2.4368818,21.846998 2.2399981,21.673679 2.1135038,21.417735 L 2.0309372,21.250673 V 12 2.7493272 L 2.1139892,2.581283 C 2.2198543,2.3670794 2.3681668,2.2193169 2.5847345,2.1122833 c 0.1612812,-0.079709 0.1696682,-0.081346 0.4168627,-0.081346 0.2385342,0 0.2603062,0.00381 0.3998629,0.069913 0.1660807,0.078671 0.3639612,0.2534941 0.4466668,0.3946207 0.030266,0.051645 0.073543,0.1533859 0.096172,0.2260915 0.040004,0.1285339 0.041143,0.3696361 0.041143,8.7125945 v 8.580402 h 8.5804021 c 8.342958,0 8.58406,0.0011 8.712594,0.04114 0.07271,0.02263 0.174447,0.06591 0.226092,0.09617 0.141126,0.08271 0.31595,0.280586 0.39462,0.446667 0.06611,0.139557 0.06991,0.161329 0.06991,0.399863 0,0.248219 -0.0013,0.254974 -0.08323,0.420685 -0.108943,0.22043 -0.257315,0.368446 -0.472206,0.471072 l -0.165214,0.0789 -9.215651,0.0048 c -8.6989931,0.0045 -9.2217885,0.0027 -9.3251263,-0.03311 z"
     id="path3" />
  <path
     style="fill:#4776e6;fill-rule:evenodd;stroke:#4776e6;stroke-width:0.021838"
     d="M 6.7099971,17.941215 C 6.2052866,17.779872 5.9049125,17.231318 6.051319,16.738314 c 0.019217,-0.06471 0.9569556,-1.960672 2.083863,-4.213245 2.182691,-4.3629771 2.086667,-4.1834471 2.324277,-4.345555 0.307789,-0.2099869 0.741368,-0.2175614 1.051957,-0.018377 0.06158,0.039491 1.018342,0.8874531 2.126138,1.884359 1.107797,0.996906 2.021194,1.815254 2.029772,1.818552 0.0086,0.0033 1.022152,-2.108926 2.252388,-4.69383 2.184015,-4.5889327 2.239816,-4.703079 2.364942,-4.8377428 0.09328,-0.1003901 0.173191,-0.1601786 0.293681,-0.2197277 0.162368,-0.080247 0.17035,-0.08181 0.417801,-0.08181 0.244768,0 0.257182,0.00235 0.417484,0.078902 0.214409,0.102396 0.363302,0.2507216 0.471555,0.4697558 0.07483,0.1513996 0.08337,0.1868175 0.09091,0.3770086 0.0066,0.1654471 -4.47e-4,0.235353 -0.0331,0.3300203 -0.02279,0.06606 -1.180929,2.5128943 -2.573647,5.4374094 l -2.532215,5.3173004 -0.141948,0.142797 c -0.310905,0.312765 -0.723554,0.38712 -1.119675,0.201752 -0.11419,-0.05344 -0.458578,-0.353521 -2.123415,-1.850257 -1.092915,-0.982562 -2.023296,-1.820839 -2.067513,-1.862838 l -0.0804,-0.07636 -1.7390375,3.47802 c -1.5734112,3.146774 -1.7497929,3.489393 -1.8519655,3.597426 -0.06211,0.06567 -0.1551827,0.144167 -0.2068274,0.174433 -0.2317257,0.1358 -0.5498371,0.173712 -0.7963515,0.09491 z"
     id="path4" />
</svg>
