<?xml version="1.0" encoding="UTF-8" standalone="no"?>
<svg
   width="24"
   height="24"
   viewBox="0 0 24 24"
   fill="none"
   version="1.1"
   id="svg4"
   xmlns="http://www.w3.org/2000/svg"
   xmlns:svg="http://www.w3.org/2000/svg">
  <defs
     id="defs4" />
  <path
     d="M12 20L18 14L16 16L14 18L12 20ZM12 20L2 10L8 4L12 8"
     stroke="#333333"
     stroke-width="2"
     stroke-linecap="round"
     stroke-linejoin="round"
     id="path1" />
  <path
     d="M8.5 11.5L16 4L22 10L18 14L14 10L11 13L8.5 11.5ZM8.5 11.5L12 8"
     stroke="#333333"
     stroke-width="2"
     stroke-linecap="round"
     stroke-linejoin="round"
     id="path2" />
  <path
     d="M14 18L12.5 16.5"
     stroke="#333333"
     stroke-width="2"
     stroke-linecap="round"
     stroke-linejoin="round"
     id="path3" />
  <path
     d="M16 16L14.5 14.5"
     stroke="#333333"
     stroke-width="2"
     stroke-linecap="round"
     stroke-linejoin="round"
     id="path4" />
  <path
     style="fill:#4776e6;fill-rule:evenodd;stroke:#4776e6;stroke-width:0.021838"
     d="m 11.847134,20.975577 c -0.149898,-0.028 -0.273617,-0.07828 -0.399183,-0.162249 C 11.385245,20.771397 9.0532759,18.45432 6.2657975,15.664268 0.79110161,10.184518 1.1075257,10.514487 1.037044,10.211685 0.99325913,10.023578 1.0195219,9.7826483 1.104457,9.5932523 1.1750537,9.4358291 1.2106535,9.3991866 4.2567199,6.3486661 5.9511926,4.6517155 7.3867152,3.2293338 7.4467698,3.187818 7.7696543,2.9646072 8.1911035,2.9586871 8.5386715,3.1724801 c 0.048044,0.029552 0.8464682,0.8114922 1.7742765,1.7376443 l 1.686925,1.6839129 1.697971,-1.6945464 c 1.631671,-1.6283814 1.704365,-1.6976598 1.861756,-1.7742804 0.297281,-0.1447225 0.577624,-0.1478481 0.872895,-0.00973 0.133519,0.062455 0.34048,0.2645104 3.258951,3.1817023 3.09477,3.0934139 3.116928,3.1161794 3.195817,3.2833721 0.135826,0.2878644 0.12956,0.5889771 -0.01831,0.8798661 -0.05806,0.11421 -0.714326,0.77953 -5.112911,5.183437 -2.775467,2.778825 -5.102796,5.094762 -5.171843,5.146526 -0.20086,0.150586 -0.508503,0.227884 -0.737063,0.185195 z m 0.457609,-2.674313 0.293217,-0.293822 -0.448834,-0.45591 c -0.400794,-0.407112 -0.457923,-0.474298 -0.533739,-0.627702 -0.08383,-0.169624 -0.08491,-0.174976 -0.08491,-0.424062 0,-0.238535 0.0038,-0.260306 0.06991,-0.399863 0.07867,-0.166081 0.253494,-0.363961 0.39462,-0.446667 0.30093,-0.176356 0.689593,-0.181241 0.987696,-0.01241 0.05405,0.03061 0.304852,0.260626 0.557341,0.511147 l 0.459071,0.455493 0.304778,-0.305363 0.304779,-0.305363 -0.461246,-0.464248 c -0.511714,-0.515046 -0.574727,-0.605261 -0.621784,-0.890199 -0.0509,-0.308232 0.04677,-0.592918 0.285247,-0.831395 0.31419,-0.314189 0.733702,-0.386189 1.121593,-0.192496 0.109358,0.05461 0.226018,0.157469 0.600001,0.529033 l 0.464248,0.461246 0.305655,-0.30507 0.305655,-0.30507 -1.293947,-1.294084 c -0.711671,-0.711746 -1.303687,-1.294084 -1.315591,-1.294084 -0.0119,0 -0.562253,0.5393 -1.222998,1.198443 -0.714848,0.713114 -1.241152,1.221165 -1.299627,1.254552 -0.264173,0.15083 -0.629744,0.161548 -0.895359,0.02625 -0.17696,-0.09015 -2.6392101,-1.574807 -2.7217581,-1.641144 -0.1039848,-0.08356 -0.2344651,-0.270541 -0.2834361,-0.406163 -0.093769,-0.259688 -0.077357,-0.518047 0.049634,-0.781348 0.075817,-0.157199 0.1372638,-0.22221 1.5278267,-1.6164577 L 10.601618,7.9918351 9.3026138,6.6929687 8.0036098,5.3941022 5.699703,7.6979312 3.3957963,10.00176 7.6924178,14.298423 c 2.3631422,2.363165 4.3016812,4.296663 4.3078652,4.296663 0.0062,0 0.143191,-0.132219 0.30446,-0.293822 z m 7.005593,-7.005594 1.29382,-1.293957 -2.303902,-2.3038248 -2.303902,-2.3038244 -2.94813,2.9480696 c -1.621472,1.6214384 -2.947867,2.9529966 -2.947544,2.9590196 3.23e-4,0.006 0.16983,0.1115 0.376683,0.234396 l 0.376096,0.223448 1.299386,-1.29609 c 1.418485,-1.4148856 1.374499,-1.3775238 1.690264,-1.4357058 0.188823,-0.034792 0.39717,-0.00236 0.600714,0.093521 0.133364,0.062819 0.269645,0.1932576 1.847353,1.7681488 0.936851,0.93518 1.708311,1.700423 1.714354,1.700541 0.006,1.18e-4 0.593207,-0.582066 1.304808,-1.293742 z"
     id="path5" />
</svg>
