<?xml version="1.0" encoding="UTF-8" standalone="no"?>
<svg
   width="24"
   height="24"
   viewBox="0 0 24 24"
   fill="none"
   version="1.1"
   id="svg4"
   xmlns="http://www.w3.org/2000/svg"
   xmlns:svg="http://www.w3.org/2000/svg">
  <defs
     id="defs4" />
  <path
     d="M14.5 2H4.5C3.94771 2 3.5 2.44771 3.5 3V21C3.5 21.5523 3.94771 22 4.5 22H18.5C19.0523 22 19.5 21.5523 19.5 21V10.0023"
     stroke="#333333"
     stroke-width="2"
     stroke-linecap="round"
     stroke-linejoin="round"
     id="path1" />
  <path
     d="M6.5 9H10.5"
     stroke="#333333"
     stroke-width="2"
     stroke-linecap="round"
     id="path2" />
  <path
     d="M6.5 14H12.5"
     stroke="#333333"
     stroke-width="2"
     stroke-linecap="round"
     id="path3" />
  <path
     d="M20.4995 3.00049L14.5022 8.9979"
     stroke="#333333"
     stroke-width="2"
     stroke-linecap="round"
     stroke-linejoin="round"
     id="path4" />
  <path
     style="fill:#4776e6;fill-rule:evenodd;stroke:#4776e6;stroke-width:0.021838"
     d="M 4.1782898,22.9623 C 3.3552708,22.822508 2.6979341,22.169146 2.5399277,21.333843 2.4976751,21.110474 2.4976751,2.8895258 2.5399277,2.6661568 2.6844968,1.9018907 3.2436741,1.2914985 3.9963603,1.0763299 l 0.1747043,-0.049942 h 5.2848044 5.284804 l 0.170813,0.081561 c 0.405176,0.1934663 0.637137,0.6241976 0.562142,1.0438466 -0.0677,0.37883 -0.32546,0.6772703 -0.680346,0.7877234 -0.128864,0.040107 -0.288627,0.041373 -5.2192494,0.041373 H 4.4877161 V 12 21.019108 h 7.0100089 7.010009 v -5.545786 c 0,-3.99351 0.0068,-5.578177 0.02434,-5.6615101 0.08369,-0.3978752 0.421656,-0.717524 0.830238,-0.785228 0.498975,-0.082683 1.012193,0.291263 1.110392,0.8090664 0.03188,0.1681277 0.03059,11.1239157 -0.0013,11.3909197 -0.09511,0.795186 -0.64087,1.438723 -1.429675,1.685813 l -0.195465,0.06123 -7.282985,0.003 c -4.0056412,0.0017 -7.3288684,-0.0048 -7.3849492,-0.01431 z"
     id="path5" />
  <path
     style="fill:#4776e6;fill-rule:evenodd;stroke:#4776e6;stroke-width:0.021838"
     d="M 6.2588818,9.9563417 C 5.7160285,9.8103603 5.3949814,9.2453686 5.5569964,8.7211356 5.6526715,8.4115592 5.8721611,8.1824203 6.1887647,8.0615932 c 0.1215528,-0.046389 0.1374016,-0.046769 2.2188786,-0.05323 1.4685356,-0.00456 2.1399647,7.841e-4 2.2417307,0.017837 0.427441,0.071625 0.762252,0.4123084 0.827169,0.8416773 0.07477,0.4945556 -0.280239,0.9930547 -0.78244,1.0986828 -0.08075,0.016985 -0.7505914,0.023906 -2.2165609,0.022903 -1.7638132,-0.00121 -2.1197377,-0.00652 -2.2186603,-0.033122 z"
     id="path6" />
  <path
     style="fill:#4776e6;fill-rule:evenodd;stroke:#4776e6;stroke-width:0.021838"
     d="M 6.2588818,14.957252 C 5.7150539,14.811008 5.3951937,14.245819 5.5579823,13.718771 5.6694927,13.357743 5.9753442,13.088075 6.3426725,13.026914 6.4427549,13.01025 7.419969,13.004934 9.5868972,13.009268 l 3.1010008,0.0062 0.131028,0.04934 c 0.278284,0.104797 0.494637,0.316084 0.604117,0.589971 0.04078,0.102019 0.05007,0.1672 0.0505,0.354317 5.04e-4,0.220043 -0.0028,0.236158 -0.08061,0.399207 -0.134113,0.280864 -0.364957,0.472626 -0.662126,0.550029 -0.188335,0.04905 -6.2892806,0.04803 -6.4719292,-0.0011 z"
     id="path7" />
  <path
     style="fill:#4776e6;fill-rule:evenodd;stroke:#4776e6;stroke-width:0.021838"
     d="M 14.273609,9.9563847 C 13.886784,9.8523544 13.595027,9.535416 13.526154,9.1444165 c -0.02962,-0.1681767 -4.2e-4,-0.368846 0.08089,-0.5558512 0.0564,-0.1297133 0.229982,-0.3078743 3.16262,-3.2460987 1.706619,-1.7098691 3.146098,-3.136919 3.198843,-3.171222 0.17181,-0.1117369 0.351048,-0.1574231 0.57857,-0.1474721 0.174403,0.00763 0.221845,0.01889 0.363598,0.086312 0.261394,0.1243282 0.43213,0.3165095 0.524742,0.5906532 0.06804,0.2013886 0.05387,0.4969325 -0.03332,0.6950764 -0.05962,0.1354907 -0.205045,0.2847008 -3.197198,3.2803811 -2.795998,2.7992941 -3.149002,3.1453581 -3.266729,3.2025105 -0.230423,0.1118624 -0.444442,0.1368783 -0.664568,0.077679 z"
     id="path8" />
</svg>
