<?xml version="1.0" encoding="UTF-8" standalone="no"?>
<svg
   width="24"
   height="24"
   viewBox="0 0 24 24"
   fill="none"
   version="1.1"
   id="svg5"
   xmlns="http://www.w3.org/2000/svg"
   xmlns:svg="http://www.w3.org/2000/svg">
  <defs
     id="defs5" />
  <path
     d="M7 13L2.5 17.5L7 22"
     stroke="#333333"
     stroke-width="2"
     stroke-linecap="round"
     stroke-linejoin="round"
     id="path1" />
  <path
     d="M2.5 17.5042H11.25"
     stroke="#333333"
     stroke-width="2"
     stroke-linecap="round"
     stroke-linejoin="round"
     id="path2" />
  <path
     d="M17.0002 9L21.5002 13.5L17.0002 18"
     stroke="#333333"
     stroke-width="2"
     stroke-linecap="round"
     stroke-linejoin="round"
     id="path3" />
  <path
     d="M21.5 13.5042H12.75"
     stroke="#333333"
     stroke-width="2"
     stroke-linecap="round"
     stroke-linejoin="round"
     id="path4" />
  <path
     d="M2.25 12V3.75H21.75V7.5"
     stroke="#333333"
     stroke-width="2"
     stroke-linecap="round"
     stroke-linejoin="round"
     id="path5" />
  <path
     style="fill:#4776e6;fill-rule:evenodd;stroke:#4776e6;stroke-width:0.021838"
     d="M 1.9872611,12.952047 C 1.7291648,12.870077 1.5007601,12.686273 1.380254,12.463571 1.2508282,12.224386 1.2564797,12.432881 1.2560662,7.8820817 1.2558023,4.9780566 1.2628823,3.6701749 1.2793549,3.5799889 1.348366,3.2021592 1.6361184,2.8933351 2.0098627,2.7959871 2.1244125,2.7661506 3.2104785,2.7625114 12,2.7625114 c 8.789522,0 9.875587,0.00364 9.990137,0.033476 0.375233,0.097736 0.661222,0.4046671 0.730508,0.7840018 0.01586,0.086822 0.02354,0.7641755 0.02329,2.0527753 -4.13e-4,2.0962211 -8.39e-4,2.1042171 -0.124188,2.3321719 -0.09664,0.1785897 -0.262949,0.3335105 -0.458033,0.4266606 -0.165226,0.078894 -0.178668,0.081561 -0.411031,0.081561 -0.232363,0 -0.245804,-0.00267 -0.41103,-0.081561 C 21.145587,8.2989336 20.978312,8.14364 20.883199,7.9678401 20.76016,7.7404221 20.757727,7.7055304 20.757375,6.1637853 L 20.757052,4.7497725 H 12 3.2429481 v 3.6548901 c 0,2.3568254 -0.0078,3.6966674 -0.021953,3.7725204 -0.086888,0.465562 -0.5029081,0.808139 -0.9764479,0.804068 -0.093463,-8.04e-4 -0.2092421,-0.01395 -0.2572858,-0.0292 z"
     id="path6" />
  <path
     style="fill:#4776e6;fill-rule:evenodd;stroke:#4776e6;stroke-width:0.021838"
     d="M 6.6933576,22.934515 C 6.6152866,22.907626 6.5124216,22.858842 6.4647688,22.826106 6.4171161,22.793371 5.3199188,21.70905 4.0265525,20.416504 1.7476449,18.139043 1.6727433,18.0616 1.6026787,17.910372 c -0.062184,-0.134218 -0.073491,-0.185074 -0.08082,-0.363511 -0.00992,-0.241487 0.036028,-0.413292 0.160289,-0.599368 0.040537,-0.0607 1.1183098,-1.153275 2.39505,-2.427938 2.2522904,-2.248626 2.3262182,-2.319926 2.4851312,-2.396762 0.505595,-0.24446 1.0743125,-0.04794 1.3241455,0.457567 0.071621,0.144916 0.083226,0.190378 0.091207,0.357316 0.010249,0.214373 -0.026367,0.380925 -0.1203245,0.54731 -0.034101,0.06039 -0.6205522,0.664423 -1.5212652,1.566879 l -1.4657715,1.468608 h 3.270715 c 3.2429608,0 3.2718458,3.81e-4 3.4040358,0.04491 0.364738,0.122871 0.614503,0.415219 0.679646,0.795517 0.0787,0.459455 -0.225537,0.940524 -0.685303,1.08362 -0.127963,0.03983 -0.25468,0.04137 -3.3893473,0.04137 H 4.8936535 l 1.4535828,1.457689 c 1.3994699,1.403423 1.4566441,1.46394 1.5358212,1.625609 0.070946,0.144861 0.083754,0.194506 0.093278,0.361532 0.011787,0.206722 -0.020205,0.365981 -0.1081416,0.538352 -0.058562,0.114792 -0.2450841,0.309712 -0.3618453,0.378139 -0.242227,0.141955 -0.5563595,0.175686 -0.8129909,0.0873 z"
     id="path7" />
  <path
     style="fill:#4776e6;fill-rule:evenodd;stroke:#4776e6;stroke-width:0.021838"
     d="m 16.760692,18.958471 c -0.467902,-0.127379 -0.76397,-0.538992 -0.73838,-1.026545 0.0084,-0.159668 0.02147,-0.209855 0.09296,-0.356424 0.0807,-0.165449 0.127014,-0.214498 1.53723,-1.62793 l 1.454025,-1.457342 -3.296666,-0.0058 -3.296666,-0.0058 -0.169907,-0.08113 c -0.513903,-0.245389 -0.723308,-0.834171 -0.473019,-1.32999 0.123078,-0.243816 0.332237,-0.421686 0.590317,-0.50201 0.127972,-0.03983 0.254896,-0.04137 3.401013,-0.04137 H 19.12968 L 17.663907,11.055505 C 16.763194,10.153049 16.176743,9.5490134 16.142642,9.488626 16.049043,9.3228754 16.012075,9.1555423 16.022213,8.9435035 c 0.0077,-0.1619926 0.02057,-0.2133744 0.08953,-0.3585818 0.143123,-0.3013767 0.409245,-0.5023397 0.741757,-0.5601414 0.187065,-0.032518 0.384662,-0.00135 0.584168,0.092145 0.131821,0.061776 0.306869,0.2310866 2.453762,2.3733417 1.271499,1.268752 2.355016,2.364513 2.407816,2.435026 0.137347,0.183423 0.190678,0.372407 0.179193,0.634995 -0.0079,0.180965 -0.01779,0.221446 -0.08888,0.364412 -0.07637,0.153575 -0.185927,0.266761 -2.428075,2.508421 -2.492311,2.491769 -2.446957,2.449773 -2.725874,2.524025 -0.138905,0.03698 -0.341874,0.03754 -0.474922,0.0013 z"
     id="path8" />
</svg>
