<?xml version="1.0" encoding="UTF-8" standalone="no"?>
<svg
   width="24"
   height="24"
   viewBox="0 0 24 24"
   fill="none"
   version="1.1"
   id="svg1"
   sodipodi:docname="lightning.svg"
   inkscape:version="1.3.2 (091e20e, 2023-11-25, custom)"
   xmlns:inkscape="http://www.inkscape.org/namespaces/inkscape"
   xmlns:sodipodi="http://sodipodi.sourceforge.net/DTD/sodipodi-0.dtd"
   xmlns="http://www.w3.org/2000/svg"
   xmlns:svg="http://www.w3.org/2000/svg">
  <defs
     id="defs1" />
  <sodipodi:namedview
     id="namedview1"
     pagecolor="#ffffff"
     bordercolor="#000000"
     borderopacity="0.25"
     inkscape:showpageshadow="2"
     inkscape:pageopacity="0.0"
     inkscape:pagecheckerboard="0"
     inkscape:deskcolor="#d1d1d1"
     inkscape:zoom="45.791667"
     inkscape:cx="12"
     inkscape:cy="11.989081"
     inkscape:window-width="2560"
     inkscape:window-height="1334"
     inkscape:window-x="2869"
     inkscape:window-y="-11"
     inkscape:window-maximized="1"
     inkscape:current-layer="svg1" />
  <path
     d="M9.5 2H18.5L13 9H20.5L8.5 22L11 12.5H4L9.5 2Z"
     stroke="#333333"
     stroke-width="2"
     stroke-linejoin="round"
     id="path1" />
  <path
     style="fill:#4776e6;fill-rule:evenodd;stroke:#4776e6;stroke-width:0.021838"
     d="M 8.2176022,22.943769 C 8.0469947,22.887298 7.9192125,22.808727 7.7979686,22.685746 7.6104983,22.495589 7.4864901,22.154508 7.5166321,21.911937 c 0.00654,-0.05266 0.5020542,-1.959855 1.1011355,-4.238216 0.5990812,-2.278362 1.0892388,-4.152884 1.0892388,-4.165606 0,-0.01616 -0.8804128,-0.02313 -2.9239962,-0.02313 -2.8445284,0 -2.9277684,-0.0012 -3.0627845,-0.04289 -0.4273259,-0.132066 -0.7012645,-0.499289 -0.7010809,-0.939819 4.97e-5,-0.119112 0.013527,-0.224101 0.037614,-0.29301 C 3.1043707,12.073057 8.5913839,1.5909082 8.6971006,1.4342047 8.7966645,1.2866214 8.9159904,1.1889704 9.1076997,1.0981888 l 0.151627,-0.071801 4.6733393,-0.0059 c 3.131736,-0.00395 4.708088,0.00149 4.778678,0.016493 0.276928,0.058865 0.552354,0.2772899 0.671968,0.5329004 0.138587,0.2961523 0.136454,0.5816581 -0.0065,0.8641437 -0.04737,0.09363 -0.8041,1.0734659 -2.195903,2.8433076 -1.167997,1.4852451 -2.12363,2.7062642 -2.12363,2.7133758 0,0.00711 1.23576,0.013101 2.746133,0.013309 2.991267,4.132e-4 2.922061,-0.0023 3.153075,0.1234373 0.332475,0.1809558 0.523132,0.4981242 0.522864,0.8698141 -1.42e-4,0.1959315 -0.03791,0.3436056 -0.127019,0.4966218 C 21.258212,9.6555182 9.1738031,22.736405 9.0409003,22.820522 8.863568,22.93276 8.7520685,22.9674 8.5386255,22.976554 c -0.1514127,0.0065 -0.2251359,-0.001 -0.3210693,-0.03279 z m 6.1510998,-8.754522 c 2.120326,-2.297097 3.855138,-4.181446 3.855138,-4.187443 0,-0.006 -1.193511,-0.010903 -2.652246,-0.010903 -1.858751,0 -2.686869,-0.00725 -2.767971,-0.024232 -0.292042,-0.061151 -0.571431,-0.2859225 -0.702781,-0.565395 -0.05659,-0.1203959 -0.06802,-0.1739651 -0.07532,-0.3528317 -0.0097,-0.2378653 0.03434,-0.4145383 0.143799,-0.576882 0.03299,-0.048922 1.010749,-1.2985437 2.172805,-2.7769367 1.162057,-1.478393 2.11283,-2.6938127 2.11283,-2.7009326 0,-0.00712 -1.431011,-0.010456 -3.180024,-0.00741 L 10.094909,2.991811 7.8700471,7.2393088 C 6.6463759,9.5754322 5.6451754,11.494031 5.6451599,11.502861 c -1.53e-5,0.0088 1.2602996,0.01866 2.8007,0.02184 l 2.8007281,0.0058 0.163785,0.07834 c 0.360589,0.172481 0.567789,0.496196 0.567789,0.887073 0,0.152847 -0.06963,0.434413 -0.700898,2.834174 -0.385493,1.465457 -0.723991,2.751094 -0.752217,2.856972 -0.02823,0.105877 -0.04236,0.189408 -0.0314,0.185623 0.01095,-0.0038 1.75473,-1.886324 3.875057,-4.183421 z"
     id="path2" />
</svg>
