<?xml version="1.0" encoding="UTF-8" standalone="no"?>
<svg
   width="24"
   height="24"
   viewBox="0 0 24 24"
   fill="none"
   version="1.1"
   id="svg3"
   sodipodi:docname="new-computer.svg"
   inkscape:version="1.3.2 (091e20e, 2023-11-25, custom)"
   xmlns:inkscape="http://www.inkscape.org/namespaces/inkscape"
   xmlns:sodipodi="http://sodipodi.sourceforge.net/DTD/sodipodi-0.dtd"
   xmlns="http://www.w3.org/2000/svg"
   xmlns:svg="http://www.w3.org/2000/svg">
  <defs
     id="defs3" />
  <sodipodi:namedview
     id="namedview3"
     pagecolor="#ffffff"
     bordercolor="#000000"
     borderopacity="0.25"
     inkscape:showpageshadow="2"
     inkscape:pageopacity="0.0"
     inkscape:pagecheckerboard="0"
     inkscape:deskcolor="#d1d1d1"
     inkscape:zoom="45.791667"
     inkscape:cx="12"
     inkscape:cy="11.989081"
     inkscape:window-width="2560"
     inkscape:window-height="1334"
     inkscape:window-x="2869"
     inkscape:window-y="-11"
     inkscape:window-maximized="1"
     inkscape:current-layer="svg3" />
  <path
     d="M19.5 3H4.5C3.67157 3 3 3.67157 3 4.5V15.5C3 16.3284 3.67157 17 4.5 17H19.5C20.3284 17 21 16.3284 21 15.5V4.5C21 3.67157 20.3284 3 19.5 3Z"
     stroke="#333333"
     stroke-width="2"
     stroke-linejoin="round"
     id="path1" />
  <path
     d="M7 21H17"
     stroke="#333333"
     stroke-width="2"
     stroke-linecap="round"
     stroke-linejoin="round"
     id="path2" />
  <path
     d="M12 17V21"
     stroke="#333333"
     stroke-width="2"
     stroke-linecap="round"
     stroke-linejoin="round"
     id="path3" />
  <path
     style="fill:#4776e6;fill-rule:evenodd;stroke:#4776e6;stroke-width:0.021838"
     d="m 9.3466788,21.979982 -2.5987261,-0.01092 -0.147593,-0.06991 C 6.434279,21.820479 6.2363987,21.645655 6.1536928,21.504529 5.8742551,21.027704 6.0366779,20.422324 6.5200313,20.139116 6.7367085,20.01216 6.6899611,20.014559 8.9472633,20.014559 H 11.017288 V 18.99909 17.983621 H 7.6461727 c -3.6701959,0 -3.5438399,0.0039 -3.92137,-0.122462 C 3.331787,17.729566 3.0346624,17.54138 2.7297543,17.230938 2.4073494,16.902682 2.2144594,16.564444 2.0796271,16.090923 l -0.04869,-0.170996 -0.00575,-5.841674 C 2.018855,3.6395134 2.0096598,4.0969914 2.1536997,3.6846249 2.2872596,3.3022614 2.4858396,2.9963632 2.7892399,2.7056209 3.0668201,2.4396217 3.3229678,2.2818463 3.6837763,2.1546272 4.0958918,2.0093175 3.4347969,2.0200182 12,2.0200182 c 8.561729,0 7.902216,-0.010625 8.316224,0.1339811 0.381476,0.1332438 0.687633,0.3320705 0.978155,0.6352406 0.35986,0.3755276 0.592864,0.8461025 0.662836,1.3386652 0.01807,0.1271905 0.023,1.7414762 0.0183,5.9831049 l -0.0064,5.808917 -0.04869,0.170996 c -0.134832,0.473521 -0.327722,0.811759 -0.650127,1.140015 -0.304908,0.310442 -0.602033,0.498628 -0.995049,0.630221 -0.37753,0.126409 -0.251174,0.122462 -3.92137,0.122462 h -3.371115 v 1.015469 1.015469 h 2.070025 c 2.257302,0 2.210555,-0.0024 2.427232,0.124557 0.483353,0.283208 0.645776,0.888588 0.366338,1.365413 -0.08271,0.141126 -0.280586,0.31595 -0.446667,0.39462 l -0.147593,0.06991 -1.310282,0.0055 c -0.720655,0.003 -1.914649,0.0079 -2.653321,0.01092 -0.738671,0.003 -2.512466,5.29e-4 -3.9417652,-0.0055 z M 19.721235,15.959725 c 0.139135,-0.07447 0.241517,-0.202307 0.270586,-0.33785 0.01859,-0.08668 0.02335,-1.555485 0.01844,-5.6855693 l -0.0066,-5.5686988 -0.05203,-0.105693 C 19.893651,4.1441395 19.768594,4.0410076 19.64264,4.0070916 19.58883,3.9926016 16.987437,3.9870836 11.951844,3.9907776 l -7.6094769,0.00558 -0.1068996,0.066091 C 4.1691857,4.1034156 4.1034156,4.1691854 4.0624517,4.2354418 l -0.066091,0.1068987 -0.00563,5.6024677 c -0.00635,6.3258538 -0.022798,5.7544828 0.1706363,5.9283968 0.07126,0.06407 0.1428129,0.106527 0.2019723,0.119846 0.056683,0.01276 2.985212,0.01941 7.6803337,0.01743 l 7.588716,-0.0032 z"
     id="path4" />
</svg>
