<?xml version="1.0" encoding="UTF-8" standalone="no"?>
<svg
   width="24"
   height="24"
   viewBox="0 0 24 24"
   fill="none"
   version="1.1"
   id="svg2"
   xmlns="http://www.w3.org/2000/svg"
   xmlns:svg="http://www.w3.org/2000/svg">
  <defs
     id="defs2" />
  <path
     d="M21.0846 14.6226L14.6315 21.0756C14.2939 21.4136 13.8358 21.6035 13.3581 21.6035C12.8803 21.6035 12.4222 21.4136 12.0845 21.0756L4 13V4H13L21.0846 12.0845C21.7825 12.7866 21.7825 13.9205 21.0846 14.6226Z"
     stroke="#333333"
     stroke-width="2"
     stroke-linejoin="round"
     id="path1" />
  <path
     fill-rule="evenodd"
     clip-rule="evenodd"
     d="M9.25 10.5C9.94035 10.5 10.5 9.94035 10.5 9.25C10.5 8.55965 9.94035 8 9.25 8C8.55965 8 8 8.55965 8 9.25C8 9.94035 8.55965 10.5 9.25 10.5Z"
     fill="#333333"
     id="path2" />
  <path
     style="fill:#4776e6;fill-rule:evenodd;stroke:#4776e6;stroke-width:0.021838"
     d="M 12.949955,22.560768 C 12.436368,22.474453 12.036735,22.300135 11.639672,21.98923 11.543585,21.913992 9.6011627,19.986956 7.3231783,17.706927 3.8912384,14.271906 3.1714041,13.541325 3.1231322,13.444173 2.9978215,13.191972 3.0035065,13.425682 3.0032739,8.5168335 c -1.406e-4,-2.966571 0.00744,-4.5692672 0.022061,-4.6624204 0.06289,-0.4007583 0.3808176,-0.7351148 0.7792786,-0.8195488 0.2218934,-0.047019 9.1586545,-0.047065 9.3805325,-4.84e-5 0.333887,0.070752 0.03398,-0.2128189 4.572449,4.3233932 2.909209,2.9077629 4.191358,4.2035589 4.282284,4.3278639 0.16291,0.222714 0.336205,0.558129 0.418545,0.810097 0.158359,0.484598 0.17563,1.045845 0.04756,1.545686 -0.08134,0.31749 -0.265617,0.705639 -0.45617,0.960874 -0.08475,0.113518 -1.326322,1.368808 -3.545084,3.584252 -2.664941,2.660958 -3.450612,3.433439 -3.578437,3.518362 -0.305893,0.203225 -0.626375,0.341278 -0.982712,0.423318 -0.243708,0.05611 -0.752911,0.07256 -0.99363,0.03211 z m 0.764331,-2.028659 c 0.118931,-0.05507 0.436792,-0.366543 3.442966,-3.373735 2.623825,-2.624714 3.323163,-3.335746 3.365963,-3.42225 0.118707,-0.239916 0.125503,-0.47582 0.02076,-0.720655 -0.05243,-0.12255 -0.311241,-0.386458 -3.999541,-4.0782533 L 12.600948,4.9899909 H 8.7954693 4.9899909 v 3.8083388 3.8083383 l 3.9428143,3.926464 c 2.1685478,2.159555 3.9644528,3.941657 3.9909008,3.960226 0.182351,0.128031 0.558014,0.146444 0.79058,0.03875 z"
     id="path3" />
  <path
     style="fill:#4776e6;fill-rule:evenodd;stroke:#4776e6;stroke-width:0.021838"
     d="M 8.9972702,10.461998 C 8.4197695,10.327105 8.0186809,9.8296978 8.0186809,9.2484076 c 0,-0.3379262 0.1183738,-0.618689 0.3647057,-0.865021 0.2462959,-0.2462959 0.5288723,-0.3657877 0.865021,-0.3657877 0.5348371,0 1.0133704,0.3497128 1.1813444,0.8633276 0.07074,0.2163171 0.07223,0.508944 0.0037,0.7287155 -0.117228,0.3759227 -0.4433574,0.705001 -0.8122176,0.819564 -0.1871159,0.05811 -0.455223,0.07221 -0.6239592,0.03279 z"
     id="path4" />
</svg>
