<?xml version="1.0" encoding="UTF-8" standalone="no"?>
<svg
   width="24"
   height="24"
   viewBox="0 0 24 24"
   fill="none"
   version="1.1"
   id="svg4"
   xmlns="http://www.w3.org/2000/svg"
   xmlns:svg="http://www.w3.org/2000/svg">
  <defs
     id="defs4" />
  <path
     d="M12 20.5C16.695 20.5 20.5 16.695 20.5 12C20.5 7.305 16.695 3.5 12 3.5C7.305 3.5 3.5 7.305 3.5 12C3.5 16.695 7.305 20.5 12 20.5Z"
     stroke="#333333"
     stroke-width="2"
     stroke-miterlimit="2"
     stroke-linejoin="round"
     id="path1" />
  <path
     d="M12 16C14.21 16 16 14.21 16 12C16 9.79 14.21 8 12 8C9.79 8 8 9.79 8 12C8 14.21 9.79 16 12 16Z"
     stroke="#333333"
     stroke-width="2"
     stroke-miterlimit="2"
     stroke-linejoin="round"
     id="path2" />
  <path
     d="M2 12H22"
     stroke="#333333"
     stroke-width="2"
     stroke-miterlimit="2"
     stroke-linecap="round"
     stroke-linejoin="round"
     id="path3" />
  <path
     d="M12 2V22"
     stroke="#333333"
     stroke-width="2"
     stroke-miterlimit="2"
     stroke-linecap="round"
     stroke-linejoin="round"
     id="path4" />
  <path
     style="fill:#4776e6;fill-rule:evenodd;stroke:#4776e6;stroke-width:0.021838"
     d="m 11.710907,22.94336 c -0.167021,-0.05504 -0.322541,-0.15761 -0.444295,-0.293029 -0.203948,-0.226839 -0.249324,-0.382885 -0.249324,-0.85742 V 21.439064 L 10.89172,21.424437 C 7.3767405,21.014997 4.3533205,18.6398 3.1066137,15.308462 2.8626926,14.656678 2.6713218,13.87901 2.5871005,13.197332 l -0.026096,-0.21122 -0.3960617,-0.008 c -0.3516354,-0.0071 -0.4103762,-0.01368 -0.523676,-0.05863 -0.2361199,-0.09367 -0.4675034,-0.327045 -0.5652059,-0.570069 -0.069252,-0.172258 -0.069252,-0.52656 0,-0.698818 0.097703,-0.243024 0.329086,-0.476399 0.5652059,-0.570069 0.1132711,-0.04494 0.1720611,-0.05152 0.5230676,-0.05862 l 0.3954532,-0.008 0.036487,-0.276743 C 2.9255998,8.2392893 4.2737425,5.9425629 6.311192,4.4083431 7.6067751,3.432756 9.2057158,2.7844037 10.802668,2.5871005 l 0.21122,-0.026096 0.008,-0.3960617 c 0.0071,-0.3516354 0.01368,-0.4103762 0.05863,-0.523676 0.09367,-0.2361199 0.327045,-0.4675034 0.570069,-0.5652059 0.09734,-0.039132 0.163583,-0.048287 0.349409,-0.048287 0.185826,0 0.252071,0.00915 0.349409,0.048287 0.243024,0.097703 0.476399,0.329086 0.570069,0.5652059 0.04495,0.1132998 0.05152,0.1720406 0.05863,0.523676 l 0.008,0.3960617 0.21122,0.026096 c 2.730218,0.3373181 5.208994,1.8897732 6.738785,4.220494 0.779062,1.1869442 1.284408,2.5400246 1.467609,3.9295675 l 0.03649,0.276743 0.395453,0.008 c 0.351006,0.0071 0.409796,0.01369 0.523067,0.05862 0.236121,0.09367 0.467503,0.327045 0.565207,0.570069 0.03913,0.09734 0.04829,0.163583 0.04829,0.349409 0,0.185826 -0.0092,0.252071 -0.04829,0.349409 -0.0977,0.243024 -0.329086,0.476399 -0.565207,0.570069 -0.113271,0.04494 -0.172061,0.05152 -0.523067,0.05862 l -0.395453,0.008 -0.03649,0.276743 c -0.25266,1.916376 -1.109941,3.73037 -2.454309,5.193281 -0.802588,0.873359 -1.900826,1.669917 -2.983338,2.163833 -0.842003,0.384178 -1.817393,0.666982 -2.703241,0.783774 l -0.276743,0.03649 -0.008,0.395453 c -0.0071,0.351006 -0.01369,0.409796 -0.05862,0.523067 -0.09407,0.237136 -0.329503,0.469955 -0.570069,0.563748 -0.170773,0.06658 -0.47011,0.07637 -0.638502,0.02088 z m -0.693619,-4.773699 v -1.277109 l -0.06005,-0.01423 C 10.488981,16.767408 10.197585,16.666362 9.8261344,16.486099 8.4554369,15.820907 7.4468694,14.537322 7.12056,13.042766 L 7.107448,12.982716 H 5.8290012 4.550554 l 0.014633,0.10373 c 0.1881862,1.334055 0.7918541,2.680141 1.67714,3.739764 0.9925304,1.187986 2.3737499,2.059004 3.882546,2.448392 0.239864,0.0619 0.756549,0.164791 0.854199,0.170096 0.03599,0.002 0.03822,-0.07251 0.03822,-1.275033 z m 2.257811,1.232325 c 3.102813,-0.525383 5.572963,-2.98028 6.118012,-6.080233 0.02951,-0.16785 0.05366,-0.3128 0.05366,-0.322111 0,-0.0093 -0.574699,-0.01693 -1.277109,-0.01693 h -1.277109 l -0.01311,0.06005 c -0.27973,1.281214 -1.064123,2.418913 -2.161775,3.135482 -0.498927,0.325708 -1.09165,0.57385 -1.674899,0.701192 l -0.06005,0.01311 v 1.277109 c 0,0.70241 0.0063,1.277109 0.01395,1.277109 0.0077,0 0.13297,-0.02015 0.278435,-0.04478 z m -2.257811,-5.491158 v -0.928116 h -0.928116 c -0.5318202,0 -0.9281165,0.0083 -0.9281165,0.01955 0,0.04017 0.1392345,0.346148 0.224628,0.493642 0.26862,0.46397 0.6331735,0.82986 1.1050275,1.109081 0.166047,0.09826 0.447678,0.229324 0.49928,0.232355 0.02144,0.0013 0.0273,-0.197723 0.0273,-0.926513 z m 2.165139,0.860054 c 0.591763,-0.25077 1.101895,-0.704999 1.43189,-1.274977 0.08539,-0.147494 0.224627,-0.453476 0.224627,-0.493642 0,-0.0112 -0.396296,-0.01955 -0.928116,-0.01955 h -0.928116 v 0.928116 c 0,0.53182 0.0083,0.928116 0.01955,0.928116 0.01075,0 0.09183,-0.03063 0.180164,-0.06806 z M 7.12056,10.957234 C 7.2797877,10.227942 7.6315322,9.4824718 8.0865705,8.9099181 8.2490378,8.7054929 8.6083932,8.3383097 8.8170545,8.163522 9.4088576,7.667791 10.175031,7.2944962 10.957234,7.1207849 l 0.06005,-0.013337 V 5.8290012 4.550554 l -0.10373,0.014082 C 10.430494,4.6302161 9.7481601,4.8117165 9.2615723,5.0040635 7.3034669,5.7780981 5.7802825,7.3013479 5.0042466,9.2615723 4.8119351,9.7473401 4.6302942,10.429918 4.5646362,10.913558 l -0.014082,0.10373 h 1.2784472 1.278447 z m 3.896728,-0.868062 c 0,-0.5440248 -0.0082,-0.9281165 -0.0199,-0.9281165 -0.04607,0 -0.37934,0.1561083 -0.53906,0.2525012 -0.442929,0.2673139 -0.776471,0.5992253 -1.0424873,1.0373903 -0.092282,0.152 -0.2547822,0.50052 -0.2547822,0.546438 0,0.01167 0.3840917,0.0199 0.9281165,0.0199 h 0.928116 z m 3.821656,0.908565 c 0,-0.04017 -0.139234,-0.346148 -0.224627,-0.493642 -0.266431,-0.460187 -0.629983,-0.8273315 -1.097838,-1.1086824 -0.127758,-0.076829 -0.473163,-0.2343571 -0.513864,-0.2343571 -0.01167,0 -0.0199,0.3840917 -0.0199,0.9281165 v 0.928116 h 0.928116 c 0.53182,0 0.928116,-0.0083 0.928116,-0.01955 z m 4.607826,0.0026 c 0,-0.0093 -0.02415,-0.154261 -0.05366,-0.322111 C 18.860159,7.6470944 16.480017,5.2203457 13.463148,4.6321668 13.313012,4.6028958 13.143494,4.5725584 13.086442,4.5647504 l -0.10373,-0.014196 v 1.2784472 1.278447 l 0.06005,0.013112 c 0.204986,0.044755 0.569926,0.1550769 0.764027,0.2309667 1.5523,0.6069192 2.71609,1.9726098 3.072647,3.6057077 l 0.01311,0.06005 h 1.277109 c 0.70241,0 1.277109,-0.0076 1.277109,-0.01693 z"
     id="path5" />
</svg>
