<?xml version="1.0" encoding="UTF-8" standalone="no"?>
<svg
   width="24"
   height="24"
   viewBox="0 0 24 24"
   fill="none"
   version="1.1"
   id="svg4"
   xmlns="http://www.w3.org/2000/svg"
   xmlns:svg="http://www.w3.org/2000/svg">
  <defs
     id="defs4" />
  <path
     d="M12 22C17.5229 22 22 17.5229 22 12C22 6.47715 17.5229 2 12 2C6.47715 2 2 6.47715 2 12C2 17.5229 6.47715 22 12 22Z"
     stroke="#333333"
     stroke-width="2"
     id="path1"
     style="fill-rule:evenodd" />
  <path
     d="M2 10.4202C3.50742 9.7084 4.62233 9.60925 5.3447 10.1227C6.4283 10.893 6.56415 14.032 9.02875 12.5318C11.4934 11.0315 7.97335 10.4202 8.7375 8.24695C9.50165 6.0737 12.0041 7.76185 12.2529 5.38135C12.4187 3.79431 10.5204 3.18707 6.5578 3.55961"
     stroke="#333333"
     stroke-width="2"
     id="path2"
     style="fill-rule:evenodd" />
  <path
     d="M18 4C15.1428 6.4943 14.1449 8.00055 15.0063 8.51865C16.2984 9.29585 16.8466 8.20165 18.4233 8.51865C20 8.8357 19.6586 10.9728 18.8293 10.9728C18 10.9728 13.705 10.4259 13.9213 12.9325C14.1376 15.439 16.7211 15.8102 16.7211 17.2106C16.7211 18.1442 16.1495 19.573 15.0063 21.4971"
     stroke="#333333"
     stroke-width="2"
     stroke-linecap="round"
     id="path3"
     style="fill-rule:evenodd" />
  <path
     d="M3.05225 16.4632C3.50799 16.2644 3.85058 16.1187 4.08 16.026C6.00355 15.2489 7.43085 15.0657 8.3618 15.4765C10.0081 16.203 9.37515 17.6701 9.8908 18.2106C10.4064 18.7511 11.694 18.5938 11.694 19.622C11.694 20.3075 11.4638 21.0819 11.0033 21.9451"
     stroke="#333333"
     stroke-width="2"
     stroke-linecap="round"
     id="path4"
     style="fill-rule:evenodd" />
  <path
     style="fill:#4776e6;fill-opacity:1;fill-rule:evenodd;stroke:#4776e6;stroke-width:0.021838"
     d="M 11.181074,22.95949 C 9.757212,22.847238 8.4323137,22.484854 7.1628753,21.86044 4.502174,20.551689 2.4879217,18.239288 1.5602977,15.428571 1.1703665,14.247074 0.99511398,13.057086 1.0219155,11.772885 1.0350688,11.142644 1.0692222,10.754394 1.1594618,10.209281 1.9273641,5.57059 5.57059,1.9273641 10.209281,1.1594618 c 0.555801,-0.092009 0.937808,-0.1248603 1.594177,-0.1370941 1.799659,-0.0335433 3.426646,0.3274617 5.033667,1.1168986 2.659316,1.3063692 4.674354,3.6197794 5.602572,6.4321623 0.579356,1.7553734 0.701439,3.6943844 0.347467,5.5187244 -0.317056,1.634077 -0.994487,3.158461 -1.997125,4.494014 -0.347963,0.463502 -0.618871,0.774275 -1.047157,1.201252 -0.870878,0.868215 -1.805197,1.535444 -2.905757,2.075097 -1.301071,0.637973 -2.597817,0.98879 -4.071699,1.101546 -0.342521,0.0262 -1.23778,0.02475 -1.584352,-0.0026 z m 1.616014,-1.984128 c 0.4835,-0.04402 1.384742,-0.202831 1.500163,-0.264346 0.07551,-0.04024 0.640545,-1.098638 0.912127,-1.708543 0.280562,-0.630069 0.451143,-1.161528 0.50504,-1.573485 0.01456,-0.11128 0.02023,-0.227189 0.0126,-0.257577 -0.02304,-0.0918 -0.284965,-0.353996 -0.757049,-0.757826 -0.882454,-0.754867 -1.290705,-1.232584 -1.616278,-1.891292 -0.308351,-0.623862 -0.473594,-1.418277 -0.415625,-1.998129 0.06419,-0.642105 0.296977,-1.132246 0.737722,-1.553314 0.598974,-0.572233 1.436692,-0.879703 2.735491,-1.0040145 0.313008,-0.029959 1.399395,-0.03636 1.831615,-0.010793 l 0.292033,0.017275 -0.0092,-0.1438397 c -0.01577,-0.2483611 -0.109438,-0.3222766 -0.46348,-0.3657725 -0.286436,-0.03519 -0.533388,-0.00406 -1.000243,0.1260961 -0.69832,0.1946837 -1.051602,0.2363677 -1.47424,0.1739465 C 15.049953,9.684316 14.477018,9.4149762 14.164612,9.094717 13.728838,8.6479864 13.612076,8.0172928 13.839309,7.3375796 c 0.245234,-0.733559 0.90432,-1.6058229 2.098903,-2.777782 L 16.387839,4.1186854 16.088369,3.9669353 C 15.150616,3.4917491 14.152026,3.1869775 13.108491,3.0574708 c -0.320581,-0.039785 -1.223802,-0.087283 -1.276348,-0.06712 -0.02762,0.010599 0.0089,0.040733 0.141676,0.1170566 0.69931,0.4018377 1.115576,0.9619245 1.235667,1.6625915 0.09497,0.5540653 -0.0091,1.2511545 -0.261797,1.7532728 C 12.827562,6.7619904 12.70935,6.926362 12.525773,7.1099399 12.159771,7.4759415 11.737067,7.6785521 11.028207,7.827754 10.141853,8.0143152 10.026015,8.0541637 9.8671844,8.2271496 9.7559945,8.3482487 9.7253298,8.4059664 9.6628254,8.6117962 c -0.066938,0.2204305 -0.05379,0.3991582 0.043619,0.5929354 0.089034,0.177116 0.1868665,0.3171406 0.5111386,0.7315741 0.377698,0.4827143 0.541838,0.7720293 0.63806,1.1246593 0.05336,0.195556 0.05463,0.614404 0.0024,0.808007 -0.05328,0.197652 -0.193536,0.482882 -0.323983,0.658846 -0.265446,0.358067 -0.8257313,0.785373 -1.3839684,1.055494 -0.5108895,0.247211 -0.8138322,0.323595 -1.2884441,0.324867 -0.2907332,7.79e-4 -0.3521287,-0.0058 -0.5459508,-0.05883 C 6.918813,13.740817 6.6007781,13.553679 6.2819522,13.241046 5.9534284,12.918903 5.7229225,12.573529 5.3079193,11.78162 5.0386061,11.267717 4.8576553,10.985627 4.751373,10.914003 4.4955566,10.741609 3.9306923,10.760664 3.2908486,10.963273 c -0.1655269,0.05241 -0.2454113,0.08848 -0.2534361,0.114413 -0.00645,0.02083 -0.022291,0.236983 -0.035213,0.480338 -0.058089,1.093983 0.099769,2.25104 0.4511946,3.307125 0.055156,0.165751 0.1031078,0.301366 0.10656,0.301366 0.00345,0 0.1472777,-0.05504 0.3196125,-0.122312 1.5111068,-0.589866 2.7986094,-0.847016 3.7559721,-0.75017 0.4785558,0.04841 0.8366271,0.145942 1.2333008,0.335928 0.7827099,0.374878 1.3126995,0.967213 1.5547525,1.737646 0.07675,0.244275 0.118652,0.445909 0.179164,0.862057 0.02441,0.167852 0.05199,0.312799 0.0613,0.322103 0.0093,0.0093 0.173663,0.07502 0.365241,0.146025 0.444255,0.164666 0.607311,0.2387 0.799396,0.362959 0.386573,0.250072 0.661377,0.614104 0.783408,1.037778 0.101351,0.351876 0.07802,0.987412 -0.05727,1.560252 -0.0312,0.13212 -0.06185,0.262329 -0.06811,0.289354 -0.01346,0.05816 -0.02159,0.05745 0.310373,0.02723 z m -2.329834,-0.22377 c 0.129051,-0.346257 0.212533,-0.697126 0.226809,-0.953256 l 0.0066,-0.117951 -0.349409,-0.127946 C 9.764771,19.337691 9.5149103,19.202156 9.2518631,18.956096 8.8999667,18.626925 8.7509328,18.264181 8.6376,17.461001 8.570343,16.984356 8.5131872,16.816462 8.3629304,16.654167 8.2278292,16.508241 7.9951143,16.374604 7.7634213,16.309898 c -0.2017035,-0.05633 -0.8745934,-0.05651 -1.2097976,-3.15e-4 -0.3385488,0.05675 -0.7944798,0.172124 -1.1900502,0.301138 -0.3711557,0.121051 -0.8547881,0.298412 -0.8820096,0.323457 -0.00939,0.0086 0.05488,0.118483 0.1428212,0.244099 1.1602962,1.657385 2.8991971,2.906297 4.8314839,3.470066 0.2671534,0.07794 0.847257,0.214287 0.921088,0.216484 0.03786,0.0011 0.05629,-0.02198 0.0903,-0.113235 z M 17.51828,19.12702 c 1.833586,-1.427128 3.050396,-3.499831 3.389158,-5.773062 0.07342,-0.492699 0.09585,-0.816153 0.0954,-1.375796 C 21.000854,9.5368695 20.061301,7.3029812 18.303091,5.5592329 18.072722,5.330759 18.047043,5.311504 18.000812,5.3325685 c -0.06724,0.030635 -1.05342,0.9968705 -1.35545,1.328032 -0.403611,0.4425408 -0.845544,1.0275628 -0.845544,1.1193148 0,0.062289 0.322145,0.022655 0.720655,-0.088663 0.660077,-0.1843831 0.755794,-0.19899 1.310282,-0.199953 0.538399,-9.351e-4 0.701825,0.02057 1.080191,0.1421424 0.711658,0.2286622 1.23709,0.746618 1.472737,1.4517806 0.27969,0.8369599 0.10153,1.7887217 -0.442499,2.3638987 -0.194242,0.205363 -0.424531,0.35821 -0.655349,0.434968 -0.164259,0.05462 -0.205355,0.05913 -0.548801,0.06018 -0.204186,6.24e-4 -0.670974,-0.0076 -1.037307,-0.01817 -0.725301,-0.02102 -1.147101,-0.0017 -1.608106,0.0735 -0.670947,0.109512 -1.097704,0.318909 -1.166781,0.572505 -0.07688,0.282236 0.06411,0.883348 0.295035,1.257895 0.214083,0.347234 0.422212,0.562628 1.125894,1.165202 0.246224,0.210845 0.523583,0.46302 0.616353,0.560389 0.385419,0.404522 0.611847,0.806658 0.705869,1.253626 0.0372,0.176849 0.04158,0.604329 0.0089,0.86924 -0.04709,0.381819 -0.196589,0.951591 -0.371893,1.417352 -0.04715,0.125264 -0.08572,0.231251 -0.08572,0.235527 0,0.01888 0.100168,-0.04957 0.29899,-0.204321 z M 8.1575081,11.872421 c 0.1546718,-0.05993 0.5310765,-0.282859 0.6382373,-0.377999 l 0.08237,-0.07313 -0.2989242,-0.382166 C 8.2350117,10.599104 8.0920721,10.387035 7.9536183,10.11101 7.7369259,9.679007 7.6461543,9.3120159 7.6457379,8.866242 7.6454247,8.5311271 7.6752314,8.3404566 7.778878,8.0145587 8.0499815,7.1621232 8.5735294,6.5704743 9.3547953,6.2336521 9.6153362,6.1213267 9.8548656,6.0537115 10.359383,5.9500739 11.035067,5.8112751 11.122279,5.7763835 11.191278,5.617252 11.246416,5.4900893 11.286414,5.2277518 11.267746,5.1157184 11.218869,4.8223873 10.614252,4.5918947 9.6087352,4.483269 9.2662677,4.4462723 7.8782885,4.4466846 7.3703367,4.483934 L 6.9881711,4.5119592 6.8360126,4.6144872 C 6.2821295,4.9877075 5.5643172,5.6447417 5.0896922,6.2129451 4.5142408,6.9018538 4.0385082,7.6810932 3.6954097,8.496748 3.5220616,8.9088522 3.5241473,8.8749373 3.6738049,8.8480446 c 0.069307,-0.012454 0.3176419,-0.022735 0.5518548,-0.022847 0.357881,-1.708e-4 0.4615078,0.0075 0.6493249,0.048059 0.6722164,0.1451681 1.1971827,0.4727302 1.5837109,0.9881842 0.1788624,0.2385222 0.3146212,0.4662912 0.5875765,0.9858072 0.3105657,0.591101 0.4510777,0.818586 0.5995585,0.970669 l 0.1187056,0.121586 0.1359304,-0.01008 c 0.074762,-0.0055 0.1904303,-0.0312 0.2570416,-0.05701 z"
     id="path5" />
</svg>
