<svg width="24" height="24" viewBox="0 0 24 24" fill="none" xmlns="http://www.w3.org/2000/svg">
<path fill-rule="evenodd" clip-rule="evenodd" d="M12 20.998C18.6666 21.0494 22 20.5037 22 19.3608C22 17.6464 14.2071 9.00135 12 9.00135C9.7929 9.00135 2 17.8256 2 19.3608C2 20.3843 5.33335 20.93 12 20.998Z" stroke="#333333" stroke-width="2" stroke-linejoin="round"/>
<path d="M10.5301 14.8307L8.72021 17.0002" stroke="#333333" stroke-width="2" stroke-linecap="round"/>
<path d="M12.25 5.5001C12.9404 5.5001 13.5 4.94048 13.5 4.25012C13.5 3.55977 12.9404 3.00012 12.25 3.00012C11.5597 3.00012 11 3.55977 11 4.25012C11 4.94048 11.5597 5.5001 12.25 5.5001Z" fill="#333333"/>
<path d="M17 8.0001C17.5523 8.0001 18 7.5524 18 7.0001C18 6.44785 17.5523 6.0001 17 6.0001C16.4477 6.0001 16 6.44785 16 7.0001C16 7.5524 16.4477 8.0001 17 8.0001Z" fill="#333333"/>
<path d="M6 10.5001C6.5523 10.5001 7 10.0524 7 9.5001C7 8.94785 6.5523 8.5001 6 8.5001C5.4477 8.5001 5 8.94785 5 9.5001C5 10.0524 5.4477 10.5001 6 10.5001Z" fill="#333333"/>
<path d="M8.75 7.5001C9.1642 7.5001 9.5 7.16435 9.5 6.7501C9.5 6.3359 9.1642 6.0001 8.75 6.0001C8.3358 6.0001 8 6.3359 8 6.7501C8 7.16435 8.3358 7.5001 8.75 7.5001Z" fill="#333333"/>
</svg>
