<svg width="24" height="24" viewBox="0 0 24 24" fill="none" xmlns="http://www.w3.org/2000/svg">
<path fill-rule="evenodd" clip-rule="evenodd" d="M12 20.5101C13.2155 20.5101 13.7155 21.1651 14.3671 21.3107C15.0186 21.4564 15.5656 21.4968 16.1257 21.25C17.235 20.7612 17.9112 20.1789 18.7317 19.3093C20.2523 17.6977 21 15.4818 21 12.5143C21 9.54681 20.1998 8.01326 18.9667 7.01011C17.7336 6.007 17.0185 5.81481 15.5274 6.00701C14.0363 6.19916 13.2245 7.80126 12.0042 7.80126C10.7839 7.80126 9.29665 6.22156 8.00275 6.00701C6.70885 5.79241 6 6.007 4.87984 7.01011C3.75967 8.01326 3 9.57531 3 12.5143C3 15.4533 3.77577 17.6325 5.29635 19.2441C6.11685 20.1138 6.765 20.7612 7.87425 21.25C8.4344 21.4968 9.01335 21.4564 9.6422 21.3107C10.2711 21.1651 10.7711 20.5101 12 20.5101Z" stroke="#333333" stroke-width="2"/>
<path d="M12.0044 7.80125C12.3968 3.93375 14.0639 2 17.0057 2C17.2754 2.81393 17.3451 3.60168 17.2147 4.36325C17.1528 4.72504 16.9606 5.24095 16.6382 5.91095" stroke="#333333" stroke-width="2" stroke-linecap="round"/>
<path d="M7.11447 13C6.97617 13.6729 6.97617 14.3657 7.11447 15.0783C7.25272 15.791 7.54722 16.3409 7.99787 16.7281" stroke="#333333" stroke-width="2" stroke-linecap="round"/>
</svg>
