<svg width="24" height="24" viewBox="0 0 24 24" fill="none" xmlns="http://www.w3.org/2000/svg">
<g clip-path="url(#clip0_1_15759)">
<mask id="mask0_1_15759" style="mask-type:luminance" maskUnits="userSpaceOnUse" x="0" y="0" width="24" height="24">
<path d="M24 0H0V24H24V0Z" fill="white"/>
</mask>
<g mask="url(#mask0_1_15759)">
<path d="M20.4252 21.9603L19.6381 21.8028C18.4633 21.5679 17.928 19.9994 18.3013 18.861C19.2785 15.8815 18.5623 12.0558 18.1663 10.4047C18.0434 9.89226 17.6376 9.50771 17.1264 9.37991L15.9951 9.09705C15.4576 8.9627 15.038 8.5431 14.9037 8.00565L14.6208 6.87431C14.493 6.36311 14.1085 5.95731 13.5961 5.83441C11.9449 5.43846 8.11923 4.72221 5.13973 5.69941C4.00137 6.07276 2.43286 5.53746 2.19791 4.36267L2.04047 3.57549" stroke="#333333" stroke-width="2" stroke-linecap="round" stroke-linejoin="round"/>
<path d="M3 5.5L19 21.5" stroke="#333333" stroke-width="2" stroke-linecap="round" stroke-linejoin="round"/>
<path d="M6 18L21.5 2.5" stroke="#333333" stroke-width="2" stroke-linecap="round" stroke-linejoin="round"/>
</g>
</g>
<defs>
<clipPath id="clip0_1_15759">
<rect width="24" height="24" fill="white"/>
</clipPath>
</defs>
</svg>
