<svg width="24" height="24" viewBox="0 0 24 24" fill="none" xmlns="http://www.w3.org/2000/svg">
<path d="M7.50007 10.306C6.78822 13.3808 10.7465 14.1635 9.81192 16.3298C8.87732 18.4961 6.78442 18.0629 7.01807 20.2292C7.25177 22.3955 10.021 22.4259 12.5419 21.1207C17.5838 18.5102 18.6354 12.8083 16.3538 10.3061C13.5501 7.2313 8.21187 7.2313 7.50007 10.306Z" stroke="#333333" stroke-width="2"/>
<path d="M16.3035 7.91677C16.7266 8.27177 17.5012 8.0451 18.0337 7.41049C18.5662 6.77588 18.6549 5.97363 18.2319 5.61863C17.8088 5.26363 17.0341 5.4903 16.5016 6.12491C15.9691 6.75952 15.8804 7.56176 16.3035 7.91677Z" fill="#333333"/>
<path d="M14.0564 6.66106C14.557 6.89446 15.2465 6.47502 15.5967 5.72421C15.9468 4.9734 15.8248 4.17554 15.3243 3.94213C14.8237 3.70873 14.1341 4.12817 13.784 4.87898C13.4339 5.62979 13.5559 6.42765 14.0564 6.66106Z" fill="#333333"/>
<path d="M11.5335 6.29317C12.0827 6.3509 12.5982 5.72981 12.6848 4.90592C12.7714 4.08203 12.3963 3.36734 11.8471 3.30961C11.2978 3.25188 10.7823 3.87297 10.6957 4.69686C10.6092 5.52075 10.9842 6.23544 11.5335 6.29317Z" fill="#333333"/>
<path d="M7.68387 5.87953C8.46234 5.59619 8.78715 4.52507 8.40937 3.48711C8.03158 2.44916 7.09426 1.83742 6.31579 2.12076C5.53732 2.4041 5.21251 3.47522 5.59029 4.51317C5.96808 5.55113 6.9054 6.16287 7.68387 5.87953Z" stroke="#333333" stroke-width="2"/>
<path d="M18.1186 9.73198C18.4736 10.1551 19.2758 10.0663 19.9104 9.53385C20.545 9.00134 20.7717 8.22669 20.4167 7.80362C20.0617 7.38054 19.2595 7.46925 18.6249 8.00176C17.9902 8.53426 17.7636 9.30891 18.1186 9.73198Z" fill="#333333"/>
</svg>
