<svg width="24" height="24" viewBox="0 0 24 24" fill="none" xmlns="http://www.w3.org/2000/svg">
<g clip-path="url(#clip0_1_16918)">
<mask id="mask0_1_16918" style="mask-type:luminance" maskUnits="userSpaceOnUse" x="0" y="0" width="24" height="24">
<path d="M24 0H0V24H24V0Z" fill="white"/>
</mask>
<g mask="url(#mask0_1_16918)">
<path d="M7.99965 16C6.5999 15.5334 4.98241 14.4137 4.26188 13.2872C4.16318 13.1329 4.1276 12.9488 4.13955 12.766L4.26213 10.891C4.2886 10.4861 4.76702 10.2706 5.0976 10.5057C6.16445 11.2646 8.11395 12.5 9.49965 12.5C12.9996 12.5 15.9996 11.25 17.4996 8.5" stroke="#333333" stroke-width="2" stroke-linecap="round" stroke-linejoin="round"/>
<path d="M12.9997 21.5C17.9996 20.5 22.6211 15.2574 21.4335 9.97065L20.9996 8V3.99999L17.9996 3.49998C17.9996 9.97065 16.4997 15 9.9997 16C7.01155 16.4597 4.14706 15.8068 1.93509 14.5391L2.49969 18C3.49966 20.5 7.99975 22.5 12.9997 21.5Z" stroke="#333333" stroke-width="2" stroke-linecap="round" stroke-linejoin="round"/>
</g>
</g>
<defs>
<clipPath id="clip0_1_16918">
<rect width="24" height="24" fill="white"/>
</clipPath>
</defs>
</svg>
