<svg width="24" height="24" viewBox="0 0 24 24" fill="none" xmlns="http://www.w3.org/2000/svg">
<path d="M5.28255 15.182L2.10059 18.364L5.6361 21.8995L8.8181 18.7176" stroke="#333333" stroke-width="2" stroke-linecap="round" stroke-linejoin="round"/>
<path d="M10.9395 9.52515L18.3641 2.10052L21.8996 5.63605L14.475 13.0607" stroke="#333333" stroke-width="2" stroke-linecap="round" stroke-linejoin="round"/>
<path d="M4.92925 14.8285C4.53872 14.4379 4.53872 13.8048 4.92925 13.4143L9.17187 9.1716C9.56242 8.78105 10.1956 8.78105 10.5861 9.1716L14.8287 13.4143C15.2193 13.8048 15.2193 14.4379 14.8287 14.8285L10.5861 19.0711C10.1956 19.4616 9.56242 19.4616 9.17187 19.0711L4.92925 14.8285Z" stroke="#333333" stroke-width="2" stroke-linecap="round" stroke-linejoin="round"/>
<path d="M12.7074 11.2928L9.17188 14.8284" stroke="#333333" stroke-width="2" stroke-linecap="round" stroke-linejoin="round"/>
<path d="M15.8892 4.5753L19.4248 8.11085" stroke="#333333" stroke-width="2" stroke-linecap="round" stroke-linejoin="round"/>
<path d="M13.4141 7.0504L16.9497 10.5859" stroke="#333333" stroke-width="2" stroke-linecap="round" stroke-linejoin="round"/>
<path d="M7.75769 10.5858L13.4145 16.2427" stroke="#333333" stroke-width="2" stroke-linecap="round" stroke-linejoin="round"/>
</svg>
