<svg width="24" height="24" viewBox="0 0 24 24" fill="none" xmlns="http://www.w3.org/2000/svg">
<path d="M21.7614 8.65735C21.7613 6.536 19.9936 6.536 18.7562 5.2986C17.5187 4.06115 17.5187 2.29334 15.3974 2.29337C13.9832 2.29336 12.7457 3.88435 12.7458 4.94502C12.7458 6.0057 13.0993 6.7128 13.8064 7.4199L7.44249 13.7838C6.73539 13.0768 6.02824 12.7232 4.9676 12.7232C3.90695 12.7232 2.31592 13.9606 2.31594 15.3748C2.13914 17.6729 4.26052 17.673 5.32114 18.7336C6.38179 19.7943 6.38179 21.9156 8.67989 21.7388C10.0941 21.7388 11.3316 20.1479 11.3315 19.0872C11.3315 18.0265 10.978 17.3194 10.2709 16.6123L16.6348 10.2483C17.3419 10.9554 18.0491 11.309 19.1097 11.309C20.1704 11.309 21.7614 10.0715 21.7614 8.65735Z" stroke="#333333" stroke-width="2" stroke-linejoin="round"/>
</svg>
