<svg width="24" height="24" viewBox="0 0 24 24" fill="none" xmlns="http://www.w3.org/2000/svg">
<path d="M6.74807 10.0408H8.70725C8.70725 10.0408 12.1358 13.6065 12.1358 16.898C12.1358 20.1894 9.19705 21.7959 9.19705 21.7959H6.25827C6.25827 21.7959 3.31952 20.1894 3.31952 16.898C3.31952 13.6065 6.74807 10.0408 6.74807 10.0408Z" stroke="#333333" stroke-width="1.95918" stroke-linecap="round" stroke-linejoin="round"/>
<path d="M7.72767 2.20408C8.74811 2.20408 10.1766 2.94857 10.1766 5.14286C10.1766 7.33714 8.54401 10.0408 8.54401 10.0408H6.91137C6.91137 10.0408 5.27869 7.33714 5.27869 5.14286C5.27869 2.94857 6.70727 2.20408 7.72767 2.20408Z" stroke="#333333" stroke-width="1.95918" stroke-linecap="round" stroke-linejoin="round"/>
<path d="M15.5644 10.0408H17.5236C17.5236 10.0408 20.9521 13.6065 20.9521 16.898C20.9521 20.1894 18.0134 21.7959 18.0134 21.7959H15.0746C15.0746 21.7959 12.1358 20.1894 12.1358 16.898C12.1358 13.6065 15.5644 10.0408 15.5644 10.0408Z" stroke="#333333" stroke-width="1.95918" stroke-linecap="round" stroke-linejoin="round"/>
<path d="M16.544 2.20408C17.5645 2.20408 18.993 2.94857 18.993 5.14286C18.993 7.33714 17.3604 10.0408 17.3604 10.0408H15.7277C15.7277 10.0408 14.095 7.33714 14.095 5.14286C14.095 2.94857 15.5236 2.20408 16.544 2.20408Z" stroke="#333333" stroke-width="1.95918" stroke-linecap="round" stroke-linejoin="round"/>
</svg>
