<svg width="24" height="24" viewBox="0 0 24 24" fill="none" xmlns="http://www.w3.org/2000/svg">
<path d="M3.27184 7.1312C5.70153 7.6144 8.30153 9.3769 10 11.5C10 16.8153 6.32218 18.1184 3.61445 18.4169C2.87554 18.4983 2.38901 17.7163 2.68805 17.0357C3.41264 15.3866 4.00003 13.6496 4.00003 12.5C4.00003 11.3043 3.04698 9.79105 2.40701 8.21325C2.16248 7.6104 2.63377 7.00435 3.27184 7.1312Z" stroke="#333333" stroke-width="2" stroke-linecap="round" stroke-linejoin="round"/>
<path d="M20.7282 7.1312C18.2985 7.6144 15.6985 9.3769 14 11.5C14 16.8153 17.6778 18.1184 20.3855 18.4169C21.1245 18.4983 21.611 17.7163 21.312 17.0357C20.5874 15.3866 20 13.6496 20 12.5C20 11.3043 20.9531 9.79105 21.593 8.21325C21.8376 7.6104 21.3663 7.00435 20.7282 7.1312Z" stroke="#333333" stroke-width="2" stroke-linecap="round" stroke-linejoin="round"/>
<path d="M14 10.5H10V14.5H14V10.5Z" stroke="#333333" stroke-width="2" stroke-linecap="round" stroke-linejoin="round"/>
</svg>
