<svg width="24" height="24" viewBox="0 0 24 24" fill="none" xmlns="http://www.w3.org/2000/svg">
<path d="M12.1358 21.7959C17.548 21.7959 21.9317 17.4122 21.9317 12C21.9317 6.58776 17.548 2.20408 12.1358 2.20408C6.72356 2.20408 2.3399 6.58776 2.3399 12C2.3399 17.4122 6.72356 21.7959 12.1358 21.7959Z" stroke="#333333" stroke-width="1.95918" stroke-miterlimit="2" stroke-linejoin="round"/>
<path d="M12.1358 12.9796C12.9489 12.9796 13.6052 12.3233 13.6052 11.5102C13.6052 10.6971 12.9489 10.0408 12.1358 10.0408C11.3228 10.0408 10.6664 10.6971 10.6664 11.5102C10.6664 12.3233 11.3228 12.9796 12.1358 12.9796Z" fill="#333333"/>
<path d="M15.5644 9.06123C16.3775 9.06123 17.0338 8.4049 17.0338 7.59184C17.0338 6.77878 16.3775 6.12245 15.5644 6.12245C14.7514 6.12245 14.095 6.77878 14.095 7.59184C14.095 8.4049 14.7514 9.06123 15.5644 9.06123Z" fill="#333333"/>
<path d="M8.70724 9.06123C9.5203 9.06123 10.1766 8.4049 10.1766 7.59184C10.1766 6.77878 9.5203 6.12245 8.70724 6.12245C7.89418 6.12245 7.23785 6.77878 7.23785 7.59184C7.23785 8.4049 7.89418 9.06123 8.70724 9.06123Z" fill="#333333"/>
</svg>
