<svg width="24" height="24" viewBox="0 0 24 24" fill="none" xmlns="http://www.w3.org/2000/svg">
<path d="M7.50002 12C7.50002 12 7.25002 13.5 8.00002 16.5" stroke="#333333" stroke-width="2" stroke-linecap="round"/>
<path d="M18.7833 6C19.3639 7.4053 20 9.32095 20 10.9688C20 12.9077 19.3273 16.675 18.8426 19.1384C18.5704 20.5212 17.3517 21.5 15.9424 21.5H8.0211C6.6285 21.5 5.4196 20.543 5.1402 19.1787C4.65686 16.8187 4 13.2008 4 10.9688C4 9.1296 4.7218 7.3159 5.41355 6" stroke="#333333" stroke-width="2" stroke-linecap="round" stroke-linejoin="round"/>
<path d="M5.79342 3.22837C5.88557 3.08598 6.04362 3 6.21322 3H17.7868C17.9564 3 18.1145 3.08598 18.2066 3.22837L19.5007 5.22835C19.716 5.56105 19.4772 6 19.081 6H4.91909C4.52284 6 4.28405 5.56105 4.49931 5.22835L5.79342 3.22837Z" stroke="#333333" stroke-width="2"/>
</svg>
