<svg width="24" height="24" viewBox="0 0 24 24" fill="none" xmlns="http://www.w3.org/2000/svg">
<path fill-rule="evenodd" clip-rule="evenodd" d="M9.6391 6.07C10.5905 6.2401 11.4928 6.4818 12.3462 6.79495C10.9412 6.8037 9.53955 7.3891 8.52705 8.5515L8.42785 8.669C7.0082 10.4031 6.9129 12.8896 8.14195 14.7248L8.1112 14.6687C9.37485 16.9902 11.526 19.0271 13.7495 19.6821C15.54 20.2095 17.2153 20.3494 18.7589 20.0996L18.7724 20.0905C16.9096 21.546 14.6636 22.2765 12.4155 22.2828H12.3574L12.1419 22.28C9.4838 22.2178 6.84415 21.1431 4.85402 19.0572L4.68931 18.8804C2.90442 16.9197 2.00792 14.4225 2 11.9229V11.8564L2.00317 11.6292C2.04733 9.84255 2.5457 8.0654 3.49821 6.493L3.46385 6.5026C5.7155 5.8797 7.77345 5.73635 9.6391 6.07ZM14.9082 16.3164C15.6812 15.9485 16.6128 16.1269 17.2243 16.7381L19.7302 19.2428L19.5604 19.4087C19.5467 19.4219 19.5329 19.4349 19.5191 19.448C17.8237 19.9044 15.9457 19.8315 13.8844 19.2243C12.3946 18.7854 11.1166 17.7092 9.97545 16.3852L9.95075 16.3715C11.4629 17.1906 13.302 17.1885 14.8125 16.3652L14.9082 16.3164ZM12.3772 1.49997L12.5988 1.50235C15.1828 1.55759 17.7507 2.57098 19.7227 4.54299L17.2243 7.0415L17.1462 7.11565C16.5089 7.69055 15.5715 7.8277 14.8125 7.41405L14.6819 7.3454C14.657 7.33275 14.6321 7.32035 14.6071 7.30815C13.1454 6.49025 11.517 5.92095 9.72315 5.60015C7.93805 5.28095 5.99265 5.38105 3.88806 5.8985C4.17617 5.4884 4.49849 5.09505 4.85402 4.72236L5.01725 4.55499C7.04755 2.51839 9.71055 1.49997 12.3748 1.49997H12.3772Z" fill="#333333"/>
<path fill-rule="evenodd" clip-rule="evenodd" d="M20.7745 8.66264L16.8297 10.9403L16.7217 11.0144C16.7217 11.0144 16.384 11.2407 16.4213 11.7192C16.4539 12.1378 16.7521 12.3144 16.7521 12.3144L20.8674 14.6884C20.8674 14.6884 21.1898 14.8623 21.5905 14.6456C22.0387 14.4033 22.0081 13.9299 22.0081 13.9299V9.37514C22.0081 9.37514 22.0085 9.37019 22.0085 9.36134V9.34899C22.0076 9.25634 21.9811 8.93959 21.6837 8.72044C21.51 8.59249 21.3385 8.55244 21.192 8.55244C20.9487 8.55269 20.7745 8.66264 20.7745 8.66264Z" fill="#333333"/>
</svg>
