<svg width="24" height="24" viewBox="0 0 24 24" fill="none" xmlns="http://www.w3.org/2000/svg">
<g clip-path="url(#clip0_1_16299)">
<mask id="mask0_1_16299" style="mask-type:luminance" maskUnits="userSpaceOnUse" x="0" y="0" width="24" height="24">
<path d="M24 0H0V24H24V0Z" fill="white"/>
</mask>
<g mask="url(#mask0_1_16299)">
<path d="M16.6874 16.9372C18.8087 14.8159 17.3945 7.74485 14.2125 4.56286C12.7983 3.14861 8.7325 0.143436 4.31303 4.56282C-0.106422 8.9822 2.89885 13.0481 4.31303 14.4623C7.49505 17.6443 14.5661 19.0585 16.6874 16.9372Z" stroke="#333333" stroke-width="2" stroke-linecap="round" stroke-linejoin="round"/>
<path d="M20.5 20.5C20.1266 20.1267 18.0111 18.0111 16.9999 17" stroke="#333333" stroke-width="2"/>
<path d="M20.2126 19.1518C19.7245 19.6399 19.7245 20.4314 20.2126 20.9195C20.7008 21.4077 21.4922 21.4077 21.9804 20.9195C22.4685 20.4314 22.4685 19.6399 21.9804 19.1518C21.4922 18.6636 20.7008 18.6636 20.2126 19.1518Z" fill="#333333"/>
<path d="M19.1521 20.2123C18.6639 20.7005 18.6639 21.4919 19.1521 21.9801C19.6402 22.4682 20.4317 22.4682 20.9198 21.9801C21.408 21.4919 21.408 20.7005 20.9198 20.2123C20.4317 19.7242 19.6402 19.7242 19.1521 20.2123Z" fill="#333333"/>
<path d="M8.5 10C9.05228 10 9.5 9.55228 9.5 9C9.5 8.44772 9.05228 8 8.5 8C7.94772 8 7.5 8.44772 7.5 9C7.5 9.55228 7.94772 10 8.5 10Z" fill="#333333"/>
<path d="M6 11.5C6.55228 11.5 7 11.0523 7 10.5C7 9.94772 6.55228 9.5 6 9.5C5.44772 9.5 5 9.94772 5 10.5C5 11.0523 5.44772 11.5 6 11.5Z" fill="#333333"/>
<path d="M8.5 13C9.05228 13 9.5 12.5523 9.5 12C9.5 11.4477 9.05228 11 8.5 11C7.94772 11 7.5 11.4477 7.5 12C7.5 12.5523 7.94772 13 8.5 13Z" fill="#333333"/>
</g>
</g>
<defs>
<clipPath id="clip0_1_16299">
<rect width="24" height="24" fill="white"/>
</clipPath>
</defs>
</svg>
