<svg width="24" height="24" viewBox="0 0 24 24" fill="none" xmlns="http://www.w3.org/2000/svg">
<g clip-path="url(#clip0_1_16414)">
<mask id="mask0_1_16414" style="mask-type:luminance" maskUnits="userSpaceOnUse" x="0" y="0" width="24" height="24">
<path d="M24 0H0V24H24V0Z" fill="white"/>
</mask>
<g mask="url(#mask0_1_16414)">
<path d="M17.9 6.5H16L10.5 16L4.9 6.5H3" stroke="#333333" stroke-width="2" stroke-linecap="round" stroke-linejoin="round"/>
<path d="M12.8755 12.7981C15.6759 14.3733 19.223 13.3801 20.7982 10.5797C22.3735 7.77931 21.3803 4.23214 18.5799 2.65692C15.7795 1.0817 12.2323 2.0749 10.6571 4.87529" stroke="#333333" stroke-width="2" stroke-linecap="round"/>
<path d="M13 22H8" stroke="#333333" stroke-width="2" stroke-linecap="round" stroke-linejoin="round"/>
<path d="M10.5 22V16" stroke="#333333" stroke-width="2" stroke-linecap="round" stroke-linejoin="round"/>
<path d="M6 8C6 8 7 7 8.5 7C10 7 11 8.5 12.5 8.5C14 8.5 15 8 15 8" stroke="#333333" stroke-width="2" stroke-linecap="round" stroke-linejoin="round"/>
</g>
</g>
<defs>
<clipPath id="clip0_1_16414">
<rect width="24" height="24" fill="white"/>
</clipPath>
</defs>
</svg>
