<svg width="24" height="24" viewBox="0 0 24 24" fill="none" xmlns="http://www.w3.org/2000/svg">
<path d="M11 7.00006C11 7.00006 9.64989 9.64671 8.99999 13.0001C8.35004 16.3534 8.49999 21.0001 8.49999 21.0001" stroke="#333333" stroke-width="2" stroke-linecap="round" stroke-linejoin="round"/>
<path d="M16.9765 11.6361C17.1493 11.7509 17.4228 11.8317 17.6907 11.8876C18.1564 11.9846 18.5867 11.6645 18.5746 11.189C18.552 10.3021 18.2061 8.85141 16.4454 7.68221C14.7831 6.57831 13.1323 6.56321 12.0916 6.72186C11.498 6.81236 11.2616 7.46096 11.6023 7.95546C11.9063 8.39686 12.2605 8.84266 12.5 8.92781C13 9.10556 13.6017 8.63686 14.0398 8.92781C14.478 9.21876 14.3476 9.89036 14.7858 10.1813C15.2239 10.4723 15.7924 10.0916 16.2305 10.3826C16.6686 10.6736 16.5383 11.3452 16.9765 11.6361Z" stroke="#333333" stroke-width="2" stroke-linecap="round" stroke-linejoin="round"/>
<path d="M10.0001 8.49994C10.429 8.35699 10.6944 7.88694 10.843 7.51069C10.9658 7.19974 10.8561 6.85649 10.5683 6.68634C9.92044 6.30339 8.53774 5.77944 6.38079 6.40584C4.24873 7.02499 3.68552 8.43374 3.54258 9.26334C3.47569 9.65154 3.73999 10.0027 4.13149 10.0462C4.41194 10.0774 4.71959 10.0635 4.90344 9.90749C5.30689 9.56509 5.41614 9.11629 5.86689 8.99549C6.31764 8.87474 6.70649 9.42439 7.15729 9.30359C7.60804 9.18284 7.66994 8.51239 8.12069 8.39159C8.57149 8.27079 9.25009 8.74994 10.0001 8.49994Z" stroke="#333333" stroke-width="2" stroke-linecap="round" stroke-linejoin="round"/>
<path d="M13.5 3.00007C12.2498 3.50008 10.9997 6.00006 11.0001 7.00006L17.5005 4.00008C16.8101 2.80435 14.7503 2.50007 13.5 3.00007Z" stroke="#333333" stroke-width="2" stroke-linecap="round" stroke-linejoin="round"/>
<path d="M9.99999 2.50007C12 3.21088 11.6904 5.80436 11.0001 7.00006L5.00024 2.96089C5.50024 2.00007 7.99999 1.78926 9.99999 2.50007Z" stroke="#333333" stroke-width="2" stroke-linecap="round" stroke-linejoin="round"/>
<path d="M13 17.5C17.1421 17.5 19.5 18.3954 19.5 19.5C19.5 20.6046 16.1421 21.5 12 21.5C7.85785 21.5 4.5 20.6046 4.5 19.5C4.5 19.2304 4.70003 18.9733 5.06265 18.7386" stroke="#333333" stroke-width="2" stroke-linecap="round"/>
</svg>
