<svg width="24" height="24" viewBox="0 0 24 24" fill="none" xmlns="http://www.w3.org/2000/svg">
<path d="M9.5002 20C5.06385 17.7818 3.50025 13 2.00004 9.75C1.3252 8.28805 3.76311 7.90545 5.2499 8.5C6.5002 9 8.00005 10 8.00005 10V5.75C8.00005 4.7835 8.78355 4 9.75005 4C10.7166 4 11.5001 4.7835 11.5001 5.75V4.75C11.5001 3.7835 12.2836 3 13.2501 3C14.2166 3 15.0001 3.7835 15.0001 4.75V6.75C15.0001 5.7835 15.7836 5 16.7501 5C17.7166 5 18.5001 5.7835 18.5001 6.75V8.25C18.5001 7.2835 19.2836 6.5 20.2501 6.5C21.2166 6.5 22.0001 7.28275 22.0001 8.24925V14.5C22.0001 16.25 21.0002 18.5 18.5001 20C16.1034 21.4379 12.5002 21.5 9.5002 20Z" stroke="#333333" stroke-width="2" stroke-linecap="round" stroke-linejoin="round"/>
</svg>
