<svg width="24" height="24" viewBox="0 0 24 24" fill="none" xmlns="http://www.w3.org/2000/svg">
<path d="M19.914 10.893L10.9843 19.8227C9.27719 21.5299 6.46864 21.4892 4.71126 19.7318C2.95391 17.9745 2.9132 15.1659 4.62035 13.4588L13.5501 4.52899" stroke="#333333" stroke-width="2" stroke-linecap="round"/>
<path d="M4.36719 13.7119L17.4392 13.3678" stroke="#333333" stroke-width="2" stroke-linecap="round"/>
<path d="M14.6965 10.4535C15.0871 10.0629 15.0871 9.42975 14.6965 9.03925C14.306 8.6487 13.6729 8.6487 13.2823 9.03925C12.8918 9.42975 12.8918 10.0629 13.2823 10.4535C13.6729 10.844 14.306 10.844 14.6965 10.4535Z" fill="#333333"/>
<path d="M11.8679 11.8678C12.2584 11.4773 12.2584 10.8441 11.8679 10.4536C11.4774 10.063 10.8442 10.063 10.4537 10.4536C10.0631 10.8441 10.0631 11.4773 10.4537 11.8678C10.8442 12.2583 11.4774 12.2583 11.8679 11.8678Z" fill="#333333"/>
<path d="M11.7822 2.76123L21.6817 12.6608" stroke="#333333" stroke-width="2" stroke-linecap="round"/>
</svg>
