<svg width="24" height="24" viewBox="0 0 24 24" fill="none" xmlns="http://www.w3.org/2000/svg">
<path d="M3.81738 17.75C4.16894 18.2494 4.56505 18.7151 4.99994 19.1415C5.459 19.5915 5.96125 19.9976 6.49995 20.353" stroke="#333333" stroke-width="2" stroke-linecap="round" stroke-linejoin="round"/>
<path d="M13.9342 21.8131C13.3084 21.9357 12.6617 22 11.9999 22C11.3382 22 10.6915 21.9357 10.0657 21.8131" stroke="#333333" stroke-width="2" stroke-linecap="round" stroke-linejoin="round"/>
<path d="M21.7745 14.1214C21.9222 13.4377 22 12.7279 22 12C22 11.2873 21.9254 10.5919 21.7837 9.92136" stroke="#333333" stroke-width="2" stroke-linecap="round" stroke-linejoin="round"/>
<path d="M20.1826 6.25005C19.831 5.7507 19.4349 5.28495 19 4.85864C18.541 4.40861 18.0386 4.0025 17.5 3.64709" stroke="#333333" stroke-width="2" stroke-linecap="round" stroke-linejoin="round"/>
<path d="M10.0776 2.18461C10.6997 2.06347 11.3425 2 12 2C12.6576 2 13.3004 2.06347 13.9225 2.18461" stroke="#333333" stroke-width="2" stroke-linecap="round" stroke-linejoin="round"/>
<path d="M3.81738 6.25005C4.16894 5.7507 4.56505 5.28495 4.99994 4.85864C5.459 4.40861 5.96125 4.0025 6.49995 3.64709" stroke="#333333" stroke-width="2" stroke-linecap="round" stroke-linejoin="round"/>
<path d="M20.2501 17.6469C19.8985 18.1463 19.5024 18.6121 19.0675 19.0384C18.6085 19.4884 18.1062 19.8945 17.5675 20.2499" stroke="#333333" stroke-width="2" stroke-linecap="round" stroke-linejoin="round"/>
<path d="M8 12H2" stroke="#333333" stroke-width="2" stroke-linecap="round" stroke-linejoin="round"/>
<path d="M5 19L9.17155 14.8285" stroke="#333333" stroke-width="2" stroke-linecap="round" stroke-linejoin="round"/>
<path d="M12 16V22" stroke="#333333" stroke-width="2" stroke-linecap="round" stroke-linejoin="round"/>
<path d="M19 19L14.8284 14.8285" stroke="#333333" stroke-width="2" stroke-linecap="round" stroke-linejoin="round"/>
<path d="M16 12H22" stroke="#333333" stroke-width="2" stroke-linecap="round" stroke-linejoin="round"/>
<path d="M19 5L14.8284 9.17155" stroke="#333333" stroke-width="2" stroke-linecap="round" stroke-linejoin="round"/>
<path d="M12 8V2" stroke="#333333" stroke-width="2" stroke-linecap="round" stroke-linejoin="round"/>
<path d="M5 5L9.17155 9.17155" stroke="#333333" stroke-width="2" stroke-linecap="round" stroke-linejoin="round"/>
<path d="M2.21633 9.92136C2.07457 10.5919 2 11.2873 2 12C2 12.7128 2.07457 13.4081 2.21633 14.0787" stroke="#333333" stroke-width="2" stroke-linecap="round" stroke-linejoin="round"/>
<path d="M12 16C14.2092 16 16 14.2092 16 12C16 9.79085 14.2092 8 12 8C9.79085 8 8 9.79085 8 12C8 14.2092 9.79085 16 12 16Z" stroke="#333333" stroke-width="2" stroke-linecap="round" stroke-linejoin="round"/>
</svg>
