<svg width="24" height="24" viewBox="0 0 24 24" fill="none" xmlns="http://www.w3.org/2000/svg">
<path d="M4.29932 8.57731C4.29932 8.30356 4.52125 8.08163 4.79501 8.08163H16.5383C16.8121 8.08163 17.034 8.30356 17.034 8.57731V15.4286C17.034 18.9452 14.1832 21.7959 10.6666 21.7959C7.15006 21.7959 4.29932 18.9452 4.29932 15.4286V8.57731Z" stroke="#333333" stroke-width="1.95918"/>
<path d="M17.034 11.5102H4.29932V15.4286H17.034V11.5102Z" stroke="#333333" stroke-width="1.95918" stroke-linecap="round" stroke-linejoin="round"/>
<path d="M10.6666 2.20407V5.14285" stroke="#333333" stroke-width="1.95918" stroke-linecap="round" stroke-linejoin="round"/>
<path d="M6.74829 3.18369V4.16328" stroke="#333333" stroke-width="1.95918" stroke-linecap="round" stroke-linejoin="round"/>
<path d="M14.5851 3.18369V4.16328" stroke="#333333" stroke-width="1.95918" stroke-linecap="round" stroke-linejoin="round"/>
<path d="M17.0341 16.8979C18.9276 16.8979 20.4626 15.3629 20.4626 13.4694C20.4626 11.5758 18.9276 10.0408 17.0341 10.0408" stroke="#333333" stroke-width="1.95918" stroke-linecap="round"/>
</svg>
