<svg width="24" height="24" viewBox="0 0 24 24" fill="none" xmlns="http://www.w3.org/2000/svg">
<path d="M12.1361 3.67346C6.72593 3.67346 2.34016 8.05924 2.34016 13.4694C2.34016 16.0311 3.1794 18.581 4.78914 20.3265H19.483C21.0928 18.581 21.932 16.0311 21.932 13.4694C21.932 8.05924 17.5462 3.67346 12.1361 3.67346Z" stroke="#333333" stroke-width="1.95918" stroke-linecap="round" stroke-linejoin="round"/>
<path d="M12.1361 16.898C13.2181 16.898 14.0952 16.0208 14.0952 14.9388C14.0952 13.8567 13.2181 12.9796 12.1361 12.9796C11.054 12.9796 10.1769 13.8567 10.1769 14.9388C10.1769 16.0208 11.054 16.898 12.1361 16.898Z" stroke="#333333" stroke-width="1.95918" stroke-linecap="round" stroke-linejoin="round"/>
<path d="M12.1361 10.0408V12.9796" stroke="#333333" stroke-width="1.95918" stroke-linecap="round" stroke-linejoin="round"/>
<path d="M12.1361 6.12244V7.10203" stroke="#333333" stroke-width="1.95918" stroke-linecap="round" stroke-linejoin="round"/>
<path d="M4.78914 13.9592H5.76872" stroke="#333333" stroke-width="1.95918" stroke-linecap="round" stroke-linejoin="round"/>
<path d="M6.74831 9.06122L7.44098 9.75389" stroke="#333333" stroke-width="1.95918" stroke-linecap="round" stroke-linejoin="round"/>
<path d="M18.5034 13.9592H19.483" stroke="#333333" stroke-width="1.95918" stroke-linecap="round" stroke-linejoin="round"/>
<path d="M17.034 9.75385L17.7267 9.06113" stroke="#333333" stroke-width="1.95918" stroke-linecap="round" stroke-linejoin="round"/>
</svg>
