<svg width="24" height="24" viewBox="0 0 24 24" fill="none" xmlns="http://www.w3.org/2000/svg">
<path d="M18 13.5C18 17.1082 15.3137 22 12 22C8.6863 22 6 17.1082 6 13.5C6 9.89175 6.75 8 12 8C17.25 8 18 9.89175 18 13.5Z" stroke="#333333" stroke-width="2"/>
<path d="M18.2624 7.51273C19.2387 6.53642 20.5842 6.29898 21.2676 6.9824C21.951 7.66582 21.7136 9.01129 20.7372 9.9876C19.7609 10.9639 18.4155 11.2014 17.732 10.5179C17.0486 9.83452 17.2861 8.48904 18.2624 7.51273Z" stroke="#333333" stroke-width="2"/>
<path d="M3.26238 9.9873C4.23869 10.9636 5.58416 11.201 6.26758 10.5176C6.951 9.83421 6.71356 8.48874 5.73725 7.51243C4.76094 6.53612 3.41546 6.29868 2.73205 6.9821C2.04863 7.66551 2.28606 9.01099 3.26238 9.9873Z" stroke="#333333" stroke-width="2"/>
<path d="M6 2C6 5.3137 8.6863 8 12 8C15.3137 8 18 5.3137 18 2" stroke="#333333" stroke-width="2" stroke-linecap="round"/>
<path d="M9 3.5C9 5.9853 10.3432 8 12 8C13.6568 8 15 5.9853 15 3.5" stroke="#333333" stroke-width="2" stroke-linecap="round"/>
<path d="M9.99976 14C10.552 14 10.9998 13.5523 10.9998 13C10.9998 12.4477 10.552 12 9.99976 12C9.44747 12 8.99976 12.4477 8.99976 13C8.99976 13.5523 9.44747 14 9.99976 14Z" fill="#333333"/>
<path d="M11.9998 18C12.552 18 12.9998 17.5523 12.9998 17C12.9998 16.4477 12.552 16 11.9998 16C11.4475 16 10.9998 16.4477 10.9998 17C10.9998 17.5523 11.4475 18 11.9998 18Z" fill="#333333"/>
<path d="M13.9998 14C14.552 14 14.9998 13.5523 14.9998 13C14.9998 12.4477 14.552 12 13.9998 12C13.4475 12 12.9998 12.4477 12.9998 13C12.9998 13.5523 13.4475 14 13.9998 14Z" fill="#333333"/>
</svg>
