<svg width="24" height="24" viewBox="0 0 24 24" fill="none" xmlns="http://www.w3.org/2000/svg">
<path d="M11.5 4.49951H5.5C4.67158 4.49951 4 5.1711 4 5.9995V16.4995H20V12.9995" stroke="#333333" stroke-width="2" stroke-linecap="round" stroke-linejoin="round"/>
<path d="M2 16.4995H22V17.4995C22 19.1564 20.6568 20.4995 19 20.4995H5C3.34315 20.4995 2 19.1564 2 17.4995V16.4995Z" stroke="#333333" stroke-width="2" stroke-linejoin="round"/>
<path d="M18.0001 9.5C19.657 9.5 21.0001 8.15685 21.0001 6.5C21.0001 4.84315 19.657 3.5 18.0001 3.5C16.3433 3.5 15.0001 4.84315 15.0001 6.5C15.0001 8.15685 16.3433 9.5 18.0001 9.5Z" stroke="#333333" stroke-width="2"/>
<path d="M16 4.5L20 8.5" stroke="#333333" stroke-width="2" stroke-linecap="round" stroke-linejoin="round"/>
</svg>
