<svg width="24" height="24" viewBox="0 0 24 24" fill="none" xmlns="http://www.w3.org/2000/svg">
<path d="M11.5 2.99902H4.5C3.67158 2.99902 3 3.67059 3 4.49902V15.499C3 16.3274 3.67158 16.999 4.5 16.999H19.5C20.3285 16.999 21 16.3274 21 15.499V11.999" stroke="#333333" stroke-width="2" stroke-linecap="round" stroke-linejoin="round"/>
<path d="M12 17V21" stroke="#333333" stroke-width="2" stroke-linecap="round" stroke-linejoin="round"/>
<path d="M18.0001 9C19.657 9 21.0001 7.65685 21.0001 6C21.0001 4.34315 19.657 3 18.0001 3C16.3433 3 15.0001 4.34315 15.0001 6C15.0001 7.65685 16.3433 9 18.0001 9Z" stroke="#333333" stroke-width="2"/>
<path d="M16 4L20 8" stroke="#333333" stroke-width="2" stroke-linecap="round" stroke-linejoin="round"/>
<path d="M7 20.999H17" stroke="#333333" stroke-width="2" stroke-linecap="round" stroke-linejoin="round"/>
</svg>
