<svg width="24" height="24" viewBox="0 0 24 24" fill="none" xmlns="http://www.w3.org/2000/svg">
<path d="M21.2153 6.01955C18.851 3.69128 15.5769 2.25 11.9592 2.25C8.3627 2.25 5.1059 3.67438 2.74487 5.97855" stroke="#333333" stroke-width="2" stroke-linecap="round" stroke-linejoin="round"/>
<path d="M3.33325 14.7372V14.7084C3.33325 9.92195 7.21345 6.04175 11.9999 6.04175" stroke="#333333" stroke-width="2" stroke-linecap="round" stroke-linejoin="round"/>
<path d="M15.5847 6.81543C18.5824 8.17908 20.6666 11.2003 20.6666 14.7083V14.7148" stroke="#333333" stroke-width="2" stroke-linecap="round" stroke-linejoin="round"/>
<path d="M7.125 18.4999V14.7083C7.125 12.0159 9.3076 9.83325 12 9.83325C14.6924 9.83325 16.875 12.0159 16.875 14.7083V18.4999" stroke="#333333" stroke-width="2" stroke-linecap="round" stroke-linejoin="round"/>
<path d="M8.76294 21.75C9.74439 21.5077 10.3749 20.4728 10.3749 19.598C10.3749 18.6677 10.3749 17.2184 10.3749 15.25C10.3749 14.3526 11.1024 13.625 11.9999 13.625C12.8973 13.625 13.6249 14.3526 13.6249 15.25V19.598" stroke="#333333" stroke-width="2" stroke-linecap="round" stroke-linejoin="round"/>
</svg>
