<svg width="24" height="24" viewBox="0 0 24 24" fill="none" xmlns="http://www.w3.org/2000/svg">
<path d="M12.3398 10.0184C11.7826 9.86915 10.1327 9.33975 7.58505 11.0462C6.0695 12.0613 5.4321 13.6199 5.21715 14.7649C5.11495 15.3093 5.5772 15.7483 6.12715 15.6832C6.52515 15.636 6.96685 15.5624 7.30105 15.4494C8.28625 15.1161 8.1569 14.4843 8.6595 13.7231C9.1621 12.9618 10.4259 12.7032 11.4657 13.2804C12.5056 13.8577 12.8388 14.8429 12.6149 15.6788C12.3909 16.5146 11.8883 17.2758 10.6245 17.5344C9.3607 17.7931 8.95275 17.0865 7.63435 16.4346C6.9473 16.0949 6.05115 16.5354 5.50985 16.8839C5.20335 17.0811 5.07635 17.4538 5.205 17.7948C5.29235 18.0264 5.41255 18.2973 5.5693 18.5689C5.97725 19.2754 7.75825 21.5444 10.0619 21.8631C12.3655 22.1817 14.7638 21.0326 16.1223 19.3062C17.4807 17.5798 17.5207 15.2015 16.5756 13.1565" stroke="#333333" stroke-width="2" stroke-linecap="round" stroke-linejoin="round"/>
<path d="M16.5228 13.2099L14.1384 2.07791C14.0849 1.82825 13.8505 1.65529 13.6037 1.72051C13.0229 1.87397 12.2856 2.25912 12.2509 3.15513C12.2062 4.30806 12.4332 13.1745 12.7365 14.7835" stroke="#333333" stroke-width="2" stroke-linecap="round" stroke-linejoin="round"/>
</svg>
