<svg width="24" height="24" viewBox="0 0 24 24" fill="none" xmlns="http://www.w3.org/2000/svg">
<g clip-path="url(#clip0_1_15846)">
<mask id="mask0_1_15846" style="mask-type:luminance" maskUnits="userSpaceOnUse" x="0" y="0" width="24" height="24">
<path d="M24 0H0V24H24V0Z" fill="white"/>
</mask>
<g mask="url(#mask0_1_15846)">
<path d="M7.6904 16.422C4.86175 15.7147 0.265714 17.4826 4.86182 19.2503C6.62975 23.8466 8.39735 19.2503 7.6904 16.422Z" stroke="#333333" stroke-width="2" stroke-linecap="round" stroke-linejoin="round"/>
<path d="M11.2411 5.1237C8.78944 5.11715 5.62519 5.8921 5.22664 6.98765C4.93776 7.7818 6.43899 8.8383 8.35179 9.39655" stroke="#333333" stroke-width="2" stroke-linecap="round" stroke-linejoin="round"/>
<path d="M18.9888 12.8712C18.9953 15.3229 18.2203 18.4871 17.1248 18.8857C16.3307 19.1746 15.2742 17.6733 14.7159 15.7605" stroke="#333333" stroke-width="2" stroke-linecap="round" stroke-linejoin="round"/>
<path d="M18.9997 12.8823C22.3313 9.84993 20.0625 4.04558 20.0625 4.04558C20.0625 4.04558 14.054 2.27975 11.2256 5.10818C8.3971 7.93658 7.69 16.4219 7.69 16.4219C7.69 16.4219 15.6681 15.9147 18.9997 12.8823Z" stroke="#333333" stroke-width="2" stroke-linecap="round" stroke-linejoin="round"/>
<path d="M19.0038 12.8865C19.0038 12.8865 15.645 12.3562 13.7005 10.4117C11.7559 8.46715 11.2256 5.1084 11.2256 5.1084" stroke="#333333" stroke-width="2" stroke-linecap="round" stroke-linejoin="round"/>
<path d="M16.1757 7.93675C16.5662 8.32727 17.1994 8.32727 17.5899 7.93675C17.9804 7.54623 17.9804 6.91306 17.5899 6.52254C17.1994 6.13201 16.5662 6.13201 16.1757 6.52254C15.7852 6.91306 15.7852 7.54622 16.1757 7.93675Z" fill="#333333"/>
<path d="M20.4999 10.4724C20.2295 11.3522 19.7607 12.1896 18.9996 12.8824C18.1759 13.6321 17.0681 14.2275 15.8672 14.699" stroke="#333333" stroke-width="2" stroke-linecap="round" stroke-linejoin="round"/>
<path d="M13.5001 3.82819C12.6513 4.07224 11.8588 4.47518 11.2256 5.10833C10.6332 5.70073 10.1339 6.54128 9.71465 7.49998" stroke="#333333" stroke-width="2" stroke-linecap="round" stroke-linejoin="round"/>
</g>
</g>
<defs>
<clipPath id="clip0_1_15846">
<rect width="24" height="24" fill="white"/>
</clipPath>
</defs>
</svg>
