<svg width="24" height="24" viewBox="0 0 24 24" fill="none" xmlns="http://www.w3.org/2000/svg">
<path d="M5.5 20L3 12.75L2.02078 7.85392C2.00696 7.78482 2 7.71452 2 7.64407V7.56362C2 6.87852 2.89119 6.61302 3.26612 7.18647C3.2938 7.22877 3.31833 7.27307 3.33952 7.31897L5.30535 11.5783C5.4151 11.8161 5.6897 11.9289 5.9349 11.8369L6 11.8125L5.06455 4.97214C5.0232 4.66965 5.10275 4.36305 5.2859 4.1188C5.5422 3.77706 6.02705 3.7078 6.3688 3.96411L6.43535 4.01403C6.6404 4.16783 6.7948 4.37946 6.87865 4.6217L8.9345 10.5609C8.9737 10.6741 9.08035 10.75 9.20015 10.75C9.36255 10.75 9.49115 10.6129 9.4807 10.4508L9.03925 3.60866C9.0143 3.22178 9.15715 2.84288 9.43125 2.56875C9.75505 2.24497 10.2705 2.21642 10.628 2.50246L10.7983 2.63865C11.089 2.87121 11.2829 3.20357 11.3421 3.57111L12.4614 10.5111C12.4836 10.6488 12.6025 10.75 12.742 10.75C12.8883 10.75 13.0107 10.6389 13.0248 10.4932L13.6889 3.63089C13.728 3.22757 13.9285 2.8572 14.245 2.60407L14.3482 2.52148C14.7193 2.22461 15.2542 2.25424 15.5903 2.59027C15.8526 2.85263 16 3.20846 16 3.57948V13.3342C16 13.7298 16.4376 13.9687 16.7704 13.7548L19.0059 12.3177C19.3285 12.1103 19.7039 12 20.0874 12H21.1217C21.5093 12 21.7494 12.422 21.5515 12.7553L17.25 20C17.25 20 15.5 22 11.5 22C7.5 22 5.83335 20.6667 5.5 20Z" stroke="#333333" stroke-width="2" stroke-linecap="round" stroke-linejoin="round"/>
</svg>
