<svg width="24" height="24" viewBox="0 0 24 24" fill="none" xmlns="http://www.w3.org/2000/svg">
<path d="M7.11136 18.7355L3.27478 13.4922C2.56585 12.5233 2.75952 11.1658 3.7111 10.4338C4.59144 9.7566 5.83751 9.8375 6.62286 10.6229L8.00001 12V3.625C8.00001 2.72754 8.72756 2 9.62501 2C10.5225 2 11.25 2.72754 11.25 3.625V3.125C11.25 2.22754 11.9776 1.5 12.875 1.5C13.7725 1.5 14.5 2.22754 14.5 3.125V3.625C14.5 2.72754 15.2276 2 16.125 2C17.0225 2 17.75 2.72754 17.75 3.625V5.625C17.75 4.72754 18.4776 4 19.375 4C20.2725 4 21 4.72754 21 5.625V15.1538C21 16.5193 20.5809 17.8626 19.8098 18.9895C18.5279 20.8632 16.3926 22 14.1223 22H13.5451C11.0027 22 8.61271 20.7874 7.11136 18.7355Z" stroke="#333333" stroke-width="2" stroke-linecap="round" stroke-linejoin="round"/>
</svg>
