<svg width="24" height="24" viewBox="0 0 24 24" fill="none" xmlns="http://www.w3.org/2000/svg">
<path d="M13.0001 10.5C12 10.25 10.6233 9.68109 8.58526 11.0462C7.06976 12.0613 6.43236 13.6199 6.21736 14.765C6.11521 15.3094 6.57741 15.7484 7.12741 15.6832C7.52536 15.636 7.96711 15.5625 8.30131 15.4495C9.28646 15.1162 9.15716 14.4843 9.65976 13.7231C10.1623 12.9619 11.4261 12.7033 12.466 13.2805C13.5058 13.8577 13.8391 14.8429 13.6151 15.6788C13.3911 16.5146 12.8885 17.2759 11.6247 17.5345C10.361 17.7931 9.95301 17.0865 8.63456 16.4346C7.94751 16.0949 7.05141 16.5354 6.51011 16.8839C6.20361 17.0812 6.07661 17.4538 6.20521 17.7948C6.29256 18.0264 6.41276 18.2974 6.56956 18.5689C6.97746 19.2755 8.75851 21.5445 11.0621 21.8631C13.3658 22.1817 15.764 21.0326 17.1225 19.3062C18.481 17.5798 18.521 15.2016 17.5758 13.1565" stroke="#333333" stroke-width="2" stroke-linecap="round" stroke-linejoin="round"/>
<path d="M17.523 13.2099L16.0003 6.99999L11.3539 2.3536C11.1587 2.15832 10.8441 2.16159 10.6866 2.38849C10.3103 2.93092 9.81086 3.96546 10.5004 4.99999C10.744 5.36554 12.5008 7.49999 12.5008 7.49999C12.5008 7.49999 13.5489 13.7871 13.7367 14.7836" stroke="#333333" stroke-width="2" stroke-linecap="round" stroke-linejoin="round"/>
</svg>
