<svg width="24" height="24" viewBox="0 0 24 24" fill="none" xmlns="http://www.w3.org/2000/svg">
<path d="M2.5 3C2.5 2.72386 2.72386 2.5 3 2.5H8C8.27615 2.5 8.5 2.72386 8.5 3V21C8.5 21.2761 8.27615 21.5 8 21.5H3C2.72386 21.5 2.5 21.2761 2.5 21V3Z" stroke="#333333" stroke-width="2" stroke-linejoin="round"/>
<path d="M5.5 18.4999C6.05228 18.4999 6.5 18.0522 6.5 17.4999C6.5 16.9477 6.05228 16.4999 5.5 16.4999C4.94772 16.4999 4.5 16.9477 4.5 17.4999C4.5 18.0522 4.94772 18.4999 5.5 18.4999Z" fill="#333333"/>
<path d="M5.5 5.49994V12.4999" stroke="#333333" stroke-width="2" stroke-linecap="round" stroke-linejoin="round"/>
<path d="M11.9888 4.87779L17.0186 3.62033C17.2851 3.55371 17.5554 3.71451 17.624 3.98046L21.3741 18.5122C21.4435 18.781 21.2806 19.0548 21.0113 19.1222L15.9814 20.3796C15.715 20.4462 15.4447 20.2854 15.376 20.0195L11.6259 5.48778C11.5565 5.21898 11.7195 4.94512 11.9888 4.87779Z" stroke="#333333" stroke-width="2" stroke-linecap="round" stroke-linejoin="round"/>
<path d="M17.5 17C18.0523 17 18.5 16.5523 18.5 16C18.5 15.4477 18.0523 15 17.5 15C16.9477 15 16.5 15.4477 16.5 16C16.5 16.5523 16.9477 17 17.5 17Z" fill="#333333"/>
<path d="M15.5 8L16.75 13" stroke="#333333" stroke-width="2" stroke-linecap="round" stroke-linejoin="round"/>
</svg>
