<svg width="24" height="24" viewBox="0 0 24 24" fill="none" xmlns="http://www.w3.org/2000/svg">
<path d="M5.5373 18.5396C3.84432 19.2705 3.01806 20.2621 2.68247 20.9547C2.54962 21.2289 2.77305 21.5 3.07773 21.5H13.6933C14.0644 21.5 14.2993 21.1118 14.083 20.8102C13.2084 19.591 11.8909 18.8213 11.1944 18.5341C11.1378 18.5108 11.0774 18.5 11.0162 18.5H5.7308C5.6646 18.5 5.59815 18.5134 5.5373 18.5396Z" stroke="#333333" stroke-width="2" stroke-linecap="round" stroke-linejoin="round"/>
<path d="M9.86597 5.0981L7.36597 9.42822L11.6961 11.9282L14.1961 7.5981L9.86597 5.0981Z" stroke="#333333" stroke-width="2" stroke-linejoin="round"/>
<path d="M13.6961 8.4639L14.1961 7.5979C13.7178 7.32175 13.1062 7.4856 12.83 7.9639L13.6961 8.4639ZM12.1961 11.062L11.33 10.562C11.0539 11.0403 11.2178 11.6519 11.6961 11.928L12.1961 11.062ZM13.1961 9.32995L19.6913 13.0799L20.6913 11.3479L14.1961 7.5979L13.1961 9.32995ZM19.1913 13.9459L12.6961 10.1959L11.6961 11.928L18.1913 15.678L19.1913 13.9459ZM13.0621 11.562L14.5621 8.9639L12.83 7.9639L11.33 10.562L13.0621 11.562ZM19.8743 13.7629C19.7362 14.0021 19.4304 14.084 19.1913 13.9459L18.1913 15.678C19.387 16.3683 20.916 15.9587 21.6063 14.7629L19.8743 13.7629ZM19.6913 13.0799C19.9304 13.218 20.0123 13.5238 19.8743 13.7629L21.6063 14.7629C22.2967 13.5672 21.887 12.0382 20.6913 11.3479L19.6913 13.0799Z" fill="#333333"/>
<path d="M15.2631 4.75L11.799 2.75C11.0816 2.33579 10.1642 2.5816 9.75 3.29904C9.33579 4.01648 9.5816 4.93386 10.299 5.34808L13.7631 7.34808C14.4806 7.76229 15.398 7.51648 15.8122 6.79904C16.2264 6.0816 15.9806 5.16421 15.2631 4.75Z" stroke="#333333" stroke-width="2" stroke-linejoin="round"/>
<path d="M11.2631 11.6782L7.79904 9.67822C7.0816 9.26401 6.16421 9.50982 5.75 10.2273C5.33579 10.9447 5.5816 11.8621 6.29904 12.2763L9.76314 14.2763C10.4806 14.6905 11.398 14.4447 11.8122 13.7273C12.2264 13.0098 11.9806 12.0924 11.2631 11.6782Z" stroke="#333333" stroke-width="2" stroke-linejoin="round"/>
</svg>
