<svg width="24" height="24" viewBox="0 0 24 24" fill="none" xmlns="http://www.w3.org/2000/svg">
<path d="M14.1559 13.9159C15.8429 12.2288 14.7792 8.42983 11.78 5.43058C8.78076 2.43136 4.98176 1.36764 3.2947 3.05471C1.60763 4.74177 2.67135 8.54078 5.67056 11.54C8.66981 14.5392 12.4688 15.6029 14.1559 13.9159Z" stroke="#333333" stroke-width="2" stroke-linecap="round" stroke-linejoin="round"/>
<path d="M14.1559 9.63102C15.8429 11.3181 14.7792 15.1171 11.78 18.1163C8.78076 21.1155 4.98177 22.1792 3.2947 20.4922C1.60763 18.8051 2.67135 15.0061 5.67056 12.0069C8.66981 9.00767 12.4688 7.94392 14.1559 9.63102Z" stroke="#333333" stroke-width="2" stroke-linecap="round" stroke-linejoin="round"/>
<path d="M9.84413 13.9159C8.15708 12.2288 9.22078 8.42983 12.22 5.43058C15.2192 2.43136 19.0182 1.36764 20.7053 3.05471C22.3923 4.74177 21.3286 8.54078 18.3294 11.54C15.3302 14.5392 11.5312 15.6029 9.84413 13.9159Z" stroke="#333333" stroke-width="2" stroke-linecap="round" stroke-linejoin="round"/>
<path d="M9.84413 9.63099C8.15708 11.318 9.22078 15.117 12.22 18.1162C15.2192 21.1155 19.0182 22.1792 20.7053 20.4921C22.3923 18.8051 21.3286 15.0061 18.3294 12.0068C15.3302 9.00764 11.5312 7.94394 9.84413 9.63099Z" stroke="#333333" stroke-width="2" stroke-linecap="round" stroke-linejoin="round"/>
</svg>
