<svg width="24" height="24" viewBox="0 0 24 24" fill="none" xmlns="http://www.w3.org/2000/svg">
<g clip-path="url(#clip0_1_15698)">
<mask id="mask0_1_15698" style="mask-type:luminance" maskUnits="userSpaceOnUse" x="0" y="0" width="24" height="24">
<path d="M24 0H0V24H24V0Z" fill="white"/>
</mask>
<g mask="url(#mask0_1_15698)">
<path d="M2.86817 12.0606L5.34305 14.5355C7.88145 17.0739 11.9971 17.0739 14.5354 14.5355C17.0738 11.997 17.0738 7.88145 14.5354 5.34305L12.0605 2.86816" stroke="#333333" stroke-width="2" stroke-linecap="round" stroke-linejoin="round"/>
<path d="M15 14.9999L17.9999 17.9999" stroke="#333333" stroke-width="2" stroke-miterlimit="2" stroke-linecap="round" stroke-linejoin="round"/>
<path d="M9.47467 9.47477C12.0131 6.93636 12.9628 3.77054 11.596 2.4037C10.2292 1.03687 7.06333 1.98661 4.52493 4.52502C1.98652 7.06343 1.03677 10.2293 2.40361 11.5961C3.77044 12.9629 6.93627 12.0132 9.47467 9.47477Z" stroke="#333333" stroke-width="2"/>
<path d="M20.0605 20.0605C21.2321 18.889 21.707 17.4644 21.1212 16.8786C20.5354 16.2928 19.1108 16.7677 17.9392 17.9392C16.7676 19.1108 16.2927 20.5354 16.8785 21.1212C17.4643 21.707 18.8889 21.2321 20.0605 20.0605Z" stroke="#333333" stroke-width="2"/>
</g>
</g>
<defs>
<clipPath id="clip0_1_15698">
<rect width="24" height="24" fill="white"/>
</clipPath>
</defs>
</svg>
