<svg width="24" height="24" viewBox="0 0 24 24" fill="none" xmlns="http://www.w3.org/2000/svg">
<path d="M4.00317 9.59865C6.22135 5.1623 10.9997 3.50005 14.2531 2.09848C15.7319 1.46143 16.0977 3.86155 15.5031 5.34835C15.0031 6.59865 14.0031 8.00005 14.0031 8.00005H18.2531C19.2196 8.00005 20.0032 8.78355 20.0032 9.75005C20.0032 10.7166 19.2196 11.5001 18.2531 11.5001H19.2532C20.2197 11.5001 21.0032 12.2836 21.0032 13.2501C21.0032 14.2166 20.2197 15.0001 19.2532 15.0001H17.2531C18.2196 15.0001 19.0032 15.7836 19.0032 16.7501C19.0032 17.7166 18.2196 18.5001 17.2531 18.5001H15.7531C16.7196 18.5001 17.5031 19.2836 17.5031 20.2501C17.5031 21.2166 16.7204 22.0001 15.7539 22.0001H9.50315C7.75315 22.0001 5.50315 21.0987 4.00317 18.5985C2.56527 16.2018 2.50317 12.5987 4.00317 9.59865Z" stroke="#333333" stroke-width="2" stroke-linecap="round" stroke-linejoin="round"/>
</svg>
