<svg width="24" height="24" viewBox="0 0 24 24" fill="none" xmlns="http://www.w3.org/2000/svg">
<g clip-path="url(#clip0_1_15987)">
<mask id="mask0_1_15987" style="mask-type:luminance" maskUnits="userSpaceOnUse" x="0" y="0" width="24" height="24">
<path d="M24 0H0V24H24V0Z" fill="white"/>
</mask>
<g mask="url(#mask0_1_15987)">
<path d="M20.6776 17.0763L14.7609 4.38802C14.0607 2.8864 12.2757 2.23673 10.7741 2.93695C9.27252 3.63716 8.62282 5.42212 9.32307 6.92372L15.2397 19.612C15.9399 21.1137 17.7249 21.7633 19.2265 21.0631C20.7281 20.3629 21.3778 18.578 20.6776 17.0763Z" stroke="#333333" stroke-width="2"/>
<path d="M11.7187 13.2678L8.76043 19.612C8.06018 21.1136 6.27528 21.7633 4.77363 21.0631C3.27201 20.3629 2.62235 18.5779 3.32256 17.0763L9.18698 4.5" stroke="#333333" stroke-width="2" stroke-linecap="round"/>
<path d="M4.77355 21.063C6.27517 21.7632 8.06011 21.1136 8.76032 19.6119C9.46054 18.1103 8.81088 16.3254 7.30926 15.6252C5.80764 14.9249 4.02269 15.5746 3.32248 17.0762C2.62226 18.5778 3.27193 20.3628 4.77355 21.063Z" stroke="#333333" stroke-width="2"/>
</g>
</g>
<defs>
<clipPath id="clip0_1_15987">
<rect width="24" height="24" fill="white"/>
</clipPath>
</defs>
</svg>
