<svg width="24" height="24" viewBox="0 0 24 24" fill="none" xmlns="http://www.w3.org/2000/svg">
<path d="M3.52661 5.00025H14.5266V2.00024H3.52661V5.00025Z" stroke="#333333" stroke-width="2" stroke-linejoin="round"/>
<path fill-rule="evenodd" clip-rule="evenodd" d="M14.5265 5.00024C17.786 8.56169 19.6563 10.6256 20.1374 11.1921C20.8591 12.0418 20.5561 13.0022 18.75 13.0022C16.9439 13.0022 15.9023 10.3595 14.5265 10.3595C14.5183 10.3578 14.5178 13.7374 14.5249 20.4982C14.5257 21.3269 13.8547 21.9993 13.026 22.0002H13.0244C12.1949 22.0002 11.5223 21.3277 11.5223 20.4981V16.4934C7.536 15.889 5.3687 15.5555 5.02055 15.493C4.49828 15.3993 3.52654 14.9007 3.52654 13.4662C3.52654 12.5099 3.52654 10.0212 3.52654 5.00024H14.5265Z" stroke="#333333" stroke-width="2" stroke-linejoin="round"/>
</svg>
