<svg width="24" height="24" viewBox="0 0 24 24" fill="none" xmlns="http://www.w3.org/2000/svg">
<path d="M14.1216 5.63598L5.63631 14.1213C5.24578 14.5118 5.24578 15.145 5.63631 15.5355L8.46473 18.3639C8.85526 18.7544 9.48842 18.7544 9.87895 18.3639L18.3642 9.87862C18.7548 9.4881 18.7548 8.85493 18.3642 8.46441L15.5358 5.63598C15.1453 5.24546 14.5121 5.24546 14.1216 5.63598Z" stroke="#333333" stroke-width="2" stroke-linejoin="round"/>
<path d="M3.51465 20.4854L7.0502 16.9498" stroke="#333333" stroke-width="2" stroke-linecap="round" stroke-linejoin="round"/>
<path d="M16.9507 7.05031L20.4862 3.51477" stroke="#333333" stroke-width="2" stroke-linecap="round" stroke-linejoin="round"/>
<path d="M7.40381 12.3535L11.6465 16.5962" stroke="#333333" stroke-width="2" stroke-linecap="round" stroke-linejoin="round"/>
<path d="M9.87891 9.87866L14.1216 14.1213" stroke="#333333" stroke-width="2" stroke-linecap="round" stroke-linejoin="round"/>
<path d="M12.3535 7.40381L16.5962 11.6465" stroke="#333333" stroke-width="2" stroke-linecap="round" stroke-linejoin="round"/>
<path d="M6.34326 13.4143L13.4144 6.34326" stroke="#333333" stroke-width="2" stroke-linecap="round" stroke-linejoin="round"/>
<path d="M10.5859 17.657L17.657 10.5859" stroke="#333333" stroke-width="2" stroke-linecap="round" stroke-linejoin="round"/>
</svg>
