<svg width="24" height="24" viewBox="0 0 24 24" fill="none" xmlns="http://www.w3.org/2000/svg">
<path d="M9 2C6.5 2 2 4 2 9.14895V12.5" stroke="#333333" stroke-width="2" stroke-linecap="round" stroke-linejoin="round"/>
<path d="M17.5 15V22" stroke="#333333" stroke-width="2" stroke-linecap="round" stroke-linejoin="round"/>
<path d="M9.00684 11C9.25004 11.75 10 13.25 12.1981 12.8692C13.4899 12.7134 16.5411 13.07 18 15.5C18.75 16.75 20.7235 16.7479 22 13.5702" stroke="#333333" stroke-width="2" stroke-linecap="round" stroke-linejoin="round"/>
<path d="M13 8.00021L12 6.75026C12 6.75026 11.1916 5.87241 10.5 5.50031C9.80835 5.12816 8.5 4.75018 7 5.50026C6.35135 5.90741 5 6.50021 5 8.97141V22.0001" stroke="#333333" stroke-width="2" stroke-linecap="round" stroke-linejoin="round"/>
<path d="M13.5 22V20.5C13.5 19.1193 12.3807 18 11 18C9.6193 18 8.5 19.1193 8.5 20.5V22" stroke="#333333" stroke-width="2" stroke-linecap="round"/>
</svg>
