<svg width="24" height="24" viewBox="0 0 24 24" fill="none" xmlns="http://www.w3.org/2000/svg">
<path fill-rule="evenodd" clip-rule="evenodd" d="M20.5358 2.99707L1.65535 8.25938L6.19279 12.9063L10.3999 12.9797L15.2413 8.25938C15.1133 7.99718 15.0492 7.77763 15.0492 7.60068C15.0492 7.20372 15.2052 6.88933 15.4473 6.66653C15.862 6.28503 16.3611 6.22793 16.9444 6.49528L20.5358 2.99707Z" fill="#333333"/>
<path fill-rule="evenodd" clip-rule="evenodd" d="M21.051 3.36426L15.7887 22.2447L11.1418 17.7072L11.0683 13.5001L15.7557 8.74085C16.0097 8.92275 16.2871 9.0053 16.5879 8.9885C17.0392 8.96325 17.3307 8.6907 17.4674 8.53015C17.6041 8.36965 17.7646 8.1026 17.7512 7.7057C17.7423 7.4411 17.6554 7.1971 17.4906 6.97365L21.051 3.36426Z" fill="#333333"/>
</svg>
