<svg width="24" height="24" viewBox="0 0 24 24" fill="none" xmlns="http://www.w3.org/2000/svg">
<path d="M18 13C18 9.79585 15.8085 6.5945 13.5 5.7635L12 4L10.5 5.7635C8.1915 6.5945 6 9.79585 6 13C6 16.2041 8.1915 19.4055 10.5 20.2365C10.9769 20.4081 11.48 22 12 22C12.52 22 13.0231 20.4081 13.5 20.2365C15.8085 19.4055 18 16.2041 18 13Z" stroke="#333333" stroke-width="2" stroke-linecap="round" stroke-linejoin="round"/>
<path d="M17.5711 2.11616C18.0767 2.18069 18.3639 2.67824 18.167 3.14838C17.9 3.78586 17.4144 4.62682 16.5981 5.09814C15.7817 5.56939 14.8106 5.56949 14.1251 5.48199C13.6194 5.41744 13.3322 4.91992 13.5291 4.44978C13.7961 3.8123 14.2817 2.97134 15.0981 2.50004C15.9144 2.02875 16.8855 2.02865 17.5711 2.11616Z" stroke="#333333" stroke-width="2"/>
</svg>
