<svg width="24" height="24" viewBox="0 0 24 24" fill="none" xmlns="http://www.w3.org/2000/svg">
<path d="M14.5013 9.18669L15.0537 8.63429L15.3189 8.36909C16.3928 7.29514 16.3928 5.55394 15.3189 4.48002C14.2449 3.40608 12.5037 3.40608 11.4298 4.48002L4.58598 11.3238C4.55809 11.3517 4.55809 11.3969 4.58598 11.4248L8.071 14.9098C8.26625 15.1051 8.58285 15.1051 8.7781 14.9098L10.6343 13.0537L11.1867 12.5012" stroke="#333333" stroke-width="2" stroke-linecap="round"/>
<path d="M14.0814 3.24264L14.9653 2.35875C15.6487 1.67534 16.7568 1.67534 17.4402 2.35875C18.1236 3.04217 18.1236 4.15021 17.4402 4.83363L16.5563 5.71751L14.0814 3.24264Z" stroke="#333333" stroke-width="2" stroke-linecap="round" stroke-linejoin="round"/>
<path d="M5.24268 12.0815L3.12134 14.2028L5.59623 16.6777L7.71753 14.5564L5.24268 12.0815Z" stroke="#333333" stroke-width="2" stroke-linecap="round" stroke-linejoin="round"/>
<path d="M11.4298 12.6118C12.3084 13.4905 13.7331 13.4905 14.6117 12.6118C15.4904 11.7332 15.4904 10.3085 14.6117 9.42986C13.7331 8.55118 12.3084 8.55118 11.4298 9.42986C10.5511 10.3085 10.5511 11.7332 11.4298 12.6118Z" stroke="#333333" stroke-width="2"/>
<path d="M3 10L9.36395 16.364" stroke="#333333" stroke-width="2" stroke-linecap="round" stroke-linejoin="round"/>
<path d="M5 22H21" stroke="#333333" stroke-width="2" stroke-linecap="round" stroke-linejoin="round"/>
<path d="M15.5 11C17.5 11 19.5 13 19.5 16C19.5 19.2 16.9167 20.9167 15.5 22" stroke="#333333" stroke-width="2" stroke-linecap="round" stroke-linejoin="round"/>
</svg>
