<svg width="24" height="24" viewBox="0 0 24 24" fill="none" xmlns="http://www.w3.org/2000/svg">
<path d="M8.49375 2C8.554 5.125 8.3923 7.2932 8.0086 8.5046C7.4331 10.3216 3.04102 15.3814 3.04102 18.051C3.04102 20.7206 6.19325 22.1946 7.8954 21.1894" stroke="#333333" stroke-width="2" stroke-linecap="round"/>
<path d="M16.001 2C15.8887 5.125 16.0243 7.2932 16.408 8.5046C16.9835 10.3216 21.4795 14.7248 21.4795 17.6462C21.4795 20.5676 18.2233 22.1946 16.5212 21.1894" stroke="#333333" stroke-width="2" stroke-linecap="round"/>
<path d="M6.50295 17.4169C7.35765 16.9307 8.10095 16.9307 8.73285 17.4169C9.6807 18.146 9.9781 20 12.0042 20C14.0304 20 15.0236 17.9213 16.0001 17.4169C16.6511 17.0805 17.3177 17.0805 18.0001 17.4169" stroke="#333333" stroke-width="2" stroke-linecap="round"/>
<path d="M10.1426 11.0728C9.7457 11.5001 9.3257 11.9766 9.01905 12.8069C8.7866 13.4363 8.74015 13.8013 8.708 14.212" stroke="#333333" stroke-width="2" stroke-linecap="round"/>
</svg>
