<svg width="24" height="24" viewBox="0 0 24 24" fill="none" xmlns="http://www.w3.org/2000/svg">
<path d="M7.5569 12.4731C6.35575 13.8459 6.14345 15.5164 6.2322 16.6781C6.27435 17.2303 6.83445 17.5347 7.34885 17.3294C7.72105 17.1809 8.1287 16.9955 8.42225 16.7998C9.2876 16.2229 8.99915 15.646 9.2876 14.7807C9.57605 13.9153 10.8462 13.2114 12 13.4999C13.1538 13.7883 13.6143 14.7807 13.6143 15.646C13.6143 16.5114 13.25 17.4999 12.1721 17.9536C10.9831 18.4541 10.4414 17.9536 8.99915 17.6652C8.24755 17.5149 7.496 18.1723 7.06335 18.649C6.81835 18.9189 6.7921 19.3117 7.0046 19.6078C7.14895 19.8089 7.33515 20.0395 7.5569 20.2612C8.1338 20.8381 10.4414 22.5688 12.749 22.2804C15.0565 21.9919 17.0757 20.2612 17.941 18.2421C18.8064 16.2229 18.2295 13.9153 16.7872 12.1846C15.345 10.454 12.749 10.1655 12.1721 10.1655C11.5952 10.1655 9.57605 10.1655 7.5569 12.4731Z" stroke="#333333" stroke-width="2" stroke-linecap="round" stroke-linejoin="round"/>
<path d="M15.7811 11.3192L6.32164 4.08544C6.12254 3.93321 5.83804 3.94993 5.68959 4.15184C5.33314 4.63669 4.99644 5.40539 5.53774 6.12714C6.22999 7.05014 8.90294 9.39619 10.1528 10.4538" stroke="#333333" stroke-width="2" stroke-linecap="round" stroke-linejoin="round"/>
<path d="M17.5003 12.9999L11.5707 2.09904C11.451 1.87902 11.1846 1.77829 10.9667 1.90194C10.4434 2.19903 9.82201 2.76343 10.0216 3.64336C10.2769 4.76857 11.2909 6.77414 12.0003 8.24989" stroke="#333333" stroke-width="2" stroke-linecap="round" stroke-linejoin="round"/>
<path d="M18 14.0001L17.5252 3.84616C17.5135 3.59613 17.3179 3.38932 17.0681 3.40528C16.4675 3.44366 15.6616 3.67962 15.4565 4.55849C15.1943 5.68211 15.0069 7.3627 15 9.00005" stroke="#333333" stroke-width="2" stroke-linecap="round" stroke-linejoin="round"/>
</svg>
