<svg width="24" height="24" viewBox="0 0 24 24" fill="none" xmlns="http://www.w3.org/2000/svg">
<path d="M5.49999 20.0001L3.46974 15.6012C2.92248 14.4155 3.38007 13.0083 4.52009 12.3712L10.1485 9.22585C10.6662 8.93655 11.3058 8.97945 11.7803 9.33525L12.2935 9.7202C12.6044 9.9534 13.0509 9.75825 13.0908 9.37165L13.6854 3.62471C13.7267 3.22508 13.9266 2.85873 14.2404 2.60775L14.3481 2.52152C14.7192 2.22465 15.2542 2.25427 15.5902 2.59031C15.8526 2.85266 16 3.20849 16 3.57952V14.7098C16 15.129 16.4847 15.3623 16.8121 15.1004L18.5 13.7501C19.3264 13.0889 20.4374 13.5206 21.1275 13.9726C21.3468 14.1162 21.3793 14.4133 21.2235 14.6242L17.25 20.0001C17.25 20.0001 15.5 22.0001 11.5 22.0001C7.49999 22.0001 5.83334 20.6667 5.49999 20.0001Z" stroke="#333333" stroke-width="2"/>
</svg>
