<svg width="24" height="24" viewBox="0 0 24 24" fill="none" xmlns="http://www.w3.org/2000/svg">
<path d="M13.9734 8.41406L20.3784 3.86856C20.8366 3.54343 21.4768 3.70347 21.728 4.20596C21.8928 4.53563 21.844 4.93199 21.6042 5.21186L20.5 6.50001L17.8621 10.0173C17.6394 10.3142 17.5995 10.71 17.7583 11.0454L21.3236 18.5719C21.6378 19.2354 21.1539 20 20.4198 20H16.3182C15.8422 20 15.4323 19.6646 15.338 19.1981L13.7599 11.387L13.557 9.32766C13.5218 8.97046 13.6807 8.62181 13.9734 8.41406Z" stroke="#333333" stroke-width="2" stroke-linecap="round" stroke-linejoin="round"/>
<path d="M14 11.5L17.5 10.5" stroke="#333333" stroke-width="2" stroke-linecap="round" stroke-linejoin="round"/>
<path d="M9.96795 8.55141L3.60431 4.09788C3.15313 3.78213 2.52694 3.93858 2.27728 4.42943C2.10973 4.75885 2.15907 5.15701 2.40195 5.43556L3.5 6.69491L6.11615 10.0131C6.3513 10.3114 6.39715 10.7171 6.2346 11.0604L2.67646 18.5719C2.3622 19.2354 2.84609 20 3.5802 20H7.661C8.14625 20 8.56145 19.6517 8.6458 19.1738L10 11.5L10.3763 9.56121C10.4515 9.17351 10.2916 8.77786 9.96795 8.55141Z" stroke="#333333" stroke-width="2" stroke-linecap="round" stroke-linejoin="round"/>
<path d="M6.5 10.5L10 11.5" stroke="#333333" stroke-width="2" stroke-linecap="round" stroke-linejoin="round"/>
</svg>
