<svg width="24" height="24" viewBox="0 0 24 24" fill="none" xmlns="http://www.w3.org/2000/svg">
<path d="M20.8898 10.3033C21.0162 9.4554 20.9747 8.58735 20.7654 7.7527C20.489 6.6501 19.9196 5.6059 19.0573 4.74365C18.1951 3.88141 17.1509 3.31205 16.0483 3.03558C15.2137 2.82629 14.3456 2.78484 13.4977 2.91123" stroke="#333333" stroke-width="2" stroke-linecap="round" stroke-linejoin="round"/>
<path d="M17.0948 9.90173C17.2302 8.99343 16.9483 8.03493 16.2491 7.33573C15.5499 6.63653 14.5914 6.35458 13.6831 6.48998" stroke="#333333" stroke-width="2" stroke-linecap="round" stroke-linejoin="round"/>
<path d="M7.18778 4.39709C7.55108 4.39709 7.88578 4.5941 8.06208 4.91172L9.28533 7.11513C9.44548 7.40363 9.45298 7.75258 9.30543 8.04773L8.12703 10.4045C8.12703 10.4045 8.46853 12.1603 9.89773 13.5895C11.3269 15.0187 13.0768 15.3543 13.0768 15.3543L15.4332 14.1761C15.7286 14.0284 16.0778 14.036 16.3664 14.1965L18.576 15.425C18.8933 15.6014 19.0901 15.9359 19.0901 16.299V18.8357C19.0901 20.1276 17.8902 21.0606 16.6661 20.6476C14.1522 19.7993 10.2498 18.1842 7.77643 15.7108C5.30298 13.2374 3.68788 9.33503 2.83961 6.82108C2.4266 5.59703 3.35964 4.39709 4.65147 4.39709H7.18778Z" stroke="#333333" stroke-width="2" stroke-linejoin="round"/>
</svg>
