<svg width="24" height="24" viewBox="0 0 24 24" fill="none" xmlns="http://www.w3.org/2000/svg">
<path d="M7.99808 4.3429C8.36138 4.3429 8.69608 4.53991 8.87243 4.85753L10.0956 7.06093C10.2558 7.34943 10.2633 7.69838 10.1157 7.99353L8.93733 10.3504C8.93733 10.3504 9.27883 12.1061 10.708 13.5353C12.1372 14.9645 13.8871 15.3001 13.8871 15.3001L16.2435 14.1219C16.5389 13.9742 16.8881 13.9818 17.1767 14.1423L19.3863 15.3708C19.7036 15.5472 19.9004 15.8817 19.9004 16.2448V18.7815C19.9004 20.0734 18.7005 21.0064 17.4764 20.5934C14.9625 19.7451 11.0601 18.13 8.58673 15.6566C6.11328 13.1832 4.49818 9.28083 3.64991 6.76688C3.2369 5.54283 4.16995 4.3429 5.46178 4.3429H7.99808Z" stroke="#333333" stroke-width="2" stroke-linejoin="round"/>
<path opacity="0.01" d="M20.5 3.5H14V10H20.5V3.5Z" fill="#333333"/>
<path d="M19.5 4.5L15 9" stroke="#333333" stroke-width="2" stroke-linecap="round" stroke-linejoin="round"/>
<path d="M15 4.5L19.5 9" stroke="#333333" stroke-width="2" stroke-linecap="round" stroke-linejoin="round"/>
</svg>
