<svg width="24" height="24" viewBox="0 0 24 24" fill="none" xmlns="http://www.w3.org/2000/svg">
<path d="M7.68778 4.89709C8.05108 4.89709 8.38578 5.09411 8.56208 5.41171L9.78533 7.61516C9.94548 7.90366 9.95298 8.25256 9.80543 8.54771L8.62703 10.9046C8.62703 10.9046 8.96853 12.6603 10.3977 14.0895C11.8269 15.5187 13.5768 15.8543 13.5768 15.8543L15.9332 14.6761C16.2286 14.5284 16.5778 14.5361 16.8664 14.6965L19.076 15.925C19.3933 16.1014 19.5901 16.436 19.5901 16.799V19.3358C19.5901 20.6276 18.3902 21.5606 17.1661 21.1476C14.6522 20.2993 10.7498 18.6842 8.27643 16.2108C5.80298 13.7374 4.18788 9.83506 3.33961 7.32106C2.9266 6.09706 3.85964 4.89709 5.15148 4.89709H7.68778Z" stroke="#333333" stroke-width="2" stroke-linejoin="round"/>
<path d="M14.5 9.99998L21 3.75" stroke="#333333" stroke-width="2" stroke-linecap="round" stroke-linejoin="round"/>
<path d="M21 9.99998H14.5V3.5" stroke="#333333" stroke-width="2" stroke-linecap="round" stroke-linejoin="round"/>
</svg>
