<svg width="24" height="24" viewBox="0 0 24 24" fill="none" xmlns="http://www.w3.org/2000/svg">
<path d="M14 10L20.5 3.75" stroke="#333333" stroke-width="2" stroke-linecap="round" stroke-linejoin="round"/>
<path d="M14 3.5H20.5V10" stroke="#333333" stroke-width="2" stroke-linecap="round" stroke-linejoin="round"/>
<path d="M7.18778 4.89709C7.55108 4.89709 7.88578 5.09413 8.06208 5.41173L9.28533 7.61513C9.44548 7.90363 9.45298 8.25258 9.30543 8.54773L8.12703 10.9046C8.12703 10.9046 8.46853 12.6603 9.89773 14.0895C11.3269 15.5187 13.0768 15.8543 13.0768 15.8543L15.4332 14.6761C15.7286 14.5284 16.0778 14.536 16.3664 14.6965L18.576 15.925C18.8933 16.1014 19.0901 16.4359 19.0901 16.799V19.3357C19.0901 20.6276 17.8902 21.5606 16.6661 21.1476C14.1522 20.2993 10.2498 18.6842 7.77643 16.2108C5.30298 13.7374 3.68788 9.83503 2.83961 7.32108C2.4266 6.09703 3.35964 4.89709 4.65146 4.89709H7.18778Z" stroke="#333333" stroke-width="2" stroke-linejoin="round"/>
</svg>
