<svg width="24" height="24" viewBox="0 0 24 24" fill="none" xmlns="http://www.w3.org/2000/svg">
<path d="M7.18786 4.89709C7.55116 4.89709 7.88586 5.09409 8.06216 5.41174L9.28536 7.61514C9.44556 7.90364 9.45306 8.25259 9.30551 8.54774L8.12706 10.9045C8.12706 10.9045 8.46856 12.6602 9.89781 14.0895C11.327 15.5187 13.0768 15.8543 13.0768 15.8543L15.4333 14.6761C15.7287 14.5284 16.0778 14.536 16.3664 14.6965L18.5761 15.925C18.8934 16.1014 19.0902 16.4359 19.0902 16.799V19.3357C19.0902 20.6276 17.8902 21.5606 16.6662 21.1476C14.1522 20.2993 10.2499 18.6842 7.77646 16.2108C5.30306 13.7374 3.68794 9.83505 2.83967 7.32109C2.42666 6.09704 3.35971 4.89709 4.65153 4.89709H7.18786Z" stroke="#333333" stroke-width="2" stroke-linejoin="round"/>
<path d="M19.5 7.5H13.5V2.5H19.5V4L22 3V7L19.5 6V7.5Z" stroke="#333333" stroke-width="2" stroke-linecap="round" stroke-linejoin="round"/>
</svg>
