<svg width="24" height="24" viewBox="0 0 24 24" fill="none" xmlns="http://www.w3.org/2000/svg">
<path d="M6.68778 4.89709C7.05108 4.89709 7.38578 5.09413 7.56208 5.41173L8.78533 7.61513C8.94548 7.90363 8.95298 8.25258 8.80543 8.54773L7.62703 10.9046C7.62703 10.9046 7.96853 12.6603 9.39773 14.0895C10.8269 15.5187 12.5768 15.8543 12.5768 15.8543L14.9332 14.6761C15.2286 14.5284 15.5778 14.536 15.8664 14.6965L18.076 15.925C18.3933 16.1014 18.5901 16.4359 18.5901 16.799V19.3357C18.5901 20.6276 17.3902 21.5606 16.1661 21.1476C13.6522 20.2993 9.74983 18.6842 7.27643 16.2108C4.80299 13.7374 3.18788 9.83503 2.33961 7.32108C1.9266 6.09703 2.85964 4.89709 4.15146 4.89709H6.68778Z" stroke="#333333" stroke-width="2" stroke-linejoin="round"/>
<path d="M17.1201 3L13.1201 7L17.1201 11" stroke="#333333" stroke-width="2" stroke-linecap="round" stroke-linejoin="round"/>
<path d="M21.1201 7.00415H13.1201" stroke="#333333" stroke-width="2" stroke-linecap="round" stroke-linejoin="round"/>
</svg>
