<svg width="24" height="24" viewBox="0 0 24 24" fill="none" xmlns="http://www.w3.org/2000/svg">
<path d="M9.7219 10.7501C9.5085 10.2163 9.43735 9.85037 9.43735 9.85037L10.6158 7.49352C10.7633 7.19837 10.7558 6.84942 10.5957 6.56092L9.3724 4.35753C9.1961 4.03991 8.8614 3.8429 8.4981 3.8429H5.9618C4.66997 3.8429 3.73727 5.04402 4.15032 6.26802C4.75605 8.06302 5.7526 10.5654 7.17325 12.7501M13.3386 14.4558C13.9521 14.7167 14.3871 14.8001 14.3871 14.8001L16.7436 13.6219C17.0389 13.4742 17.3881 13.4818 17.6767 13.6423L19.8864 14.8708C20.2037 15.0472 20.4005 15.3817 20.4005 15.7448V18.2816C20.4005 19.5734 19.1987 20.5059 17.9747 20.0928C16.1011 19.4605 13.4571 18.4025 11.2081 16.8809" stroke="#333333" stroke-width="2" stroke-linecap="round" stroke-linejoin="round"/>
<path d="M20 4L4 20" stroke="#333333" stroke-width="2" stroke-linecap="round" stroke-linejoin="round"/>
</svg>
