<svg width="24" height="24" viewBox="0 0 24 24" fill="none" xmlns="http://www.w3.org/2000/svg">
<g clip-path="url(#clip0_1_15133)">
<mask id="mask0_1_15133" style="mask-type:luminance" maskUnits="userSpaceOnUse" x="0" y="0" width="24" height="24">
<path d="M24 0H0V24H24V0Z" fill="white"/>
</mask>
<g mask="url(#mask0_1_15133)">
<path d="M17 6.5V3C17 2.44771 16.5523 2 16 2H4C3.44771 2 3 2.44771 3 3V17C3 17.5523 3.44771 18 4 18H11.5" stroke="#333333" stroke-width="2" stroke-linecap="round" stroke-linejoin="round"/>
<path d="M14.0002 20.9999C10.5 18.9999 12.1659 16.1128 11.4886 15.4999C10.6623 14.7522 10.1937 14.056 9.99979 12.9999C9.80589 11.9438 10.535 10.7368 11.4887 11.4999C12.4423 12.2631 14 15.4999 14 15.4999L15 14.4999L15.5 8.99994C15.5 8.99994 15 6.99994 15 5.99994C15 4.99993 17 6.49994 18 7.99994C18 13.2208 18.7497 17.9999 20.9996 21.9999" stroke="#333333" stroke-width="2" stroke-linecap="round" stroke-linejoin="round"/>
<path d="M12.5 8.7L10.5 5.5L6.5 13.5H10" stroke="#333333" stroke-width="2" stroke-linecap="round" stroke-linejoin="round"/>
<path d="M3 11L6 5.5L8.5 9" stroke="#333333" stroke-width="2" stroke-linecap="round" stroke-linejoin="round"/>
</g>
</g>
<defs>
<clipPath id="clip0_1_15133">
<rect width="24" height="24" fill="white"/>
</clipPath>
</defs>
</svg>
