<svg width="24" height="24" viewBox="0 0 24 24" fill="none" xmlns="http://www.w3.org/2000/svg">
<path fill-rule="evenodd" clip-rule="evenodd" d="M9.42665 4.55793C5.66135 6.97605 3.56957 9.79055 3.15128 13.0014C2.50011 17.9999 6.9702 20.4466 9.23515 18.2483C11.5001 16.05 10.1424 13.2597 8.50235 12.497C6.8623 11.7343 5.85935 11.9999 6.0343 10.9807C6.20925 9.9615 8.54255 7.1356 10.5925 5.81955C10.7285 5.7039 10.7802 5.4795 10.6493 5.30925C10.5631 5.1973 10.3942 4.97772 10.1424 4.65051C9.92225 4.36437 9.71135 4.37508 9.42665 4.55793Z" fill="#333333"/>
<path fill-rule="evenodd" clip-rule="evenodd" d="M19.3395 4.55793C15.5742 6.97605 13.4824 9.79055 13.0641 13.0014C12.413 17.9999 16.8831 20.4466 19.148 18.2483C21.413 16.05 20.0553 13.2597 18.4152 12.497C16.7752 11.7343 15.7722 11.9999 15.9472 10.9807C16.1221 9.9615 18.4554 7.1356 20.5053 5.81955C20.6413 5.7039 20.6931 5.4795 20.5621 5.30925C20.476 5.1973 20.307 4.97772 20.0553 4.65051C19.8351 4.36437 19.6242 4.37508 19.3395 4.55793Z" fill="#333333"/>
</svg>
