<svg width="24" height="24" viewBox="0 0 24 24" fill="none" xmlns="http://www.w3.org/2000/svg">
<g clip-path="url(#clip0_1_15060)">
<mask id="mask0_1_15060" style="mask-type:luminance" maskUnits="userSpaceOnUse" x="0" y="0" width="24" height="24">
<path d="M24 0H0V24H24V0Z" fill="white"/>
</mask>
<g mask="url(#mask0_1_15060)">
<path d="M11.502 11.9943C13.8289 13.9468 17.298 13.6433 19.2505 11.3164C21.203 8.98947 20.8995 5.52031 18.5726 3.5678C16.2457 1.61529 12.7766 1.9188 10.824 4.24572C8.87153 6.57263 9.17504 10.0418 11.502 11.9943Z" stroke="#333333" stroke-width="2" stroke-linecap="round" stroke-linejoin="round"/>
<path d="M10.8243 4.24563C8.51948 4.26981 7.66103 2.57039 6.53613 3.91097C5.51978 5.12219 6.78263 6.72864 5.81848 7.87769" stroke="#333333" stroke-width="2" stroke-linecap="round" stroke-linejoin="round"/>
<path d="M12.6511 12.9584C12.6511 12.9584 10.562 15.448 9.75854 16.4056C8.95504 17.3632 8.91759 18.9635 7.95344 20.1126C6.98924 21.2616 5.58044 21.3849 4.43135 20.4207C3.28228 19.4565 3.15903 18.0477 4.12321 16.8986C5.08739 15.7496 6.65694 15.4348 7.46039 14.4772C8.26389 13.5197 10.0418 11.5305 10.3529 11.03" stroke="#333333" stroke-width="2" stroke-linecap="round" stroke-linejoin="round"/>
<path d="M4.65576 10.8187C5.29037 11.3512 6.23651 11.2684 6.76901 10.6338C7.30151 9.99921 7.21874 9.05308 6.58413 8.52058C5.94951 7.98808 5.00338 8.07085 4.47088 8.70546C3.93837 9.34008 4.02115 10.2862 4.65576 10.8187Z" stroke="#333333" stroke-width="2" stroke-linecap="round" stroke-linejoin="round"/>
<path d="M13.2671 20.0025C13.9017 20.5351 14.8478 20.4523 15.3803 19.8177C15.9128 19.1831 15.8301 18.2369 15.1955 17.7044C14.5608 17.1719 13.6147 17.2547 13.0822 17.8893C12.5497 18.5239 12.6325 19.47 13.2671 20.0025Z" stroke="#333333" stroke-width="2" stroke-linecap="round" stroke-linejoin="round"/>
<path d="M18.6079 12.0825C18.9227 13.652 20.0343 16.2166 19.0393 17.0134C18.0443 17.8103 15.777 16.2341 15.1958 17.7046" stroke="#333333" stroke-width="2" stroke-linecap="round" stroke-linejoin="round"/>
</g>
</g>
<defs>
<clipPath id="clip0_1_15060">
<rect width="24" height="24" fill="white"/>
</clipPath>
</defs>
</svg>
