<svg width="24" height="24" viewBox="0 0 24 24" fill="none" xmlns="http://www.w3.org/2000/svg">
<path d="M4.92876 15.5355C4.53823 15.145 4.53823 14.5118 4.92876 14.1213L6.40362 12.6464C6.59117 12.4589 6.84552 12.3535 7.11072 12.3535H8.40362C8.66887 12.3535 8.92322 12.2482 9.11077 12.0606L12.0605 9.11086C12.248 8.92336 12.3534 8.66896 12.3534 8.40376V7.11085C12.3534 6.84565 12.4587 6.59131 12.6463 6.40376L14.1211 4.92888C14.5117 4.53836 15.1448 4.53836 15.5354 4.92888L19.0709 8.46441C19.4614 8.85496 19.4614 9.48811 19.0709 9.87861L17.596 11.3535C17.4085 11.5411 17.1541 11.6464 16.8889 11.6464H15.596C15.3308 11.6464 15.0765 11.7518 14.8889 11.9393L11.9392 14.8891C11.7516 15.0766 11.6463 15.331 11.6463 15.5962V16.8891C11.6463 17.1543 11.5409 17.4086 11.3534 17.5962L9.87852 19.071C9.48797 19.4616 8.85482 19.4616 8.46427 19.071L4.92876 15.5355Z" stroke="#333333" stroke-width="2" stroke-linejoin="round"/>
<path d="M3.51465 20.4852L6.69665 17.3032" stroke="#333333" stroke-width="2" stroke-linecap="round" stroke-linejoin="round"/>
<path d="M17.3037 6.69664L20.4857 3.51465" stroke="#333333" stroke-width="2" stroke-linecap="round" stroke-linejoin="round"/>
</svg>
