<svg width="24" height="24" viewBox="0 0 24 24" fill="none" xmlns="http://www.w3.org/2000/svg">
<path d="M22 20.9999H15.5L14.0222 14.1035C14.0075 14.0346 14 13.9644 14 13.894V7.49991L10.2848 4.5179C9.85467 4.17263 9.79362 3.54069 10.1497 3.11945C10.4537 2.75993 10.9702 2.667 11.3804 2.89803L16 5.49991L17.9738 12.9015C17.9912 12.9669 18.0153 13.0305 18.0456 13.091L22 20.9999Z" stroke="#333333" stroke-width="2" stroke-linecap="round" stroke-linejoin="round"/>
<path d="M18 13L14 14" stroke="#333333" stroke-width="2" stroke-linecap="round" stroke-linejoin="round"/>
<path d="M9.6895 12.7605L9.72145 12.7872C10.1931 13.1816 10.9056 13.0609 11.2212 12.5332L12 11.2308V8.8846L10.16 7.5L6.98 7.92305L4.90727 11.9708C4.88247 12.0192 4.86165 12.0697 4.84505 12.1215L2 21H7.98V14.5L8.5 12.0436L8.75 11H9.5L9.34815 11.8088C9.28135 12.1644 9.4119 12.5284 9.6895 12.7605Z" stroke="#333333" stroke-width="2" stroke-linecap="round" stroke-linejoin="round"/>
<path d="M5 12.5L8 14" stroke="#333333" stroke-width="2" stroke-linecap="round" stroke-linejoin="round"/>
</svg>
