<svg width="24" height="24" viewBox="0 0 24 24" fill="none" xmlns="http://www.w3.org/2000/svg">
<path d="M12.0002 5.8095C13.0467 5.8095 13.895 4.95673 13.895 3.90476C13.895 2.85279 13.0467 2 12.0002 2C10.9538 2 10.1055 2.85279 10.1055 3.90476C10.1055 4.95673 10.9538 5.8095 12.0002 5.8095Z" stroke="#333333" stroke-width="2" stroke-linejoin="round"/>
<path d="M4.89473 20.0952C5.94115 20.0952 6.78945 19.2424 6.78945 18.1904C6.78945 17.1384 5.94115 16.2856 4.89473 16.2856C3.8483 16.2856 3 17.1384 3 18.1904C3 19.2424 3.8483 20.0952 4.89473 20.0952Z" stroke="#333333" stroke-width="2" stroke-linejoin="round"/>
<path d="M19.1052 20.0952C20.1516 20.0952 20.9999 19.2424 20.9999 18.1904C20.9999 17.1384 20.1516 16.2856 19.1052 16.2856C18.0587 16.2856 17.2104 17.1384 17.2104 18.1904C17.2104 19.2424 18.0587 20.0952 19.1052 20.0952Z" stroke="#333333" stroke-width="2" stroke-linejoin="round"/>
<path d="M16.5713 5.15698C19.222 6.73133 21 9.63308 21 12.9523C21 13.2407 20.9866 13.526 20.9603 13.8075" stroke="#333333" stroke-width="2" stroke-linecap="round" stroke-linejoin="round"/>
<path d="M15.507 21.2876C14.4292 21.7464 13.2441 22.0001 12 22.0001C10.756 22.0001 9.5709 21.7464 8.49315 21.2876" stroke="#333333" stroke-width="2" stroke-linecap="round" stroke-linejoin="round"/>
<path d="M3.03968 13.8075C3.01343 13.526 3 13.2407 3 12.9523C3 9.63308 4.77795 6.73133 7.42865 5.15698" stroke="#333333" stroke-width="2" stroke-linecap="round" stroke-linejoin="round"/>
</svg>
