<svg width="24" height="24" viewBox="0 0 24 24" fill="none" xmlns="http://www.w3.org/2000/svg">
<path d="M11.9998 5.63635C13.004 5.63635 13.818 4.82234 13.818 3.81818C13.818 2.81403 13.004 2 11.9998 2C10.9957 2 10.1817 2.81403 10.1817 3.81818C10.1817 4.82234 10.9957 5.63635 11.9998 5.63635Z" stroke="#333333" stroke-width="2" stroke-linejoin="round"/>
<path d="M11.9998 22.0001C13.004 22.0001 13.818 21.1861 13.818 20.182C13.818 19.1778 13.004 18.3638 11.9998 18.3638C10.9957 18.3638 10.1817 19.1778 10.1817 20.182C10.1817 21.1861 10.9957 22.0001 11.9998 22.0001Z" stroke="#333333" stroke-width="2" stroke-linejoin="round"/>
<path d="M3.81818 13.818C4.82234 13.818 5.63635 13.004 5.63635 11.9998C5.63635 10.9957 4.82234 10.1816 3.81818 10.1816C2.81403 10.1816 2 10.9957 2 11.9998C2 13.004 2.81403 13.818 3.81818 13.818Z" stroke="#333333" stroke-width="2" stroke-linejoin="round"/>
<path d="M20.182 13.818C21.1861 13.818 22.0002 13.004 22.0002 11.9998C22.0002 10.9957 21.1861 10.1816 20.182 10.1816C19.1778 10.1816 18.3638 10.9957 18.3638 11.9998C18.3638 13.004 19.1778 13.818 20.182 13.818Z" stroke="#333333" stroke-width="2" stroke-linejoin="round"/>
<path d="M16.3672 5.07983C17.3961 5.73043 18.2698 6.60418 18.9204 7.63298" stroke="#333333" stroke-width="2" stroke-linecap="round" stroke-linejoin="round"/>
<path d="M18.9204 16.3669C18.2698 17.3958 17.3961 18.2695 16.3672 18.9201" stroke="#333333" stroke-width="2" stroke-linecap="round" stroke-linejoin="round"/>
<path d="M7.63324 18.9201C6.60439 18.2695 5.73069 17.3958 5.08009 16.3669" stroke="#333333" stroke-width="2" stroke-linecap="round" stroke-linejoin="round"/>
<path d="M5.08009 7.63298C5.73069 6.60418 6.60439 5.73043 7.63324 5.07983" stroke="#333333" stroke-width="2" stroke-linecap="round" stroke-linejoin="round"/>
</svg>
