<svg width="24" height="24" viewBox="0 0 24 24" fill="none" xmlns="http://www.w3.org/2000/svg">
<g clip-path="url(#clip0_1_16139)">
<mask id="mask0_1_16139" style="mask-type:luminance" maskUnits="userSpaceOnUse" x="0" y="0" width="24" height="24">
<path d="M24 0H0V24H24V0Z" fill="white"/>
</mask>
<g mask="url(#mask0_1_16139)">
<path d="M8.89941 20.071C8.89941 20.071 10.9792 22.1507 13.2253 21.5684C15.4714 20.9861 21.1282 15.3292 21.7106 13.0831C22.2929 10.837 20.2131 8.75732 20.2131 8.75732" stroke="#333333" stroke-width="2" stroke-linecap="round" stroke-linejoin="round"/>
<path d="M3.94971 15.1213C3.94971 15.1213 1.86998 13.0415 2.45231 10.7954C3.03463 8.54933 8.6915 2.89248 10.9376 2.31015C13.1837 1.72783 15.2634 3.80756 15.2634 3.80756" stroke="#333333" stroke-width="2" stroke-linecap="round" stroke-linejoin="round"/>
<path d="M14.2029 4.86838L5.01052 14.0608C3.64368 15.4276 3.64368 17.6437 5.01052 19.0105C6.37735 20.3774 8.59343 20.3774 9.96027 19.0105L19.1527 9.81813C20.5195 8.4513 20.5195 6.23522 19.1527 4.86838C17.7858 3.50155 15.5697 3.50155 14.2029 4.86838Z" stroke="#333333" stroke-width="2" stroke-linecap="round" stroke-linejoin="round"/>
<path d="M7.83896 16.8892L8.12031 16.045C8.39111 15.2327 8.99641 14.5748 9.78351 14.2375L9.99331 14.1476C10.647 13.8675 11.1496 13.3212 11.3745 12.6465C11.5994 11.9719 12.102 11.4256 12.7557 11.1454L13.2304 10.942C13.849 10.6769 14.3247 10.1599 14.5375 9.52148C14.772 8.81793 15.3241 8.26588 16.0276 8.03138L17.0314 7.69678" stroke="#333333" stroke-width="2" stroke-linecap="round" stroke-linejoin="round"/>
</g>
</g>
<defs>
<clipPath id="clip0_1_16139">
<rect width="24" height="24" fill="white"/>
</clipPath>
</defs>
</svg>
