<svg width="24" height="24" viewBox="0 0 24 24" fill="none" xmlns="http://www.w3.org/2000/svg">
<g clip-path="url(#clip0_1_14987)">
<mask id="mask0_1_14987" style="mask-type:luminance" maskUnits="userSpaceOnUse" x="0" y="0" width="24" height="24">
<path d="M24 0H0V24H24V0Z" fill="white"/>
</mask>
<g mask="url(#mask0_1_14987)">
<path d="M10.0001 12C10.0001 12 11.2498 9.74999 11.4998 7.49999C11.7498 5.24999 10.9999 3.50001 10.9999 3.50001L13.5 2C13.5 2 13.9996 5.00001 13.9996 6.49999" stroke="#333333" stroke-width="2" stroke-linecap="round" stroke-linejoin="round"/>
<path d="M3 21.5C1.99978 20.75 2.00064 18.0447 4.00026 16.5C5.99988 14.9552 6.09293 15.3586 8.50003 13.5C10.9071 11.6413 17 2 17 2L19.2501 3.75L13.1552 11.8701C11.6629 13.8583 11.2758 16.5264 10.0254 18.6751C9.05058 20.3501 7.99998 21 6.99998 21.5C5.99998 22 4.00021 22.25 3 21.5Z" stroke="#333333" stroke-width="2" stroke-linecap="round" stroke-linejoin="round"/>
<path d="M11.5001 15C11.5001 15 13 14 14.9999 13C16.9999 12 21.5 12 21.5 12L20 8.5C20 8.5 15.9998 8.5 14.5001 10" stroke="#333333" stroke-width="2" stroke-linecap="round" stroke-linejoin="round"/>
</g>
</g>
<defs>
<clipPath id="clip0_1_14987">
<rect width="24" height="24" fill="white"/>
</clipPath>
</defs>
</svg>
