<svg width="24" height="24" viewBox="0 0 24 24" fill="none" xmlns="http://www.w3.org/2000/svg">
<path d="M12 21V13" stroke="#333333" stroke-width="2" stroke-linecap="round" stroke-linejoin="round"/>
<path d="M20.9708 5.00343C20.5831 11.5157 16.4057 13.6216 12.9979 13.9515C12.4482 14.0047 12 13.5521 12 12.9998V8.81383C12 8.69768 12.0204 8.58023 12.0623 8.47193C13.5588 4.59945 17.1415 4.07753 20.0007 4.0098C20.5528 3.99672 21.0036 4.45209 20.9708 5.00343Z" stroke="#333333" stroke-width="2" stroke-linecap="round" stroke-linejoin="round"/>
<path d="M3.99916 3.03597C8.66324 3.37823 11.0975 6.08149 11.9169 7.81484C11.9742 7.93604 12 8.06904 12 8.20309V11.955C12 12.5245 11.5196 12.9822 10.9529 12.9251C3.66848 12.1918 3.05546 7.39314 3.00451 3.99929C2.99622 3.44707 3.44836 2.99555 3.99916 3.03597Z" stroke="#333333" stroke-width="2" stroke-linecap="round" stroke-linejoin="round"/>
</svg>
