<svg width="24" height="24" viewBox="0 0 24 24" fill="none" xmlns="http://www.w3.org/2000/svg">
<path d="M14.5 7C15.8807 7 17 5.8807 17 4.5C17 3.11929 15.8807 2 14.5 2C13.1193 2 12 3.11929 12 4.5C12 5.8807 13.1193 7 14.5 7Z" stroke="#333333" stroke-width="2" stroke-miterlimit="2"/>
<path d="M12 9.5L9.855 13.5L13.655 16.51C13.81 16.63 13.92 16.795 13.985 16.98L15.655 22" stroke="#333333" stroke-width="2" stroke-miterlimit="2" stroke-linecap="round" stroke-linejoin="round"/>
<path d="M9.855 13.5L7.255 17.32C6.4866 18.4441 5.25 19.75 4.75 20.5" stroke="#333333" stroke-width="2" stroke-miterlimit="2" stroke-linecap="round" stroke-linejoin="round"/>
<path d="M21 11.9999L17.53 12.0499C17.35 12.0499 17.17 12.0049 17.01 11.9149L15.375 10.9599C13.37 9.78491 11.175 8.97991 8.89 8.56991L7.28 8.28491L6 10.4999" stroke="#333333" stroke-width="2" stroke-miterlimit="2" stroke-linecap="round" stroke-linejoin="round"/>
<path d="M7.5126 11.3912L4.32617 9.55151L2.07617 13.4486L5.2626 15.2883L7.5126 11.3912Z" stroke="#333333" stroke-width="2" stroke-linejoin="round"/>
</svg>
