<svg width="24" height="24" viewBox="0 0 24 24" fill="none" xmlns="http://www.w3.org/2000/svg">
<path d="M10.3923 9.36503C10.5327 9.22468 10.7602 9.22468 10.9006 9.36503L14.635 13.0994C14.7753 13.2398 14.7753 13.4673 14.635 13.6077L8.87869 19.364C7.70714 20.5355 5.80764 20.5355 4.63606 19.364C3.46449 18.1924 3.46449 16.2929 4.63606 15.1213L10.3923 9.36503Z" stroke="#333333" stroke-width="2"/>
<path d="M21.2907 11.1945C21.4651 11.02 21.4651 10.7371 21.2907 10.5626L13.4373 2.70924C13.2628 2.53475 12.9799 2.53475 12.8054 2.70924L12.4142 3.1004C10.0711 5.44354 10.0711 9.24254 12.4142 11.5857C14.7573 13.9288 18.5563 13.9288 20.8995 11.5857L21.2907 11.1945Z" stroke="#333333" stroke-width="2"/>
<path d="M9.93933 14.0605L9.23218 14.7676" stroke="#333333" stroke-width="2" stroke-linecap="round" stroke-linejoin="round"/>
<path d="M13.8285 8.75732L15.2427 10.1716" stroke="#333333" stroke-width="2" stroke-linecap="round" stroke-linejoin="round"/>
</svg>
