<svg width="24" height="24" viewBox="0 0 24 24" fill="none" xmlns="http://www.w3.org/2000/svg">
<path d="M2.49994 6.9999C1.74993 5.7499 1.49996 3 3.99995 2.49983C4.99995 2.42512 5.74995 2.75005 6.99995 3.99989L12.5 9.9999L11 11.9999" stroke="#333333" stroke-width="2" stroke-linecap="round" stroke-linejoin="round"/>
<path d="M9.49995 7C7.4643 7.3535 3.49998 9 3.99998 14C4.24998 15.5 4.92958 16.9727 6.49995 18.5V21" stroke="#333333" stroke-width="2" stroke-linecap="round" stroke-linejoin="round"/>
<path d="M14.5 8.50002C16.6107 8.28522 21.1557 8.71952 22 12.5C22.2814 13.4309 22.0328 16.0789 19.5 19.0002V21.0002" stroke="#333333" stroke-width="2" stroke-linecap="round" stroke-linejoin="round"/>
<path d="M16.5 21C16.5 19.067 14.8003 18 13 18C11.1997 18 9.5 19.067 9.5 21" stroke="#333333" stroke-width="2" stroke-linecap="round"/>
</svg>
