<svg width="24" height="24" viewBox="0 0 24 24" fill="none" xmlns="http://www.w3.org/2000/svg">
<path d="M9.49975 20.5C6.74975 19.125 4.0004 15 2.50007 12.5C0.999735 10 4.15636 7.65625 5.99995 9.5C7.84355 11.3438 7.99995 11.5 7.99995 11.5V8.75C7.99995 7.7835 8.78345 7 9.74995 7C10.7165 7 11.5 7.7835 11.5 8.75V8C11.5 7.0335 12.2835 6.25 13.25 6.25C14.2165 6.25 15 7.0335 15 8V8.75C15 7.7835 15.7835 7 16.75 7C17.7165 7 18.5 7.7835 18.5 8.75V3.75C18.5 2.7835 19.2835 2 20.25 2C21.2165 2 22 2.7835 22 3.75V14.4831C22 15.4844 21.8148 16.4871 21.2722 17.3286C20.6313 18.3226 19.5556 19.6514 17.9998 20.5C15.2497 22 12.2498 21.875 9.49975 20.5Z" stroke="#333333" stroke-width="2" stroke-linecap="round" stroke-linejoin="round"/>
</svg>
