<svg width="24" height="24" viewBox="0 0 24 24" fill="none" xmlns="http://www.w3.org/2000/svg">
<path fill-rule="evenodd" clip-rule="evenodd" d="M12.0001 22.5C13.6104 22.5 16.3638 20.4 16.3638 12C16.3638 3.6 13.6104 1.5 12.0001 1.5C10.3899 1.5 7.63647 3.74151 7.63647 12C7.63647 20.2585 10.3899 22.5 12.0001 22.5Z" stroke="#333333" stroke-width="2" stroke-linecap="round" stroke-linejoin="round"/>
<path fill-rule="evenodd" clip-rule="evenodd" d="M2.55258 17.5002C3.35773 18.9063 6.62395 20.2107 14.182 15.8107C21.74 11.4107 22.2529 7.90631 21.4477 6.50016C20.6426 5.09401 17.2491 3.86375 9.81835 8.18966C2.38761 12.5155 1.74745 16.094 2.55258 17.5002Z" stroke="#333333" stroke-width="2" stroke-linecap="round" stroke-linejoin="round"/>
<path fill-rule="evenodd" clip-rule="evenodd" d="M2.55253 6.50016C1.7474 7.90631 2.26023 11.4107 9.8183 15.8107C17.3764 20.2107 20.6425 18.9063 21.4477 17.5002C22.2528 16.094 21.6127 12.5155 14.1819 8.18966C6.7512 3.86375 3.35769 5.09401 2.55253 6.50016Z" stroke="#333333" stroke-width="2" stroke-linecap="round" stroke-linejoin="round"/>
</svg>
