<svg width="24" height="24" viewBox="0 0 24 24" fill="none" xmlns="http://www.w3.org/2000/svg">
<path d="M15.1486 9.3894C15.1486 9.3894 13.534 13.9406 12.7667 14.7351C11.9994 15.5297 10.7333 15.5518 9.93872 14.7845C9.14412 14.0172 9.12202 12.7511 9.88932 11.9565C10.6566 11.1619 15.1486 9.3894 15.1486 9.3894Z" stroke="#333333" stroke-width="2" stroke-linejoin="round"/>
<path d="M19.4246 19.4246C21.3248 17.5245 22.5 14.8995 22.5 12C22.5 6.201 17.799 1.5 12 1.5C6.201 1.5 1.5 6.201 1.5 12C1.5 14.8995 2.67525 17.5245 4.57538 19.4246" stroke="#333333" stroke-width="2" stroke-linecap="round" stroke-linejoin="round"/>
<path d="M12 2V4" stroke="#333333" stroke-width="2" stroke-linecap="round" stroke-linejoin="round"/>
<path d="M19.4227 5.57104L17.8684 6.82964" stroke="#333333" stroke-width="2" stroke-linecap="round" stroke-linejoin="round"/>
<path d="M21.2611 13.6164L19.3124 13.1665" stroke="#333333" stroke-width="2" stroke-linecap="round" stroke-linejoin="round"/>
<path d="M2.73871 13.6164L4.68745 13.1665" stroke="#333333" stroke-width="2" stroke-linecap="round" stroke-linejoin="round"/>
<path d="M4.57733 5.57104L6.13162 6.82969" stroke="#333333" stroke-width="2" stroke-linecap="round" stroke-linejoin="round"/>
</svg>
