<svg width="24" height="24" viewBox="0 0 24 24" fill="none" xmlns="http://www.w3.org/2000/svg">
<g clip-path="url(#clip0_1_15538)">
<mask id="mask0_1_15538" style="mask-type:luminance" maskUnits="userSpaceOnUse" x="0" y="0" width="24" height="24">
<path d="M24 0H0V24H24V0Z" fill="white"/>
</mask>
<g mask="url(#mask0_1_15538)">
<path fill-rule="evenodd" clip-rule="evenodd" d="M9.11871 12.2373C10.0466 12.887 10.2837 13.5744 10.9229 14.0221C11.6228 14.5121 12.3966 14.7723 13.0075 14.5297C14.161 14.0717 14.9954 12.5754 16.0132 11.1219C17.9931 8.29435 17.9898 3.92944 16.1433 2.6365C14.2968 1.34357 10.2217 2.85279 8.24186 5.6803C7.27441 7.062 6.00736 8.90285 6.08361 9.6816C6.14786 10.3373 6.36831 10.7025 7.06246 11.3189C7.75661 11.9353 8.12846 11.5439 9.11871 12.2373Z" stroke="#333333" stroke-width="2"/>
<path d="M6.80874 11.1584C5.03844 13.1072 4.80466 14.5881 6.10734 15.6009C7.41004 16.6138 9.04589 16.1146 11.0148 14.1035" stroke="#333333" stroke-width="2" stroke-linecap="round"/>
<path d="M6.11931 15.6138C4.57092 17.3074 4.28612 18.8868 5.26496 20.352C6.73316 22.5499 9.64192 22.4298 11.062 20.7915C12.4821 19.1532 15.1541 15.0935 18.0915 15.928C21.0289 16.7626 20.5303 19.972 18.561 20.3092" stroke="#333333" stroke-width="2" stroke-linecap="round"/>
</g>
</g>
<defs>
<clipPath id="clip0_1_15538">
<rect width="24" height="24" fill="white"/>
</clipPath>
</defs>
</svg>
