<svg width="24" height="24" viewBox="0 0 24 24" fill="none" xmlns="http://www.w3.org/2000/svg">
<path fill-rule="evenodd" clip-rule="evenodd" d="M8.4356 16.5217L7.9988 22.3517C7.9681 22.7614 8.3323 23.0436 8.65805 22.861C10.9644 21.5691 18.1891 16.8239 21.8508 6.39493C22.0188 5.91653 21.5676 5.48483 21.1823 5.75468C19.0194 7.26943 14.2923 10.4003 11.3711 10.9966C11.3711 10.9966 13.2418 9.69728 14.3616 7.70263C14.4713 7.50708 14.4622 7.25678 14.3398 7.08028L10.2564 1.19459C10.0144 0.845694 9.5177 0.990249 9.4303 1.43497L8.15905 7.90358L2.19219 13.1113C1.89301 13.3723 1.95404 13.8998 2.29945 14.0395L8.4356 16.5217Z" fill="#333333"/>
<path fill-rule="evenodd" clip-rule="evenodd" d="M18.9873 14.2239C18.6094 14.7512 17.7954 15.8358 17.0438 16.4986C16.8936 16.6311 16.9138 16.8534 17.0862 16.9616L21.0573 19.4545C21.2963 19.6045 21.6192 19.4264 21.5788 19.1661C21.3941 17.9748 20.8619 15.4909 19.5164 14.187C19.3661 14.0415 19.1071 14.0568 18.9873 14.2239Z" fill="#333333"/>
</svg>
