<svg width="24" height="24" viewBox="0 0 24 24" fill="none" xmlns="http://www.w3.org/2000/svg">
<g clip-path="url(#clip0_1_14859)">
<mask id="mask0_1_14859" style="mask-type:luminance" maskUnits="userSpaceOnUse" x="0" y="0" width="24" height="24">
<path d="M24 0H0V24H24V0Z" fill="white"/>
</mask>
<g mask="url(#mask0_1_14859)">
<path d="M4.99994 17.9999C4.00041 16.2499 3.99951 12.9999 3.99989 8.4999C4.00002 6.9999 5.99977 6.4999 6.99967 7.9999C7.55362 8.83085 7.90797 11.132 7.90797 11.132L11.1555 5.50725C11.5034 4.90452 12.2742 4.698 12.8769 5.046C13.4797 5.394 13.6862 6.1647 13.3382 6.76745L13.5321 6.43165C13.8801 5.8289 14.6508 5.6224 15.2535 5.9704C15.8563 6.3184 16.0628 7.08915 15.7148 7.6919L15.5209 8.0277C15.8689 7.42495 16.6397 7.2184 17.2424 7.5664C17.8452 7.9144 18.0517 8.68515 17.7037 9.2879L16.9275 10.6323C17.2759 10.0289 18.0474 9.82215 18.6508 10.1706C19.2533 10.5184 19.4605 11.2883 19.114 11.8915L14.5294 19.8725C14.4806 19.9574 14.4307 20.0408 14.3691 20.1169C14.0833 20.4698 13.0717 21.4999 11 21.4999C8.67042 21.4999 6.23912 20.1695 4.99994 17.9999Z" stroke="#333333" stroke-width="2" stroke-linecap="round" stroke-linejoin="round"/>
<path d="M18.5 2.5C19.1894 2.86667 20.2527 3.37914 21 4.5C21.5 5.25 21.75 6.25 21.8954 7.5" stroke="#333333" stroke-width="2" stroke-linecap="round" stroke-linejoin="round"/>
</g>
</g>
<defs>
<clipPath id="clip0_1_14859">
<rect width="24" height="24" fill="white"/>
</clipPath>
</defs>
</svg>
