<svg width="24" height="24" viewBox="0 0 24 24" fill="none" xmlns="http://www.w3.org/2000/svg">
<path d="M11.5007 6.5C7.85055 6.5 4.77142 9.03505 3.81104 12.5H19.1903C18.2299 9.03505 15.1507 6.5 11.5007 6.5Z" stroke="#333333" stroke-width="2" stroke-linecap="round" stroke-linejoin="round"/>
<path d="M3.50049 14.7963C3.50049 17.0056 4.33324 19.0132 5.691 20.5H17.31C18.6677 19.0132 19.5005 17.0056 19.5005 14.7963C19.5005 13.9996 19.3922 13.2293 19.1901 12.5H3.81088C3.60876 13.2293 3.50049 13.9996 3.50049 14.7963Z" stroke="#333333" stroke-width="2" stroke-linecap="round" stroke-linejoin="round"/>
<path d="M13.5 6.5V5.5C13.5 4.39543 12.6046 3.5 11.5 3.5C10.3954 3.5 9.5 4.39543 9.5 5.5V6.5" stroke="#333333" stroke-width="2" stroke-linecap="round" stroke-linejoin="round"/>
<path d="M3.50033 14C3.50033 14 2.50764 13.9343 2.00007 12.75C1.25003 11 2.50015 9.99991 3.00016 8.49996C3.38055 7.35881 2.60347 6.50701 2.20991 6.16481C2.0838 6.05516 2.0003 5.89961 2.00025 5.73246L2.00017 5.42366C2.00011 5.17916 2.17702 4.97207 2.42132 4.96309C2.93916 4.94408 3.8314 4.99846 4.50018 5.49996C5.50033 6.24996 6.00033 8.49996 6.00033 8.49996" stroke="#333333" stroke-width="2" stroke-linecap="round" stroke-linejoin="round"/>
<path d="M4.5 20.5H18.5" stroke="#333333" stroke-width="2" stroke-linecap="round" stroke-linejoin="round"/>
<path d="M19.5 12.5C20.8807 12.5 22 11.3807 22 10C22 8.6193 20.8807 7.5 19.5 7.5C18.4749 7.5 17.5938 8.11705 17.208 9" stroke="#333333" stroke-width="2" stroke-linecap="round" stroke-linejoin="round"/>
</svg>
