<svg width="24" height="24" viewBox="0 0 24 24" fill="none" xmlns="http://www.w3.org/2000/svg">
<path d="M9.7998 17.25H14.1998" stroke="#333333" stroke-width="2" stroke-linecap="round"/>
<path d="M1.15137 13.6954L4.97892 4.7809L7.47455 3.5" stroke="#333333" stroke-width="2" stroke-linecap="round" stroke-linejoin="round"/>
<path d="M22.9023 13.8167L19.025 4.7809L16.5293 3.5" stroke="#333333" stroke-width="2" stroke-linecap="round" stroke-linejoin="round"/>
<path fill-rule="evenodd" clip-rule="evenodd" d="M1.70031 13.3999H9.3585C9.71585 13.3999 10.0056 13.6896 10.0056 14.047C10.0056 14.064 10.0049 14.0811 10.0035 14.0981L9.53985 19.9539C9.5132 20.2904 9.23235 20.5499 8.8948 20.5499H2.16401C1.82646 20.5499 1.54562 20.2904 1.51897 19.9539L1.05527 14.0981C1.02706 13.7418 1.29299 13.4302 1.64923 13.4019C1.66623 13.4006 1.68327 13.3999 1.70031 13.3999Z" stroke="#333333" stroke-width="2"/>
<path fill-rule="evenodd" clip-rule="evenodd" d="M14.6418 13.3999H22.3C22.6573 13.3999 22.947 13.6896 22.947 14.047C22.947 14.064 22.9463 14.0811 22.945 14.0981L22.4813 19.9539C22.4547 20.2904 22.1738 20.5499 21.8363 20.5499H15.1055C14.7679 20.5499 14.4871 20.2904 14.4604 19.9539L13.9967 14.0981C13.9685 13.7418 14.2345 13.4302 14.5907 13.4019C14.6077 13.4006 14.6247 13.3999 14.6418 13.3999Z" stroke="#333333" stroke-width="2"/>
</svg>
