<svg width="24" height="24" viewBox="0 0 24 24" fill="none" xmlns="http://www.w3.org/2000/svg">
<path d="M5.5 19.9999L3.39612 15.4415C2.8802 14.3236 3.2549 12.9966 4.27926 12.3137L5.2314 11.6789C5.3949 11.5699 5.6071 11.5668 5.77375 11.671L6 11.8124L5.06455 4.97202C5.0232 4.66953 5.10275 4.36293 5.2859 4.11868C5.5422 3.77694 6.02705 3.70768 6.3688 3.96399L6.43535 4.01391C6.6404 4.16771 6.7948 4.37934 6.87865 4.62158L8.9345 10.5607C8.9737 10.6739 9.08035 10.7499 9.20015 10.7499C9.36255 10.7499 9.49115 10.6127 9.4807 10.4507L9.03925 3.60854C9.0143 3.22166 9.15715 2.84276 9.43125 2.56863C9.75505 2.24485 10.2705 2.2163 10.628 2.50234L10.7983 2.63853C11.089 2.87109 11.2828 3.20345 11.3421 3.57099L12.4614 10.511C12.4836 10.6487 12.6025 10.7499 12.742 10.7499C12.8883 10.7499 13.0107 10.6387 13.0248 10.4931L13.6889 3.63077C13.728 3.22745 13.9285 2.85708 14.2449 2.60395L14.3481 2.52136C14.7192 2.22449 15.2542 2.25412 15.5902 2.59015C15.8526 2.85251 16 3.20834 16 3.57936V9.95555C16 9.98505 16.0025 10.0141 16.0087 10.0429C16.0645 10.3 16.4037 11.6344 17.5 11.9999C17.9537 12.1511 18.6819 13.4003 19.1864 14.3636C19.5565 15.0702 19.521 15.912 19.1336 16.6093L17.25 19.9999C17.25 19.9999 15.5 21.9999 11.5 21.9999C7.5 21.9999 5.83335 20.6665 5.5 19.9999Z" stroke="#333333" stroke-width="2" stroke-linecap="round" stroke-linejoin="round"/>
</svg>
