<svg width="24" height="24" viewBox="0 0 24 24" fill="none" xmlns="http://www.w3.org/2000/svg">
<path d="M17 15V14.4945C17 13.6691 17.6691 13 18.4945 13C19.3191 13 19.9878 13.6678 19.989 14.4923L19.995 18.5926C19.9978 20.4736 18.4737 22 16.5927 22H12.8236C10.6171 22 8.54113 20.9544 7.22763 19.1815L5.09503 16.3031C4.73487 15.817 4.70299 15.1618 5.01428 14.6429C5.51498 13.8084 6.66663 13.6666 7.35483 14.3548L8.00003 15V8C8.00003 7.17155 8.67158 6.5 9.50003 6.5C10.3285 6.5 11 7.17155 11 8V13.9375V10.5132C11 9.67745 11.6775 9 12.5132 9C13.3489 9 14.0263 9.67745 14.0263 10.5132V14.5V13.9494C14.0263 13.1282 14.692 12.4625 15.5132 12.4625C16.3343 12.4625 17 13.1282 17 13.9494V15Z" stroke="#333333" stroke-width="2" stroke-linecap="round" stroke-linejoin="round"/>
<path d="M16 2V6" stroke="#333333" stroke-width="2" stroke-linecap="round"/>
<path d="M8 10H3V8C4 8 5 7.25 4.98701 6C4.97402 4.75 4 4 3 4V2H21V4C20 4 19.026 4.75 19.013 6C19 7.25 20 8 21 8V10H14" stroke="#333333" stroke-width="2" stroke-linecap="round" stroke-linejoin="round"/>
</svg>
