<svg width="24" height="24" viewBox="0 0 24 24" fill="none" xmlns="http://www.w3.org/2000/svg">
<path d="M12 21.9998C17.5229 21.9998 22 18.3062 22 13.7498C22 10.5288 19.7626 7.85059 16.5 6.49194L14.75 7.24984L15 9.99984L11.75 8.99984L8.5 9.99984V7.24984L7 6.49194C4.01099 7.91839 2 10.6962 2 13.7498C2 18.3062 6.47715 21.9998 12 21.9998Z" stroke="#333333" stroke-width="2" stroke-linecap="round" stroke-linejoin="round"/>
<path d="M11.75 2L13.6544 4.55836L18 4.95492L14.8314 7.24165L15.75 10.5L11.75 9L7.75 10.5L8.66855 7.24165L5.5 4.95492L9.84555 4.55836L11.75 2Z" stroke="#333333" stroke-width="2" stroke-linecap="round" stroke-linejoin="round"/>
</svg>
