<svg width="24" height="24" viewBox="0 0 24 24" fill="none" xmlns="http://www.w3.org/2000/svg">
<path fill-rule="evenodd" clip-rule="evenodd" d="M12 21.5C12.4326 21.5 13.4251 21.5 14.9775 21.5C15.019 20.1315 15.2196 19.3791 15.5793 19.2426C19.3342 17.8178 22 14.217 22 10H2C2 14.1257 4.55159 17.6617 8.1784 19.1471C8.55755 19.3024 8.84075 20.0867 9.028 21.5C10.5428 21.5 11.5335 21.5 12 21.5Z" stroke="#333333" stroke-width="2" stroke-linejoin="round"/>
<path d="M7.22171 13.5112C7.40151 14.1051 7.63931 14.5955 7.93511 14.9823C8.22421 15.3604 8.58096 15.7111 9.00521 16.0344" stroke="#333333" stroke-width="2" stroke-linecap="round"/>
<path d="M12.607 10.0132C14.4849 6.1374 15.5885 3.85261 15.9179 3.15888C16.4426 2.05396 17.5078 1.78807 18.4904 2.20785C19.473 2.62762 19.8706 3.82914 19.4581 4.66656C19.2034 5.18375 18.3383 6.96225 16.8629 10.002" stroke="#333333" stroke-width="2" stroke-linecap="round"/>
</svg>
