<svg width="24" height="24" viewBox="0 0 24 24" fill="none" xmlns="http://www.w3.org/2000/svg">
<path d="M5.49998 19.9999L3.44653 15.5508C2.90896 14.386 3.3402 13.0034 4.44461 12.3508L7.21503 10.7138C7.69728 10.4288 8.29813 10.4363 8.77313 10.7331L9.11668 10.9479C9.47243 11.1702 9.92728 10.8821 9.87828 10.4655L9.07403 3.6294C9.02728 3.23187 9.16513 2.83481 9.44813 2.55177C9.76233 2.23761 10.2624 2.20991 10.6094 2.48746L10.7983 2.63857C11.089 2.87113 11.2828 3.20349 11.3421 3.57103L12.4614 10.511C12.4836 10.6487 12.6025 10.7499 12.742 10.7499C12.8883 10.7499 13.0107 10.6388 13.0248 10.4931L13.6889 3.63081C13.728 3.22749 13.9285 2.85712 14.2449 2.60399L14.3481 2.5214C14.7192 2.22453 15.2542 2.25416 15.5902 2.59019C15.8526 2.85255 16 3.20838 16 3.5794V14.7096C16 15.1289 16.4847 15.3621 16.8121 15.1002L18.5 13.7499C19.3264 13.0888 20.4374 13.5204 21.1275 13.9724C21.3468 14.1161 21.3793 14.4132 21.2235 14.624L17.25 19.9999C17.25 19.9999 15.5 21.9999 11.5 21.9999C7.49998 21.9999 5.83333 20.6666 5.49998 19.9999Z" stroke="#333333" stroke-width="2" stroke-linecap="round" stroke-linejoin="round"/>
</svg>
