<svg width="24" height="24" viewBox="0 0 24 24" fill="none" xmlns="http://www.w3.org/2000/svg">
<path d="M5.63635 2H2V5.63635H5.63635V2Z" stroke="#333333" stroke-width="2" stroke-linejoin="round"/>
<path d="M21.9999 18.3635H18.3635V21.9999H21.9999V18.3635Z" stroke="#333333" stroke-width="2" stroke-linejoin="round"/>
<path d="M5.63635 12H2V15.6363H5.63635V12Z" stroke="#333333" stroke-width="2" stroke-linejoin="round"/>
<path d="M11.9999 18.3635H8.36353V21.9999H11.9999V18.3635Z" stroke="#333333" stroke-width="2" stroke-linejoin="round"/>
<path d="M15.6363 2H12V5.63635H15.6363V2Z" stroke="#333333" stroke-width="2" stroke-linejoin="round"/>
<path d="M21.9999 8.36353H18.3635V11.9999H21.9999V8.36353Z" stroke="#333333" stroke-width="2" stroke-linejoin="round"/>
<path d="M5.63647 3.81812H12.0001" stroke="#333333" stroke-width="2" stroke-linecap="round" stroke-linejoin="round"/>
<path d="M12 20.1819H18.3636" stroke="#333333" stroke-width="2" stroke-linecap="round" stroke-linejoin="round"/>
<path d="M5.63647 13.8183H13.8183V5.63647" stroke="#333333" stroke-width="2" stroke-linecap="round" stroke-linejoin="round"/>
<path d="M14.4137 10.1816H18.3634M10.1816 18.3634V13.8141" stroke="#333333" stroke-width="2" stroke-linecap="round" stroke-linejoin="round"/>
<path d="M3.81836 5.63623V11.9998" stroke="#333333" stroke-width="2" stroke-linecap="round" stroke-linejoin="round"/>
<path d="M20.1816 12V18.3636" stroke="#333333" stroke-width="2" stroke-linecap="round" stroke-linejoin="round"/>
</svg>
