<svg width="24" height="24" viewBox="0 0 24 24" fill="none" xmlns="http://www.w3.org/2000/svg">
<path d="M16.0001 9C15.5386 12 14.5001 14.75 12.2501 14.75C10.0001 14.75 9.25009 12.25 8.50009 9C7.75009 5.75 8.50009 3 12.2501 3C16.0001 3 16.4616 6 16.0001 9Z" stroke="#333333" stroke-width="2"/>
<path d="M16.25 6.24989C17.125 5.43399 18.0164 5.16469 19.4202 5.25204C21.526 5.38309 22 6.82389 22 8.97809M22 8.97809C22 11.1323 21.1742 13.0911 19.5294 12.6479C17.8846 12.2047 18.1146 10.4547 18.8839 9.63419C19.6532 8.81369 20.9986 8.47934 22 8.97809Z" stroke="#333333" stroke-width="2" stroke-linecap="round"/>
<path d="M8.25 5.99998C7.36545 5.22798 6.32015 5.16503 5.04345 5.25238C3.12838 5.38338 2 6.84618 2 9.00038M2 9.00038C2 11.1546 3.44827 13.0914 4.94415 12.6482C6.44006 12.205 6.2309 10.455 5.53126 9.63453C4.83161 8.81403 2.91066 8.50163 2 9.00038Z" stroke="#333333" stroke-width="2" stroke-linecap="round"/>
<path d="M10 13.5V21.5" stroke="#333333" stroke-width="2" stroke-linecap="round" stroke-linejoin="round"/>
<path d="M14.5 13.5V21.5" stroke="#333333" stroke-width="2" stroke-linecap="round" stroke-linejoin="round"/>
</svg>
