<svg width="24" height="24" viewBox="0 0 24 24" fill="none" xmlns="http://www.w3.org/2000/svg">
<g clip-path="url(#clip0_1_15452)">
<mask id="mask0_1_15452" style="mask-type:luminance" maskUnits="userSpaceOnUse" x="0" y="0" width="24" height="24">
<path d="M24 0H0V24H24V0Z" fill="white"/>
</mask>
<g mask="url(#mask0_1_15452)">
<path d="M1.99994 15.4999C2.00006 12.2499 4.00019 11.0186 5.50004 10.5092C6.99984 9.99994 8.00014 9.99994 9.49994 8.49994C10.9997 6.99994 11.0002 3.99993 14 2.99993C16.9997 1.99992 20.5455 3.49994 21.4998 6.99994C22.4542 10.4999 19.7503 14.9999 18.5003 16.4999C17.2503 17.9999 14.7493 20.4999 10.4998 20.9999C6.25029 21.4999 1.99981 18.7499 1.99994 15.4999Z" stroke="#333333" stroke-width="2" stroke-linejoin="round"/>
<path d="M6 10.5218C9.5 15 14.5 10.5217 11 6" stroke="#333333" stroke-width="2" stroke-linecap="round" stroke-linejoin="round"/>
<path d="M5.50024 10.5093C7.00009 10 8.00039 10 9.50019 8.50001C11 7.00001 11.0004 4 14.0002 3" stroke="#333333" stroke-width="2" stroke-linecap="round" stroke-linejoin="round"/>
</g>
</g>
<defs>
<clipPath id="clip0_1_15452">
<rect width="24" height="24" fill="white"/>
</clipPath>
</defs>
</svg>
