<svg width="24" height="24" viewBox="0 0 24 24" fill="none" xmlns="http://www.w3.org/2000/svg">
<path d="M18.9932 2.2041H5.27894C4.73793 2.2041 4.29935 2.64268 4.29935 3.18369V20.8163C4.29935 21.3574 4.73793 21.7959 5.27894 21.7959H18.9932C19.5342 21.7959 19.9728 21.3574 19.9728 20.8163V3.18369C19.9728 2.64268 19.5342 2.2041 18.9932 2.2041Z" stroke="#333333" stroke-width="1.95918"/>
<path d="M4.29935 7.83667H19.9728" stroke="#333333" stroke-width="1.95918" stroke-linecap="round" stroke-linejoin="round"/>
<path d="M14.0953 6.12251C14.6363 6.12251 15.0748 5.68394 15.0748 5.14292C15.0748 4.60191 14.6363 4.16333 14.0953 4.16333C13.5542 4.16333 13.1157 4.60191 13.1157 5.14292C13.1157 5.68394 13.5542 6.12251 14.0953 6.12251Z" fill="#333333"/>
<path d="M17.034 6.12251C17.575 6.12251 18.0136 5.68394 18.0136 5.14292C18.0136 4.60191 17.575 4.16333 17.034 4.16333C16.493 4.16333 16.0544 4.60191 16.0544 5.14292C16.0544 5.68394 16.493 6.12251 17.034 6.12251Z" fill="#333333"/>
<path d="M12.1361 18.3674C14.0296 18.3674 15.5646 16.8324 15.5646 14.9388C15.5646 13.0453 14.0296 11.5103 12.1361 11.5103C10.2425 11.5103 8.70749 13.0453 8.70749 14.9388C8.70749 16.8324 10.2425 18.3674 12.1361 18.3674Z" stroke="#333333" stroke-width="1.95918"/>
</svg>
