<svg width="24" height="24" viewBox="0 0 24 24" fill="none" xmlns="http://www.w3.org/2000/svg">
<path d="M6.2809 8.20555C4.60881 9.8305 1.08162 14.5731 3.68126 17.9659C6.2809 21.3588 13.641 20.05 16.6795 17.6597C19.7179 15.2695 19.418 13.7925 18.7592 13.1417C18.1004 12.491 16.1778 13.1486 15.6396 12.2631C15.1015 11.3776 16.5978 9.16565 15.3226 8.4657C14.0474 7.76575 11.8453 10.2906 10.8507 9.6346C9.8561 8.9785 11.9453 6.83655 10.8507 6.2193C9.75615 5.6021 7.953 6.5806 6.2809 8.20555Z" stroke="#333333" stroke-width="2" stroke-linejoin="round"/>
<path d="M21.6893 8.25783C21.5717 6.69228 20.8995 5.28148 19.8686 4.22127C18.8623 3.18644 17.5143 2.48563 16.0068 2.30103" stroke="#333333" stroke-width="2" stroke-linecap="round"/>
<path d="M18.646 8.46555C18.5814 7.6457 18.2124 6.90685 17.6464 6.3516C17.094 5.80965 16.354 5.44265 15.5264 5.34595" stroke="#333333" stroke-width="2" stroke-linecap="round"/>
<path d="M12.5 15C12.5 16.1045 11.1568 17 9.5 17C7.84315 17 6.5 16.1045 6.5 15C6.5 13.8954 7.84315 13 9.5 13C11.1568 13 12.5 13.8954 12.5 15Z" fill="#333333"/>
</svg>
