<svg width="24" height="24" viewBox="0 0 24 24" fill="none" xmlns="http://www.w3.org/2000/svg">
<path d="M17.2588 6.92312L17 5.49997L13.5653 3.78259C12.5799 3.28992 11.4201 3.28992 10.4347 3.78259L8.69065 4.65466M17.8458 10.1523L18.5 13.75L19.5455 19.5M18 22H4L4.478 19.371M5.3182 14.75L6.7859 6.67767" stroke="#333333" stroke-width="2" stroke-linecap="round" stroke-linejoin="round"/>
<path d="M19.6464 4.35348C19.8417 4.15822 20.1583 4.15822 20.3535 4.35348L21.6464 5.64637C21.8417 5.84162 21.8417 6.15822 21.6464 6.35347L17.3535 10.6464C17.1583 10.8416 16.8417 10.8416 16.6464 10.6464L15.3535 9.35347C15.1583 9.15822 15.1583 8.84162 15.3535 8.64637L19.6464 4.35348Z" stroke="#333333" stroke-width="2" stroke-linejoin="round"/>
<path d="M13.5 10.5L15.5 8.5" stroke="#333333" stroke-width="2" stroke-linecap="round" stroke-linejoin="round"/>
<path d="M19.6464 19.6464C19.8417 19.8416 19.8417 20.1582 19.6464 20.3535L18.3535 21.6464C18.1583 21.8416 17.8417 21.8416 17.6464 21.6464L13.3535 17.3535C13.1583 17.1582 13.1583 16.8416 13.3535 16.6464L14.6464 15.3535C14.8417 15.1582 15.1583 15.1582 15.3535 15.3535L19.6464 19.6464Z" stroke="#333333" stroke-width="2" stroke-linejoin="round"/>
<path d="M13.5 13.5L15.5 15.5" stroke="#333333" stroke-width="2" stroke-linecap="round" stroke-linejoin="round"/>
<path d="M4.35354 19.6464C4.15828 19.8416 3.8417 19.8416 3.64643 19.6464L2.35354 18.3535C2.15828 18.1582 2.15828 17.8416 2.35354 17.6464L6.64644 13.3535C6.84169 13.1582 7.15829 13.1582 7.35354 13.3535L8.64644 14.6464C8.84169 14.8416 8.84169 15.1582 8.64644 15.3535L4.35354 19.6464Z" stroke="#333333" stroke-width="2" stroke-linejoin="round"/>
<path d="M10.5 13.5L8.5 15.5" stroke="#333333" stroke-width="2" stroke-linecap="round" stroke-linejoin="round"/>
<path d="M4.35354 4.35348C4.15828 4.15822 4.15828 3.84164 4.35354 3.64637L5.64644 2.35348C5.84169 2.15822 6.15829 2.15822 6.35354 2.35348L10.6464 6.64638C10.8417 6.84163 10.8417 7.15823 10.6464 7.35348L9.35354 8.64638C9.15829 8.84163 8.84169 8.84163 8.64644 8.64638L4.35354 4.35348Z" stroke="#333333" stroke-width="2" stroke-linejoin="round"/>
<path d="M10.5 10.5L8.5 8.5" stroke="#333333" stroke-width="2" stroke-linecap="round" stroke-linejoin="round"/>
<path d="M12 14C13.1046 14 14 13.1046 14 12C14 10.8954 13.1046 10 12 10C10.8954 10 10 10.8954 10 12C10 13.1046 10.8954 14 12 14Z" stroke="#333333" stroke-width="2"/>
</svg>
