<svg width="24" height="24" viewBox="0 0 24 24" fill="none" xmlns="http://www.w3.org/2000/svg">
<path d="M16.2426 12.2427C17.3284 11.1568 18 9.65685 18 8C18 4.68629 15.3137 2 12 2C8.6863 2 6 4.68629 6 8C6 9.65685 6.67155 11.1568 7.75735 12.2427" stroke="#333333" stroke-width="2" stroke-linecap="round"/>
<path d="M3 22L3.5 19.5L9 15.5L12 18.5L15 15.5L20.5 19.5L21 22" stroke="#333333" stroke-width="2" stroke-linecap="round" stroke-linejoin="round"/>
<path d="M6.4967 10.5036C6.50305 8.44825 6.83745 6.94705 7.5 5.99995C8.49385 4.57936 9.1935 4.68378 9.7027 4.90505C10.2119 5.1263 10.5113 6.5721 11.3618 6.98885C12.2123 7.4056 14.3889 7.45705 15.1344 7.95835C15.8799 8.4597 17.5848 9.3922 17.1598 10.9842" stroke="#333333" stroke-width="2"/>
</svg>
