<svg width="24" height="24" viewBox="0 0 24 24" fill="none" xmlns="http://www.w3.org/2000/svg">
<path d="M12.0002 21.1668C17.0628 21.1668 21.1669 17.0628 21.1669 12.0002C21.1669 6.93757 17.0628 2.8335 12.0002 2.8335C6.93755 2.8335 2.8335 6.93757 2.8335 12.0002C2.8335 13.243 3.40364 13.8437 4.3071 14.3725C5.21055 14.9014 6.9102 14.8136 8.06635 15.8508C9.2225 16.8881 9.30055 18.5755 9.53995 19.3954C9.7794 20.2153 10.7573 21.1668 12.0002 21.1668Z" stroke="#333333" stroke-width="2" stroke-linejoin="round"/>
<path d="M9.76321 9.27059C9.49401 9.92464 9.35941 10.6933 9.35941 11.5765C9.35941 12.4164 9.44856 13.248 9.62696 14.0712C9.80566 14.8958 10.6191 15.4194 11.4437 15.2407C11.4736 15.2342 11.5034 15.2268 11.5329 15.2186C12.4327 14.9661 13.2163 14.6355 13.8837 14.227C14.5076 13.8449 15.089 13.3626 15.6278 12.78C16.2007 12.1605 16.1629 11.1939 15.5434 10.621C15.5257 10.6047 15.5076 10.5887 15.4892 10.5732C14.8558 10.0408 14.1929 9.56269 13.5004 9.13869C12.7774 8.69604 12.0692 8.42894 11.376 8.33744C10.689 8.24674 10.027 8.62979 9.76321 9.27059Z" stroke="#333333" stroke-width="2" stroke-linejoin="round"/>
</svg>
