<?xml version="1.0" encoding="UTF-8"?>
<svg id="Layer_1" data-name="Layer 1" xmlns="http://www.w3.org/2000/svg" viewBox="0 0 938.41 655.92">
  <defs>
    <style>
      .cls-1 {
        fill: #5271b7;
        stroke-width: 0px;
      }
    </style>
  </defs>
  <path class="cls-1" d="M479.49,595.74l-30.23-54.13c-44.81-80.24-156.82-80.24-201.63,0l-30.23,54.13c-20.8,37.24-59.23,60.18-100.82,60.18h0c-89.61,0-145.62-100.3-100.82-180.54L247.63,60.18c44.81-80.24,156.82-80.24,201.63,0l231.86,415.2c44.81,80.24-11.2,180.54-100.82,180.54h0c-41.59,0-80.02-22.94-100.82-60.18ZM938.41,643.83V12.09c0-6.68-5.41-12.09-12.09-12.09h-185.34c-6.68,0-12.09,5.41-12.09,12.09v631.74c0,6.68,5.41,12.09,12.09,12.09h185.34c6.68,0,12.09-5.41,12.09-12.09Z"/>
</svg>